<svg xmlns="http://www.w3.org/2000/svg" width="420.214" height="418.555" viewBox="0 0 420.214 418.555">
  <g id="rising" transform="translate(0 -0.501)">
    <path id="Path_1434" data-name="Path 1434" d="M79.87,471.31a6.155,6.155,0,0,0,6.155-6.155V308.686A16.715,16.715,0,0,0,69.328,292H16.7A16.715,16.715,0,0,0,0,308.686V465.151a6.155,6.155,0,0,0,6.155,6.155ZM12.311,308.686A4.388,4.388,0,0,1,16.7,304.3H69.328a4.386,4.386,0,0,1,4.383,4.383V459h-61.4Zm0,0" transform="translate(0 -52.254)"/>
    <path id="Path_1435" data-name="Path 1435" d="M152.424,241.7a16.713,16.713,0,0,0-16.693,16.7V456.141a6.154,6.154,0,0,0,6.155,6.155H215.6a6.154,6.154,0,0,0,6.155-6.155V258.4a16.715,16.715,0,0,0-16.693-16.7Zm57.018,16.7V449.984h-61.4V258.4a4.392,4.392,0,0,1,4.386-4.386h52.632a4.39,4.39,0,0,1,4.381,4.386Zm0,0" transform="translate(-24.332 -43.24)"/>
    <path id="Path_1436" data-name="Path 1436" d="M357.484,447.124V208.1a16.715,16.715,0,0,0-16.7-16.7H288.154a16.715,16.715,0,0,0-16.7,16.7V447.124a6.155,6.155,0,0,0,6.155,6.155h73.715a6.155,6.155,0,0,0,6.157-6.155Zm-12.311-6.155H283.768V208.1a4.39,4.39,0,0,1,4.386-4.386h52.632a4.39,4.39,0,0,1,4.383,4.386V440.969Zm0,0" transform="translate(-48.664 -34.224)"/>
    <path id="Path_1437" data-name="Path 1437" d="M413.344,444.264h73.711a6.155,6.155,0,0,0,6.155-6.155v-280.3a16.713,16.713,0,0,0-16.7-16.693H423.88a16.713,16.713,0,0,0-16.693,16.693v280.3a6.153,6.153,0,0,0,6.157,6.157ZM419.5,157.807a4.386,4.386,0,0,1,4.383-4.383h52.632a4.39,4.39,0,0,1,4.386,4.383V431.952H419.5Zm0,0" transform="translate(-72.997 -25.208)"/>
    <path id="Path_1438" data-name="Path 1438" d="M381.365,86.262a12.847,12.847,0,0,0,22.741-3.273l21.038-63.229A12.848,12.848,0,0,0,413.407,2.868L346.813.51a12.845,12.845,0,0,0-11.006,20.165l6.953,10.013c-35.983,20.762-120.811,62.68-236.374,74.953a6.155,6.155,0,0,0,.642,12.276,6.492,6.492,0,0,0,.658-.032c124.6-13.232,214.3-60.336,247.081-79.976a6.216,6.216,0,0,0,1.891-8.783l-10.74-15.46a.538.538,0,0,1,.455-.846l66.595,2.359a.538.538,0,0,1,.491.7s-21,63.123-21.038,63.225a.538.538,0,0,1-.948.138l-9.525-13.712a6.154,6.154,0,0,0-8.261-1.744A555.27,555.27,0,0,1,302.42,99.964a6.156,6.156,0,0,0,4.825,11.327,581.4,581.4,0,0,0,67.88-34Zm0,0" transform="translate(-18.087)"/>
    <path id="Path_1439" data-name="Path 1439" d="M68.62,143.436a6.155,6.155,0,1,0-.812-12.283c-13.359.879-26.808,1.327-39.972,1.327a6.153,6.153,0,0,0-6.155,6.155V182.87a6.155,6.155,0,0,0,6.155,6.155A687.116,687.116,0,0,0,268.19,144.691a6.155,6.155,0,1,0-4.358-11.513,675.377,675.377,0,0,1-229.842,43.5V144.759C45.445,144.641,57.066,144.2,68.62,143.436Zm0,0" transform="translate(-3.886 -23.42)"/>
  </g>
</svg>
