<svg xmlns="http://www.w3.org/2000/svg" width="512.001" height="455.494" viewBox="0 0 512.001 455.494">
  <g id="Increase_in_the_Growth_" data-name="Increase in the Growth " transform="translate(0.001 -0.49)">
    <path id="Path_2887" data-name="Path 2887" d="M506.875,420.984H387.238a5.125,5.125,0,0,0-5.125,5.125v24.75a5.125,5.125,0,0,0,5.125,5.125H506.875A5.125,5.125,0,0,0,512,450.859v-24.75A5.125,5.125,0,0,0,506.875,420.984Zm0,0" fill="#fff"/>
    <path id="Path_2888" data-name="Path 2888" d="M506.875,372.977H387.238a5.128,5.128,0,0,0-5.125,5.125v24.754a5.125,5.125,0,0,0,5.125,5.121H506.875A5.125,5.125,0,0,0,512,402.855V378.1A5.128,5.128,0,0,0,506.875,372.977Zm0,0" fill="#fff"/>
    <path id="Path_2889" data-name="Path 2889" d="M506.875,324.973H387.238a5.125,5.125,0,0,0-5.125,5.121v24.754a5.128,5.128,0,0,0,5.125,5.125H506.875A5.128,5.128,0,0,0,512,354.848V330.094A5.125,5.125,0,0,0,506.875,324.973Zm0,0" fill="#fff"/>
    <path id="Path_2890" data-name="Path 2890" d="M506.875,276.965H387.238a5.125,5.125,0,0,0-5.125,5.125v24.75a5.125,5.125,0,0,0,5.125,5.125H506.875A5.125,5.125,0,0,0,512,306.84V282.09A5.125,5.125,0,0,0,506.875,276.965Zm0,0" fill="#fff"/>
    <path id="Path_2891" data-name="Path 2891" d="M506.875,228.957H387.238a5.128,5.128,0,0,0-5.125,5.125v24.754a5.125,5.125,0,0,0,5.125,5.121H506.875A5.125,5.125,0,0,0,512,258.836V234.082A5.128,5.128,0,0,0,506.875,228.957Zm0,0" fill="#fff"/>
    <path id="Path_2892" data-name="Path 2892" d="M360.379,420.984H240.742a5.123,5.123,0,0,0-5.125,5.125v24.75a5.123,5.123,0,0,0,5.125,5.125H360.379a5.122,5.122,0,0,0,5.121-5.125v-24.75A5.122,5.122,0,0,0,360.379,420.984Zm0,0" fill="#fff"/>
    <path id="Path_2893" data-name="Path 2893" d="M360.379,372.977H240.742a5.125,5.125,0,0,0-5.125,5.125v24.754a5.122,5.122,0,0,0,5.125,5.121H360.379a5.121,5.121,0,0,0,5.121-5.121V378.1A5.125,5.125,0,0,0,360.379,372.977Zm0,0" fill="#fff"/>
    <path id="Path_2894" data-name="Path 2894" d="M360.379,324.973H240.742a5.122,5.122,0,0,0-5.125,5.121v24.754a5.125,5.125,0,0,0,5.125,5.125H360.379a5.125,5.125,0,0,0,5.121-5.125V330.094A5.121,5.121,0,0,0,360.379,324.973Zm0,0" fill="#fff"/>
    <path id="Path_2895" data-name="Path 2895" d="M213.879,420.984H94.242a5.122,5.122,0,0,0-5.121,5.125v24.75a5.122,5.122,0,0,0,5.121,5.125H213.879A5.123,5.123,0,0,0,219,450.859v-24.75A5.123,5.123,0,0,0,213.879,420.984Zm0,0" fill="#fff"/>
    <path id="Path_2896" data-name="Path 2896" d="M297.754,92.82a9.858,9.858,0,0,1,3.91,3.91,1.241,1.241,0,0,0,2.18,0,9.833,9.833,0,0,1,3.91-3.91,1.244,1.244,0,0,0,0-2.18,9.809,9.809,0,0,1-3.91-3.91,1.244,1.244,0,0,0-2.18,0,9.833,9.833,0,0,1-3.91,3.91A1.241,1.241,0,0,0,297.754,92.82Zm0,0" fill="#fff"/>
    <path id="Path_2897" data-name="Path 2897" d="M316.887,126.27a19.352,19.352,0,0,1,7.691,7.691,2.44,2.44,0,0,0,4.281,0,19.352,19.352,0,0,1,7.691-7.691,2.444,2.444,0,0,0,0-4.285,19.342,19.342,0,0,1-7.691-7.687,2.438,2.438,0,0,0-4.281,0,19.367,19.367,0,0,1-7.691,7.688A2.444,2.444,0,0,0,316.887,126.27Zm0,0" fill="#fff"/>
    <path id="Path_2898" data-name="Path 2898" d="M338.375,89.191a13.34,13.34,0,0,1,5.309,5.3,1.686,1.686,0,0,0,2.957,0,13.33,13.33,0,0,1,5.3-5.3,1.686,1.686,0,0,0,0-2.957,13.34,13.34,0,0,1-5.3-5.309,1.686,1.686,0,0,0-2.957,0,13.35,13.35,0,0,1-5.309,5.309A1.686,1.686,0,0,0,338.375,89.191Zm0,0" fill="#fff"/>
    <path id="Path_2899" data-name="Path 2899" d="M156.625,1.7A40.41,40.41,0,1,0,186.043,50.7,40.406,40.406,0,0,0,156.625,1.7Zm0,0" fill="#fff"/>
    <path id="Path_2900" data-name="Path 2900" d="M220.2,185.648l-59.707-19.281-25.945-53.184,31.23,38.227,5.148-20.629a27.3,27.3,0,0,0-19.875-33.1L103.816,85.895a27.306,27.306,0,0,0-31.75,15.84L34.6,111.477a17.981,17.981,0,0,0-12.891,12.941L.563,207.145a17.974,17.974,0,0,0,34.828,8.9l18.516-72.453,7.887-2.047L41.926,221.133a118.846,118.846,0,0,0-3.32,35.887l4.715,78.434L6.352,424.938A22.465,22.465,0,1,0,47.879,442.09l38.934-94.254a22.479,22.479,0,0,0,1.664-9.926l-5.086-84.621,40.254,10.047,27.965,15.234-18.422,68.348a22.463,22.463,0,0,0,11.895,26.059H94.242a5.125,5.125,0,0,0-5.121,5.125v24.754a5.121,5.121,0,0,0,5.121,5.121H213.879A5.122,5.122,0,0,0,219,402.855V378.1a5.125,5.125,0,0,0-5.125-5.125H164.645a22.389,22.389,0,0,0,11.926-14.363L199.6,273.164a22.461,22.461,0,0,0-10.945-25.574l-41.273-22.484,2-8.027-12.051-3.891c-1.98-1.113-16.527-2.453-19.93-17.293l-15.164-66.953L131.539,189a17.978,17.978,0,0,0,10.629,9.223l67.406,21.766a17.97,17.97,0,0,0,22.859-12.375C234.988,198.277,229.41,188.625,220.2,185.648Zm0,0" fill="#fff"/>
  </g>
</svg>
