<svg xmlns="http://www.w3.org/2000/svg" width="614.589" height="647.727" viewBox="0 0 614.589 647.727">
  <g id="Group_1272" data-name="Group 1272" transform="translate(-2395.119 -2125.726)">
    <g id="DYnj9l.tif" transform="translate(2395.119 2125.726)">
      <g id="Group_1271" data-name="Group 1271">
        <path id="Path_2937" data-name="Path 2937" d="M2095.216,2451.829a179.5,179.5,0,0,1-49.04-48.872c-9.842,4.063-19.317,8.045-28.848,11.891-10.06,4.06-16.862,1.3-21.084-8.635q-6.987-16.444-13.654-33.027c-4.139-10.325-1.226-17.153,9.019-21.534,7.793-3.333,15.584-6.69,23.483-9.752,3.519-1.364,5.019-2.97,4.249-7.1a162.38,162.38,0,0,1,.036-59.505c.667-3.634-.41-5.429-3.792-6.74-8.329-3.231-16.584-6.661-24.775-10.225-9.313-4.057-12.207-11.232-8.392-20.754,4.606-11.48,9.277-22.937,14.137-34.312,3.667-8.583,10.912-11.557,19.733-8.154,8.55,3.294,17.047,6.743,25.435,10.43,3.37,1.48,5.279.942,7.4-2.1a165.152,165.152,0,0,1,42.139-42.089c3.495-2.4,3.468-4.51,1.929-7.948-3.555-7.945-6.828-16.016-10.03-24.11-3.8-9.614-.908-16.653,8.491-20.644q16.764-7.118,33.658-13.923c9.825-3.971,16.782-1.011,21.024,8.877,3.255,7.579,6.565,15.141,9.456,22.862,1.609,4.3,3.439,5.93,8.537,4.976a158.448,158.448,0,0,1,56.8-.083c5.144.9,7.433-.269,9.184-5.045,2.835-7.734,6.271-15.253,9.545-22.822,4.215-9.746,11.136-12.669,21.117-8.686q16.918,6.745,33.662,13.916c9.3,3.991,12.112,11.163,8.259,20.78-3.822,9.541-7.84,19-11.226,27.183,12.7,12.227,24.725,23.76,36.687,35.356a42.413,42.413,0,0,1,3.918,4.79c7.976,10.407,7.965,10.4,19.842,5.485,5.712-2.369,11.411-4.788,17.169-7.038,9.151-3.577,16.508-.73,20.321,8.141q7.319,17.052,14.133,34.315c3.63,9.193.654,16.336-8.3,20.231-8.193,3.561-16.437,7.033-24.785,10.205-3.779,1.437-4.645,3.562-3.944,7.331a161.023,161.023,0,0,1-.03,58.829c-.69,3.766.182,5.824,4.024,7.248,8.154,3.023,16.145,6.5,24.137,9.954,9.68,4.183,12.64,11.4,8.679,21.21-4.55,11.256-9.162,22.491-13.922,33.658-3.828,8.97-11.047,12.055-20.178,8.5-9.8-3.822-19.456-8-27.487-11.325-16.813,16.908-32.882,33.073-50.147,50.438,2.877,7,6.7,16.234,10.473,25.481,4.625,11.332,2.025,17.86-9.045,22.511q-16.16,6.789-32.383,13.413c-9.921,4.043-16.868,1.206-21.11-8.656-3.439-7.994-6.822-16.019-9.994-24.124-1.252-3.194-2.593-4.777-6.5-4.06a168.677,168.677,0,0,1-60.223.03c-3.7-.657-5.362.568-6.653,3.892-3.241,8.323-6.7,16.565-10.248,24.762-3.984,9.19-10.85,12.207-20.063,8.569q-17.577-6.938-34.93-14.443c-8.894-3.847-11.656-11.1-7.956-20.338C2086.977,2471.479,2091.007,2462,2095.216,2451.829Zm98.116-274.447c-70.134-.268-127.932,57.233-128.24,127.582-.3,70.088,57.121,127.788,127.622,128.22,70.008.434,128.034-57.262,128.262-127.536C2321.208,2235.589,2263.545,2177.649,2193.333,2177.381Z" transform="translate(-1790.658 -2093.016)" fill="#fff"/>
        <path id="Path_2938" data-name="Path 2938" d="M2131.311,2429.823c-7.915,3.9-14.523,7.605-21.48,10.45-6.73,2.749-13.826,4.612-21.309,7.044,0,5.576.148,11.295-.037,17-.271,8.368-4.479,12.782-12.739,13.063-6.644.228-13.314.123-19.955-.191-7.453-.35-13.01-4.966-11.741-12.26,2.672-15.375-4.183-21.187-18.131-24.209-8.24-1.785-15.7-7.143-25.471-11.837-2.924,3.462-6.215,7.906-10.063,11.8-6.776,6.852-13.314,6.69-20.275-.142-4.255-4.176-8.513-8.365-12.547-12.756-5.084-5.541-5.035-11.616,0-17.229a81.414,81.414,0,0,1,6.835-6.786c2.23-1.959,4.711-3.634,5.874-4.516-6.336-15.494-11.933-29.185-18-44.015-3.924,0-9.168.112-14.4-.023-10.71-.274-14.573-4.169-14.635-14.632-.033-5.275.02-10.551.093-15.828.139-10.086,4.252-14.219,14.176-14.271,5.256-.03,10.515-.007,14.262-.007,6.346-13.727,12.353-26.482,18.028-39.379.562-1.276-.416-3.84-1.5-5.107-2.967-3.483-6.475-6.5-9.581-9.868-5.484-5.967-5.517-12.518-.013-18.343,4.252-4.5,8.663-8.864,13.179-13.1,6.108-5.731,12.729-5.629,18.812.313,4.086,3.994,7.912,8.259,11.008,11.514,14.724-5.993,28.425-11.566,43.365-17.648,0-3.964-.073-9.426.017-14.883.162-9.885,4.572-14.348,14.3-14.447,5.5-.053,11.015-.027,16.516.132,9.756.284,13.984,4.714,14.1,14.665.06,5.252.01,10.508.01,14.324,13.621,6.324,26.356,12.346,39.238,18.042,1.268.562,3.832-.426,5.1-1.506,3.479-2.974,6.5-6.465,9.864-9.587,6.072-5.649,12.353-5.735,18.263-.139q6.745,6.383,13.082,13.192,8.851,9.519-.152,18.788c-3.987,4.1-8.278,7.906-11.668,11.12,6,14.672,11.609,28.366,17.75,43.378,4.133,0,9.8-.1,15.469.02,9.355.192,13.806,4.668,13.96,14.094.1,5.732.089,11.477-.152,17.2-.383,9.071-4.83,13.351-13.806,13.592-5.484.145-12.372-1.732-16.056.9-3.584,2.567-3.544,9.868-5.7,14.824-3.2,7.331-6.681,14.566-10.56,21.556-1.771,3.192-1.84,5.157.942,7.612a122.572,122.572,0,0,1,9.693,9.763c5.075,5.619,5.253,11.788.225,17.249-4.658,5.055-9.558,9.921-14.662,14.526-5.484,4.943-11.655,4.615-17.248-.489-2.2-2.008-4.3-4.14-6.347-6.306S2133.273,2432.04,2131.311,2429.823Zm-9.118-96.5a54.752,54.752,0,0,0-55.185-54.848c-30.245-.033-55.275,25.069-55.053,55.218.222,30.246,25.32,55.162,55.437,55.042A55.112,55.112,0,0,0,2122.193,2333.319Z" transform="translate(-1923.228 -1870.748)" fill="#fff"/>
        <path id="Path_2939" data-name="Path 2939" d="M2171.291,2275.029c2.915-1.645,5.869-3.346,8.854-4.989,7.106-3.9,10.728-2.973,14.864,3.773.6.974,1.169,1.969,1.738,2.963,7.952,13.922,7.873,14.711-5.885,22.8-3.422,2.011-4.011,3.862-3.241,7.627a149.158,149.158,0,0,1,2.739,21.028c.225,3.852,1.172,5.992,5.163,6.551a38.18,38.18,0,0,1,6.6,1.857c6.492,2.153,8.292,5.424,6.687,11.985-.162.667-.359,1.324-.531,1.989-4.534,17.331-4.513,17.229-21.887,14.093-1.754-.316-4.527,1.082-5.772,2.567-4.833,5.775-8.969,12.148-13.925,17.8-2.4,2.736-3.076,4.731-.965,7.678a50.884,50.884,0,0,1,3.132,5.332c3.776,6.935,2.749,10.539-4.156,14.661-.981.585-2,1.118-2.993,1.686-13.974,7.985-14.308,7.991-22.624-6.1-2.005-3.394-3.825-3.932-7.684-3.029a117.928,117.928,0,0,1-21.032,2.864c-3.967.191-5.92,1.351-6.568,5.124a44.3,44.3,0,0,1-1.245,4.639c-2.422,8.49-5.5,10.257-14.091,8.1-.442-.109-.859-.327-1.3-.442-16.73-4.434-16.647-4.417-13.149-21.341.351-1.688-.472-4.49-1.754-5.5-7.331-5.771-14.969-11.157-23.057-17.081-2.858,1.606-6.349,3.773-10.02,5.57-5.025,2.457-9.337,1.645-12.317-3.489-.575-.99-1.123-1.994-1.7-2.986-8.841-15.151-8.771-15.042,5.481-24.543,1.652-1.1,2.891-4.269,2.739-6.362a203.381,203.381,0,0,0-2.917-22.387c-.387-2.081-2.346-4.328-4.209-5.543-2.012-1.314-4.777-1.434-7.169-2.21-6.492-2.107-8.341-5.408-6.775-11.936.159-.667.38-1.318.552-1.983,4.479-17.255,4.46-17.149,21.781-14.146,1.791.308,4.589-1.057,5.848-2.547q7.5-8.9,14.186-18.474a8.886,8.886,0,0,0,.9-6.3c-.449-2.134-2.137-4-3.268-5.992a12.007,12.007,0,0,1-1.6-3.03c-2.646-12.052,8.791-12.121,14.645-16.723,4.395-3.453,10.1-3.019,12.317,2.283,4.182,10,10.5,12.313,20.04,8.335a9.414,9.414,0,0,1,4.081-.469c9.917.644,17.364-1.81,17.677-13.627a3.306,3.306,0,0,1,.909-1.831c7.3-8.351,14.89-1.218,22.221-.118,5.253.785,8.55,5.269,6.366,10.168-4.764,10.7.033,15.848,8.92,20.552C2162.812,2266.473,2166.663,2271.075,2171.291,2275.029Zm-61.134,91.447a38.244,38.244,0,1,0-38.247-38.541A38.175,38.175,0,0,0,2110.157,2366.476Z" transform="translate(-1719.191 -1779.138)" fill="#fff"/>
        <path id="Path_2940" data-name="Path 2940" d="M2178.206,2265.8c-31.392,57.708-116.779,63.2-154.986,11.3-2.885-3.916-3.413-7.081.172-10.083,6.442-5.4,12.838-11.008,19.921-15.462a216.545,216.545,0,0,1,26.426-13.982c6.076-2.728,6.578-6.722,4.223-11.608-3.509-7.288-8.1-14.08-11.3-21.487-2.335-5.413-4.625-11.543-4.344-17.229a167.525,167.525,0,0,1,4.724-31.044c4.493-18.5,22.211-28.848,43.893-26.529,20.82,2.227,33.3,14.526,34.688,34.1.489,6.872,1.365,13.72,1.646,20.6.366,8.861-.684,17.028-6.908,24.566-4.447,5.386-6.77,12.678-9.366,19.376-1.609,4.146.327,6.879,4.751,9.1,11.6,5.807,22.884,12.27,34.064,18.861C2170.158,2258.83,2173.9,2262.435,2178.206,2265.8Z" transform="translate(-1698.271 -2009.314)" fill="#fff"/>
      </g>
    </g>
  </g>
</svg>
