<svg id="_42maFP.tif" data-name="42maFP.tif" xmlns="http://www.w3.org/2000/svg" width="716.644" height="718.188" viewBox="0 0 716.644 718.188">
  <g id="Group_1270" data-name="Group 1270">
    <path id="Path_2933" data-name="Path 2933" d="M1519.318,2688.277c-153.759-.5-281.907-128.61-281.61-281.543.3-153.569,129.564-280.96,284.244-280.125,151.218.816,281.549,129.648,280.925,277.632C1802.354,2527.865,1711.707,2686.1,1519.318,2688.277Zm.28-501.693c-121.574.16-222.968,100.457-223.3,220.885-.327,119.834,101.679,220.754,223.2,220.827,122.324.073,222.507-99.331,222.56-220.836C1742.112,2285.932,1641.891,2186.424,1519.6,2186.584Z" transform="translate(-1237.708 -2126.605)" fill="#fff"/>
    <path id="Path_2934" data-name="Path 2934" d="M1406.282,2386.312c-4.953-5.277-9.906-10.551-12.91-13.75,30.556-29.629,60.684-58.837,91.958-89.161,2.622,2.322,7.837,6.942,13.892,12.3,11.131-11.252,20.091-6.209,29.515,3.366,33.747,34.3,68.034,68.07,101.95,102.208,32.181,32.391,33.774,80.392,4.063,114.6-28.5,32.806-80.742,38.934-114.271,9.014-40.193-35.869-77.379-75.151-114.9-113.9-4.3-4.442-2.394-14.9-3.369-22.573Z" transform="translate(-939.333 -1826.059)" fill="#fff"/>
    <path id="Path_2935" data-name="Path 2935" d="M1449.909,2400.87c-56.994-.181-102.683-24.632-142.086-62.752a252.383,252.383,0,0,1-29.792-33.858c-3.352-4.678-4.854-15.421-1.873-19.187,42.308-53.429,92.64-94.466,164.478-98.689,49.647-2.916,92.664,14.884,130.092,46.021,17.451,14.518,32.581,31.863,48.419,48.258,6.157,6.374,9.266,14.085,2.7,22.2-38.2,47.225-82.884,84.708-144.982,95.781a98.09,98.09,0,0,1-10.1,1.359C1460.948,2400.429,1455.118,2400.612,1449.909,2400.87Zm55.655-107.2a56.2,56.2,0,0,0-55.856-56.884c-31.775-.288-57.708,25.49-57.393,57.05.309,30.967,25.954,56.432,56.81,56.4C1480.115,2350.216,1505.438,2324.834,1505.563,2293.671Z" transform="translate(-1167.076 -2012.617)" fill="#fff"/>
    <path id="Path_2936" data-name="Path 2936" d="M1351.761,2267.344a26.844,26.844,0,0,1,.2-53.684,26.843,26.843,0,0,1-.2,53.684Z" transform="translate(-1069.853 -1959.737)" fill="#fff"/>
  </g>
</svg>
