<svg xmlns="http://www.w3.org/2000/svg" width="669.429" height="681.161" viewBox="0 0 669.429 681.161">
  <g id="nQtw7v.tif" transform="translate(0 0)">
    <g id="Group_1269" data-name="Group 1269">
      <path id="Path_2921" data-name="Path 2921" d="M1671.877,2303.495V2200.631c0-15.751-.07-31.506,0-47.261.057-12.935,8.181-21.882,19.709-21.9,11.422-.02,19.386,9,19.411,22.1.032,19.778.008,39.561.008,59.856,11.451-3.4,20.406-.767,26.8,9.624,11.8-4.957,21.473-2.36,28.44,8.833,1.659-.571,3.106-1.146,4.59-1.565,12.791-3.624,25.155,5.271,25.232,18.6q.276,46.25-.09,92.5c-.041,4.333-1.724,8.8-3.4,12.89-.538,1.317-3.51,2.3-5.373,2.307q-55.359.289-110.724.159a9.382,9.382,0,0,1-5.707-2.633q-25.564-24.067-50.888-48.385c-6.481-6.217-8.34-13.775-5.156-22.2q6.676-17.646,13.847-35.109c2.511-6.143,5.568-6.917,10.879-3.021,11.886,8.724,17,21.039,16.293,35.219-.4,8.043,2.009,13.155,8.658,16.993C1666.66,2298.942,1668.564,2300.863,1671.877,2303.495Z" transform="translate(-1358.724 -1781.038)" fill="#fff"/>
      <path id="Path_2922" data-name="Path 2922" d="M1691.909,2189.425c18.449,0,36.9.159,55.348-.086,6.318-.085,8.891,2.1,8.833,8.617q-.336,38.81,0,77.621c.057,6.531-2.528,8.634-8.837,8.6-36.67-.178-73.344-.077-110.019-.1-7.887,0-9.135-1.137-9.151-8.858-.061-25.872.057-51.748-.061-77.621-.028-6.073,2.462-8.34,8.544-8.259C1655.011,2189.584,1673.46,2189.428,1691.909,2189.425Z" transform="translate(-1313.136 -1603.018)" fill="#fff"/>
      <path id="Path_2923" data-name="Path 2923" d="M1734.2,2173.848c.077,50.677-41.113,92.023-91.68,92.015-50.191-.008-91.516-41.191-91.749-91.436-.232-50.268,41.5-92.115,91.838-92.079C1692.78,2082.381,1734.122,2123.682,1734.2,2173.848Zm-10.732.123c.114-44.256-36.275-80.8-80.568-80.9-44.647-.1-81.419,36.423-81.44,80.89-.024,44.1,36.206,80.976,79.737,81.158C1687.171,2255.313,1723.348,2219.625,1723.471,2173.971Z" transform="translate(-1550.774 -1932.145)" fill="#fff"/>
      <path id="Path_2924" data-name="Path 2924" d="M1792.831,2137.319a91.8,91.8,0,0,1-91.386,91.623c-50.448.13-92.271-41.664-91.961-91.907a92,92,0,0,1,92.238-91.534C1751.953,2045.594,1792.871,2086.83,1792.831,2137.319Zm-10.676.147a80.84,80.84,0,0,0-80.792-81.257c-44.664-.04-81.269,36.451-81.256,81,.016,44.468,36.772,81.1,81.354,81.073C1745.778,2218.266,1782.134,2181.852,1782.155,2137.466Z" transform="translate(-1370.172 -2045.501)" fill="#fff"/>
      <path id="Path_2925" data-name="Path 2925" d="M1670,2173.246c.216-49.968,42.014-91.174,92.206-90.9,50.053.273,91.4,41.994,91.219,92.043-.184,50.513-41.733,91.671-92.348,91.472C1710.6,2265.664,1669.782,2224.15,1670,2173.246Zm10.729.949c.036,44.607,36.209,81,80.457,80.927a81.208,81.208,0,0,0,81.567-81.355c-.012-44.056-36.707-80.62-80.988-80.693A81.087,81.087,0,0,0,1680.731,2174.2Z" transform="translate(-1183.998 -1932.146)" fill="#fff"/>
      <path id="Path_2926" data-name="Path 2926" d="M1703.056,2212.957c0-10.331.057-19.763-.016-29.2-.135-18.017-12.938-31.35-30.091-31.411-17.117-.061-30.164,13.24-30.385,31.155-.131,10.325-.025,20.658-.025,31.1-13.814-4.349-24.836-27.132-23.092-47.09,1.948-22.321,21.013-42.467,43.2-45.653,24.894-3.576,47.994,9.631,56.823,32.491C1727.583,2175.369,1720.719,2201.041,1703.056,2212.957Z" transform="translate(-1340.074 -1812.393)" fill="#fff"/>
      <path id="Path_2927" data-name="Path 2927" d="M1649.851,2172.777l-4.247-9.759c32.411-15.963,64.69-31.855,97.386-47.962l4.834,9.584C1715.133,2140.7,1682.767,2156.6,1649.851,2172.777Z" transform="translate(-1259.049 -1831.526)" fill="#fff"/>
      <path id="Path_2928" data-name="Path 2928" d="M1640.432,2196.836h-9.661V2093.2h9.661Z" transform="translate(-1304.68 -1898.758)" fill="#fff"/>
      <path id="Path_2929" data-name="Path 2929" d="M1689.648,2163.865l-4.223,9.718-90.343-49.118,4.72-9.442C1629.8,2131.332,1659.48,2147.466,1689.648,2163.865Z" transform="translate(-1414.466 -1831.627)" fill="#fff"/>
      <path id="Path_2930" data-name="Path 2930" d="M1674.183,2189.769c-26.2,40.428-87.1,40.457-115.008.24,4.887-3.652,9.6-7.724,14.833-10.933a198.1,198.1,0,0,1,20.251-10.709c3.819-1.77,4.528-4.385,3.1-7.532-2.291-5.06-5.388-9.75-7.729-14.79-1.675-3.611-3.844-7.568-3.734-11.315.269-9.51,1.765-18.983,2.6-28.481a17.169,17.169,0,0,0-.558-6.351c-1.517-5.022-.033-8.117,5.287-8.455,9.648-.607,19.354-1.629,28.974-1.149,17.977.9,29.443,16.5,25.693,33.837a2.024,2.024,0,0,0-.156.658c2.348,13.847-6.138,24.188-11.49,35.541-1.692,3.579-1.366,6.211,2.727,8.127a216.727,216.727,0,0,1,19.757,10.2C1664.041,2181.845,1668.839,2185.875,1674.183,2189.769Z" transform="translate(-1524.929 -1908.081)" fill="#fff"/>
      <path id="Path_2931" data-name="Path 2931" d="M1658.589,2129.309c-4.031-5.259-5.743-10.981-13.073-10.52-1.378.089-4.113-3.171-4.28-5.06-.893-10.015-2.723-20.312-1.325-30.089,2.857-19.971,19.929-33.5,37.371-31.588,18.694,2.054,33.132,19.133,32.7,39.169-.151,6.938-1.19,13.859-1.9,20.781-.473,4.618-2.535,7.52-7.769,7.341a6.025,6.025,0,0,0-3.966,1.732c-6.889,6.942-6.559,8.032,2.067,12.7,8.475,4.59,17.283,8.813,24.984,14.5,9.946,7.345,9.632,10.459.848,18.934-30.385,29.32-77.842,27.233-103.534-4.269-3.355-4.117-3.445-7.373.256-10.182,7.093-5.393,14.5-10.4,22.029-15.175C1647.681,2134.6,1652.813,2132.333,1658.589,2129.309Z" transform="translate(-1343.369 -2025.901)" fill="#fff"/>
      <path id="Path_2932" data-name="Path 2932" d="M1795.594,2190.128c-23.357,42.936-86.886,47.02-115.314,8.405-2.144-2.915-2.536-5.267.126-7.5,4.793-4.019,9.555-8.19,14.825-11.5a160.5,160.5,0,0,1,19.66-10.4c4.521-2.034,4.892-5,3.143-8.641-2.613-5.422-6.029-10.472-8.409-15.983-1.737-4.027-3.441-8.593-3.232-12.819a124.615,124.615,0,0,1,3.517-23.1c3.343-13.77,16.526-21.466,32.655-19.741,15.49,1.659,24.776,10.809,25.811,25.369.363,5.113,1.016,10.208,1.223,15.323.273,6.6-.509,12.669-5.14,18.283-3.306,4-5.034,9.428-6.971,14.413-1.194,3.086.249,5.121,3.539,6.767,8.629,4.32,17.026,9.131,25.342,14.034C1789.606,2184.938,1792.386,2187.625,1795.594,2190.128Z" transform="translate(-1157.728 -1912.896)" fill="#fff"/>
    </g>
  </g>
</svg>
