<svg xmlns="http://www.w3.org/2000/svg" width="468" height="471.987" viewBox="0 0 468 471.987">
  <g id="To_take_Better_Decisions_" data-name="To take Better Decisions " transform="translate(-0.492 0.002)">
    <path id="Path_2907" data-name="Path 2907" d="M163.414,289.43a80.315,80.315,0,0,1-8.281-.43v61.621h16.559V289A80.239,80.239,0,0,1,163.414,289.43Zm0,0" fill="#fff"/>
    <path id="Path_2908" data-name="Path 2908" d="M183.691,342.242h11.953c13.531,0,17.4-11.043,18.453-18.648H183.691Zm0,0" fill="#fff"/>
    <path id="Path_2909" data-name="Path 2909" d="M.492,339.758H43.281V467.949H.492Zm0,0" fill="#fff"/>
    <path id="Path_2910" data-name="Path 2910" d="M181.887,379.328h8.492a5.893,5.893,0,0,1,.867-.066H204.43a8.321,8.321,0,0,0,0-16.641h-55.3a17.793,17.793,0,0,1-17.711-15.883,6,6,0,0,1,11.715-2.348v-20.8H114.3c-12.637,0-15.992,7.137-19.348,17.215-1.539,4.621-2.871,8.613-6.355,10.793-8.883,5.555-17.258,8.254-25.613,8.254H55.281v90.313h6.645a91.224,91.224,0,0,1,48.129,13.715c12.066,7.484,26.66,8.105,41.8,8.105h44.6a9.241,9.241,0,1,0,0-18.48h-24.1a6,6,0,0,1,0-12h31.082a9.307,9.307,0,1,0,0-18.613H181.887a6,6,0,0,1,0-12h21.082a9.782,9.782,0,0,0,0-19.562H181.887a6,6,0,0,1,0-12Zm0,0" fill="#fff"/>
    <path id="Path_2911" data-name="Path 2911" d="M163.414,142.488a67.478,67.478,0,1,0,67.469,67.473A67.482,67.482,0,0,0,163.414,142.488Zm35.41,50.934-41.559,41.563a6.01,6.01,0,0,1-8.488,0L128,214.2a6,6,0,1,1,8.484-8.484l16.535,16.535,37.32-37.316a6,6,0,1,1,8.484,8.484Zm0,0" fill="#fff"/>
    <path id="Path_2912" data-name="Path 2912" d="M273.344,199.742h11.949V181.09h-30.4C255.945,188.7,259.813,199.742,273.344,199.742Zm0,0" fill="#fff"/>
    <path id="Path_2913" data-name="Path 2913" d="M297.293,146.5v61.621h16.559V146.5A79.8,79.8,0,0,1,297.293,146.5Zm0,0" fill="#fff"/>
    <path id="Path_2914" data-name="Path 2914" d="M425.707,197.258h42.785V325.449H425.707Zm0,0" fill="#fff"/>
    <path id="Path_2915" data-name="Path 2915" d="M380.383,209.1c-3.484-2.176-4.812-6.168-6.352-10.789-3.359-10.082-6.711-17.215-19.348-17.215H325.855v20.8a6,6,0,0,1,11.715,2.348,17.793,17.793,0,0,1-17.711,15.883h-55.3a8.319,8.319,0,0,0,0,16.637h13.184a6.488,6.488,0,0,1,.867.07H287.1a6,6,0,0,1,0,12H266.02a9.784,9.784,0,0,0,0,19.566H287.1a6,6,0,0,1,0,12H265.543a9.307,9.307,0,1,0,0,18.613h31.082a6,6,0,0,1,0,12h-24.1a9.241,9.241,0,1,0,0,18.48h44.6c15.145,0,29.738-.621,41.8-8.105a91.206,91.206,0,0,1,48.133-13.719h6.645V217.352h-7.715C397.645,217.352,389.266,214.652,380.383,209.1Zm0,0" fill="#fff"/>
    <path id="Path_2916" data-name="Path 2916" d="M291.7,133.5a67.469,67.469,0,1,0-52.953-75.309A67.447,67.447,0,0,0,291.7,133.5ZM279.781,50.152a6,6,0,1,1,8.484-8.484l17.309,17.309,17.309-17.309a6,6,0,0,1,8.484,8.484L314.059,67.461,331.367,84.77a6,6,0,1,1-8.484,8.484L305.574,75.945,288.266,93.254a6,6,0,1,1-8.484-8.484l17.313-17.309Zm0,0" fill="#fff"/>
  </g>
</svg>
