<svg id="seo_1_" data-name="seo (1)" xmlns="http://www.w3.org/2000/svg" xmlns:xlink="http://www.w3.org/1999/xlink" width="250.769" height="241.834" viewBox="0 0 250.769 241.834">
  <defs>
    <filter id="Rectangle_2391" x="61.925" y="77.26" width="119.297" height="92.434" filterUnits="userSpaceOnUse">
      <feOffset dy="3" input="SourceAlpha"/>
      <feGaussianBlur stdDeviation="3" result="blur"/>
      <feFlood flood-opacity="0.161"/>
      <feComposite operator="in" in2="blur"/>
      <feComposite in="SourceGraphic"/>
    </filter>
  </defs>
  <path id="Path_1425" data-name="Path 1425" d="M76.589,0c42.3,0,121.98,34.29,121.98,76.589s-79.682,76.589-121.98,76.589A76.589,76.589,0,0,1,76.589,0Z" transform="matrix(0.799, -0.602, 0.602, 0.799, 0, 119.502)" fill="#fff9ec"/>
  <g transform="matrix(1, 0, 0, 1, 0, 0)" filter="url(#Rectangle_2391)">
    <rect id="Rectangle_2391-2" data-name="Rectangle 2391" width="101.297" height="74.434" rx="3" transform="translate(70.92 83.26)" fill="#fff"/>
  </g>
  <path id="Path_1350" data-name="Path 1350" d="M238.831,369.281V361h-3.776v8.282a6.411,6.411,0,1,0,3.776,0Zm-1.888,8.762a2.635,2.635,0,1,1,2.635-2.635A2.638,2.638,0,0,1,236.943,378.043Z" transform="translate(-115.111 -202.074)" fill="#fff"/>
  <path id="Path_1355" data-name="Path 1355" d="M149.735,36.565a1.262,1.262,0,0,1-1.259,1.259H43.259A1.262,1.262,0,0,1,42,36.565V28.259A1.262,1.262,0,0,1,43.259,27H148.476a1.262,1.262,0,0,1,1.259,1.259Z" transform="translate(25.965 47.853)" fill="#fe3745"/>
  <path id="Path_1356" data-name="Path 1356" d="M46.995,36.565V28.259A1.262,1.262,0,0,1,48.253,27H43.259A1.262,1.262,0,0,0,42,28.259v8.307a1.262,1.262,0,0,0,1.259,1.259h4.995A1.262,1.262,0,0,1,46.995,36.565Z" transform="translate(25.965 47.853)" fill="#b7092b"/>
  <g id="Group_789" data-name="Group 789" transform="translate(84.752 92.401)">
    <ellipse id="Ellipse_151" data-name="Ellipse 151" cx="8.935" cy="8.935" rx="8.935" ry="8.935" transform="translate(0 0)" fill="#91e0e8"/>
    <path id="Path_1357" data-name="Path 1357" d="M116.3,111.966a8.936,8.936,0,0,1,3.821-14.9,8.935,8.935,0,1,0,0,17.159A8.888,8.888,0,0,1,116.3,111.966Z" transform="translate(-108.693 -96.714)" fill="#91e0e8"/>
  </g>
  <path id="Path_1358" data-name="Path 1358" d="M128.068,113.4l-7.169-7.169a10.813,10.813,0,1,0-2.669,2.671l7.168,7.168a1.888,1.888,0,1,0,2.67-2.67Zm-21.021-8.386a7.047,7.047,0,1,1,4.983,2.064A7.055,7.055,0,0,1,107.047,105.016Z" transform="translate(-18.343 1.302)" fill="#293d7c"/>
  <g id="Group_790" data-name="Group 790" transform="translate(119.149 92.404)">
    <path id="Path_1359" data-name="Path 1359" d="M251.005,121.58a.757.757,0,0,1-.755.755H246.1a.757.757,0,0,1-.755-.755V97.48a.757.757,0,0,1,.755-.755h4.153a.757.757,0,0,1,.755.755Z" transform="translate(-245.342 -96.725)" fill="#5dc1d8"/>
    <path id="Path_1360" data-name="Path 1360" d="M281.005,147.365a.757.757,0,0,1-.755.755H276.1a.757.757,0,0,1-.755-.755V131.939a.757.757,0,0,1,.755-.755h4.153a.757.757,0,0,1,.755.755Z" transform="translate(-267.791 -122.51)" fill="#5dc1d8"/>
    <path id="Path_1361" data-name="Path 1361" d="M311,160.873a.757.757,0,0,1-.755.755H306.1a.757.757,0,0,1-.755-.755V149.991a.758.758,0,0,1,.755-.755h4.153a.758.758,0,0,1,.755.755Z" transform="translate(-290.238 -136.018)" fill="#5dc1d8"/>
    <path id="Path_1362" data-name="Path 1362" d="M401.164,175.959a.757.757,0,0,1-.755.755h-4.153a.757.757,0,0,1-.755-.755v-5.807a.757.757,0,0,1,.755-.755h4.153a.757.757,0,0,1,.755.755Z" transform="translate(-357.703 -151.104)" fill="#5dc1d8"/>
    <path id="Path_1363" data-name="Path 1363" d="M341,135.087a.757.757,0,0,1-.755.755h-4.153a.757.757,0,0,1-.755-.755V115.531a.757.757,0,0,1,.755-.755h4.153a.757.757,0,0,1,.755.755Z" transform="translate(-312.685 -110.232)" fill="#5dc1d8"/>
    <path id="Path_1364" data-name="Path 1364" d="M371,153.5a.757.757,0,0,1-.755.755h-4.153a.757.757,0,0,1-.755-.755v-13.36a.757.757,0,0,1,.755-.755h4.153a.757.757,0,0,1,.755.755Z" transform="translate(-335.132 -128.65)" fill="#5dc1d8"/>
  </g>
  <g id="Group_791" data-name="Group 791" transform="translate(119.149 92.404)">
    <path id="Path_1365" data-name="Path 1365" d="M247.691,121.58V97.48a.757.757,0,0,1,.755-.755H246.1a.757.757,0,0,0-.755.755v24.1a.757.757,0,0,0,.755.755h2.349A.758.758,0,0,1,247.691,121.58Z" transform="translate(-245.342 -96.725)" fill="#28a5a5"/>
    <path id="Path_1366" data-name="Path 1366" d="M277.69,147.365V131.939a.757.757,0,0,1,.755-.755H276.1a.757.757,0,0,0-.755.755v15.425a.757.757,0,0,0,.755.755h2.349A.758.758,0,0,1,277.69,147.365Z" transform="translate(-267.79 -122.51)" fill="#28a5a5"/>
    <path id="Path_1367" data-name="Path 1367" d="M307.689,160.873V149.991a.758.758,0,0,1,.755-.755H306.1a.758.758,0,0,0-.755.755v10.881a.757.757,0,0,0,.755.755h2.349A.757.757,0,0,1,307.689,160.873Z" transform="translate(-290.237 -136.018)" fill="#28a5a5"/>
    <path id="Path_1368" data-name="Path 1368" d="M397.851,175.959v-5.807a.757.757,0,0,1,.755-.755h-2.349a.757.757,0,0,0-.755.755v5.807a.757.757,0,0,0,.755.755h2.349A.757.757,0,0,1,397.851,175.959Z" transform="translate(-357.704 -151.104)" fill="#28a5a5"/>
    <path id="Path_1369" data-name="Path 1369" d="M337.687,135.087V115.531a.757.757,0,0,1,.755-.755h-2.349a.757.757,0,0,0-.755.755v19.556a.757.757,0,0,0,.755.755h2.349A.757.757,0,0,1,337.687,135.087Z" transform="translate(-312.684 -110.232)" fill="#28a5a5"/>
    <path id="Path_1370" data-name="Path 1370" d="M367.687,153.5v-13.36a.757.757,0,0,1,.755-.755h-2.349a.757.757,0,0,0-.755.755V153.5a.757.757,0,0,0,.755.755h2.349A.757.757,0,0,1,367.687,153.5Z" transform="translate(-335.133 -128.65)" fill="#28a5a5"/>
  </g>
  <ellipse id="Ellipse_152" data-name="Ellipse 152" cx="9.062" cy="9.062" rx="9.062" ry="9.062" transform="translate(80.931 120.411)" fill="#ef8318"/>
  <path id="Path_1371" data-name="Path 1371" d="M97.164,217.055a9.065,9.065,0,0,1,7.236-8.878,9.062,9.062,0,1,0,0,17.756A9.065,9.065,0,0,1,97.164,217.055Z" transform="translate(-12.581 -87.581)" fill="#db722c"/>
  <path id="Path_1372" data-name="Path 1372" d="M109.067,236.484a1.887,1.887,0,0,1-1.335-.553l-3.418-3.418a1.888,1.888,0,1,1,2.67-2.669l2.083,2.083,4.015-4.015a1.888,1.888,0,0,1,2.67,2.67l-5.35,5.35A1.888,1.888,0,0,1,109.067,236.484Z" transform="translate(-20.25 -102.072)" fill="#ffd00d"/>
  <g id="Group_792" data-name="Group 792" transform="translate(101.491 124.953)">
    <path id="Path_1373" data-name="Path 1373" d="M191,229.809H177.08a1.888,1.888,0,0,1,0-3.776H191a1.888,1.888,0,1,1,0,3.776Z" transform="translate(-175.192 -226.033)" fill="#ff9f60"/>
    <path id="Path_1374" data-name="Path 1374" d="M186.723,253.807H177.08a1.888,1.888,0,0,1,0-3.776h9.643a1.888,1.888,0,0,1,0,3.776Z" transform="translate(-175.192 -243.99)" fill="#ff9f60"/>
  </g>
  <path id="Path_1379" data-name="Path 1379" d="M108.125,313.286a.757.757,0,0,1-.755.755h-15.1a.757.757,0,0,1-.755-.755v-4.531a.757.757,0,0,1,.755-.755h15.1a.757.757,0,0,1,.755.755Z" transform="translate(-11.084 -162.415)" fill="#ef8318"/>
  <path id="Path_1380" data-name="Path 1380" d="M96.507,313.286v-4.531a.757.757,0,0,1,.755-.755H92.267a.757.757,0,0,0-.755.755v4.531a.757.757,0,0,0,.755.755h4.995A.757.757,0,0,1,96.507,313.286Z" transform="translate(-11.084 -162.415)" fill="#db722c"/>
  <g id="Group_793" data-name="Group 793" transform="translate(99.81 145.585)">
    <path id="Path_1381" data-name="Path 1381" d="M175.308,313.286a.757.757,0,0,1-.755.755h-5.286a.757.757,0,0,1-.755-.755v-4.531a.757.757,0,0,1,.755-.755h5.286a.757.757,0,0,1,.755.755Z" transform="translate(-168.512 -308)" fill="#ef8318"/>
    <path id="Path_1382" data-name="Path 1382" d="M210.308,313.286a.757.757,0,0,1-.755.755h-5.286a.757.757,0,0,1-.755-.755v-4.531a.757.757,0,0,1,.755-.755h5.286a.757.757,0,0,1,.755.755Z" transform="translate(-194.702 -308)" fill="#ef8318"/>
  </g>
  <g id="Group_794" data-name="Group 794" transform="translate(99.81 145.585)">
    <path id="Path_1383" data-name="Path 1383" d="M171.029,313.286v-4.531a.757.757,0,0,1,.755-.755h-2.517a.757.757,0,0,0-.755.755v4.531a.757.757,0,0,0,.755.755h2.517A.757.757,0,0,1,171.029,313.286Z" transform="translate(-168.512 -308)" fill="#db722c"/>
    <path id="Path_1384" data-name="Path 1384" d="M206.029,313.286v-4.531a.757.757,0,0,1,.755-.755h-2.517a.757.757,0,0,0-.755.755v4.531a.757.757,0,0,0,.755.755h2.517A.757.757,0,0,1,206.029,313.286Z" transform="translate(-194.702 -308)" fill="#db722c"/>
  </g>
  <path id="Path_1385" data-name="Path 1385" d="M270.125,313.286a.757.757,0,0,1-.755.755h-15.1a.757.757,0,0,1-.755-.755v-4.531a.757.757,0,0,1,.755-.755h15.1a.757.757,0,0,1,.755.755Z" transform="translate(-132.306 -162.415)" fill="#fe3745"/>
  <path id="Path_1386" data-name="Path 1386" d="M258.508,313.286v-4.531a.757.757,0,0,1,.755-.755h-4.995a.757.757,0,0,0-.755.755v4.531a.757.757,0,0,0,.755.755h4.995A.757.757,0,0,1,258.508,313.286Z" transform="translate(-132.307 -162.415)" fill="#b7092b"/>
  <path id="Path_1387" data-name="Path 1387" d="M334.972,308h-3.7a.757.757,0,0,0-.755.755v4.531a.757.757,0,0,0,.755.755h3.7Z" transform="translate(-189.924 -162.415)" fill="#fe3745"/>
  <g id="Group_795" data-name="Group 795" transform="translate(121.221 124.953)">
    <path id="Path_1388" data-name="Path 1388" d="M292.678,229.809H255.46a1.888,1.888,0,0,1,0-3.776h37.218a1.888,1.888,0,1,1,0,3.776Z" transform="translate(-253.572 -226.033)" fill="#ff9f60"/>
  </g>
  <g id="Group_796" data-name="Group 796" transform="translate(121.221 130.916)">
    <path id="Path_1388-2" data-name="Path 1388" d="M292.678,229.809H255.46a1.888,1.888,0,0,1,0-3.776h37.218a1.888,1.888,0,1,1,0,3.776Z" transform="translate(-253.572 -226.033)" fill="#ff9f60"/>
  </g>
  <g id="Group_797" data-name="Group 797" transform="translate(121.221 136.88)">
    <path id="Path_1388-3" data-name="Path 1388" d="M292.678,229.809H255.46a1.888,1.888,0,0,1,0-3.776h37.218a1.888,1.888,0,1,1,0,3.776Z" transform="translate(-253.572 -226.033)" fill="#ff9f60"/>
  </g>
  <path id="Path_1393" data-name="Path 1393" d="M404.612,462.025a1.649,1.649,0,1,1,1.164-.483A1.656,1.656,0,0,1,404.612,462.025Z" transform="translate(-248.147 -279.211)" fill="#fff"/>
</svg>
