<svg id="Layer_1" data-name="Layer 1" xmlns="http://www.w3.org/2000/svg" viewBox="0 0 344.14 335.85"><defs><style>.cls-1{fill:#fff;}</style></defs><title>Easy trading </title><path class="cls-1" d="M361.69,343.45c-4.51-7.17-13.29-9.16-20-4.52l-67.78,29.82H253.69c9.5,0,17.2-8.52,17.2-19.06s-7.7-19.08-17.2-19.08H222.23s-13.31-22.4-39.9-22.4S143,329.45,143,329.45v82.2H277.66a30.09,30.09,0,0,0,13.44-3.83l67.55-42c6.22-5.36,7.55-15.19,3-22.35Z" transform="translate(-91.21 -88.08)"/><path class="cls-1" d="M134.8,423.92H91.21V308.21H134.8Z" transform="translate(-91.21 -88.08)"/><path class="cls-1" d="M164.86,168.55c4.51,7.17,13.29,9.16,20,4.52l67.78-29.82h20.24c-9.5,0-17.19,8.52-17.19,19.06s7.7,19.08,17.19,19.08h31.47s13.31,22.4,39.9,22.4,39.35-21.24,39.35-21.24v-82.2H248.89a30.09,30.09,0,0,0-13.44,3.83l-67.55,42c-6.21,5.36-7.55,15.19-3,22.35Z" transform="translate(-91.21 -88.08)"/><path class="cls-1" d="M391.76,88.08h43.59V203.79H391.76Z" transform="translate(-91.21 -88.08)"/><path class="cls-1" d="M261.91,195.39a60.75,60.75,0,1,0,60.74,60.75A60.75,60.75,0,0,0,261.91,195.39Zm20.15,70.95c0,7.66-6,13.62-15.9,14.72v10.69h-8.23V280.83c-9.44-1.63-15.78-8-16.18-15.86h10.78c.37,4.13,4.3,7.49,10.06,7.49,6,0,9.23-2.54,9.23-6,0-9.86-29.24-4.2-29.24-22.66,0-7.08,5.82-13,15.35-14.26v-9h8.23v9c9,1.34,14.78,7.11,15.25,15.87H271c-.37-4.39-3.75-7.41-9.41-7.41s-8.5,2.29-8.5,5.67c0,10.15,28.42,4.48,29,22.66Z" transform="translate(-91.21 -88.08)"/></svg>