<svg xmlns="http://www.w3.org/2000/svg" width="223.799" height="181.942" viewBox="0 0 223.799 181.942">
  <g id="Group_992" data-name="Group 992" transform="translate(-849.918 -3991.987)">
    <g id="Group_991" data-name="Group 991">
      <g id="Group_990" data-name="Group 990">
        <g id="Group_989" data-name="Group 989">
          <g id="Group_988" data-name="Group 988">
            <g id="Group_987" data-name="Group 987" transform="translate(849.918 3991.987)">
              <g id="Group_833" data-name="Group 833" transform="translate(0)">
                <g id="Group_491" data-name="Group 491" transform="translate(15.631 79.465)">
                  <g id="Group_490" data-name="Group 490" transform="translate(22.491 0) rotate(14)">
                    <g id="Group_489" data-name="Group 489" transform="translate(0 0)">
                      <g id="Group_488" data-name="Group 488">
                        <path id="Path_613" data-name="Path 613" d="M14.841.9,15.35.715c9.339-3.192,18.841,4.636,21.135,16.738L49.742,87.422l-30.5,5.547S9.411,63.4,1.518,37.493C-3.01,22.629,2.927,5.274,14.841.9Z" fill="#01b1ec"/>
                      </g>
                    </g>
                  </g>
                </g>
                <g id="Group_495" data-name="Group 495" transform="translate(0 64.292)">
                  <path id="Path_614" data-name="Path 614" d="M199.439,382.6,188.01,329.723s-12.266-43.521,23.265-59.215l13.127,3.549a33.292,33.292,0,0,1,20.88,17.063c6.641,12.927,12.91,34.827,5.331,66.041l-5.075,23.518Z" transform="translate(-183.559 -270.508)" fill="#01b1ec"/>
                  <g id="Group_494" data-name="Group 494" transform="translate(27.082 17.473) rotate(40)">
                    <g id="Group_493" data-name="Group 493" transform="translate(0 0)">
                      <g id="Group_492" data-name="Group 492">
                        <path id="Path_617" data-name="Path 617" d="M1.473,7.758c.06-.126.12-.251.18-.375A13.678,13.678,0,0,1,20.2,1.557L59.57,20.942,45.981,41.885S27.359,35.9,11.412,30.238C2.262,26.987-2.648,16.551,1.473,7.758Z" transform="translate(0 0.247)" fill="#01b1ec"/>
                        <path id="Path_618" data-name="Path 618" d="M0,3.383A13.939,13.939,0,0,1,12.1.3a26.515,26.515,0,0,1,6.085,2.144c1.947.858,3.854,1.781,5.764,2.7,3.77,1.943,7.518,3.912,11.2,6.005s7.327,4.244,10.882,6.555c-3.83-1.816-7.6-3.728-11.379-5.628S27.141,8.2,23.345,6.361c-1.881-.953-3.763-1.909-5.671-2.794a32.093,32.093,0,0,0-5.79-2.251A14.614,14.614,0,0,0,0,3.383Z" transform="translate(5.008 0)" fill="#018bba"/>
                        <path id="Path_619" data-name="Path 619" d="M0,0A41.485,41.485,0,0,0,10.057,7.269a39.636,39.636,0,0,0,5.779,2.2l5.97,1.938c3.95,1.381,7.917,2.707,11.849,4.142s7.857,2.892,11.736,4.493c-4.056-1.065-8.068-2.271-12.071-3.5S25.35,13.98,21.365,12.7l-5.932-2.056a31.085,31.085,0,0,1-5.861-2.45A33.1,33.1,0,0,1,0,0Z" transform="translate(0.59 22.087)" fill="#018bba"/>
                      </g>
                    </g>
                  </g>
                </g>
                <g id="Group_499" data-name="Group 499" transform="translate(10.179)">
                  <path id="Path_627" data-name="Path 627" d="M230.051,283.034a12.415,12.415,0,0,0,3.95-1.177s-2.916-7.419-4.7-12.1c-1.18-9.551-3.609-18.016-6.443-19.08-6.212-2.33-20.184.611-24.844,6.046-2.33,2.718-2.327,12.027-1.747,20.665-2.454-1.268-5.936-.487-5.521,2.935.487,3.98,4.674,6.489,6.346,7.345v23.509l21.482,5.711V301.625a13.169,13.169,0,0,0,8.176-3.741C228.95,295.551,229.938,289.776,230.051,283.034Z" transform="translate(-185.426 -242.353)" fill="#f4cca8"/>
                  <path id="Path_628" data-name="Path 628" d="M209.973,272.788s-10.289,0-14.349-6.446c0,0,5.845,13.3,14.349,12.181Z" transform="translate(-176.825 -213.51)" fill="#e8c4a4"/>
                  <path id="Path_629" data-name="Path 629" d="M234.653,250c-1.408-1.849-3.672-2.767-9.171.754-5.546,3.548-10.011-7.155-22.137-2.363a21.2,21.2,0,0,0-4.542,2.5,24.08,24.08,0,0,0-9.2,15.469c-4.432,25.042,10.751,33.435,10.751,33.435-.022-2.391.171-4.938.316-7.326,0,0-7.939-3.235-6.2-9.419a4.368,4.368,0,0,1,4.7-.958,7.319,7.319,0,0,0,4,1.45c2.748.209,10.4-14.693,10.4-14.693l-.017.005a25.653,25.653,0,0,0,1.741-5.623c.292-1.585,2.525-2.275,4.135-2.319a13.088,13.088,0,0,1,4.69,1.029,14.941,14.941,0,0,0,4.671,1.142,6.647,6.647,0,0,0,1.433-.184,53.626,53.626,0,0,1,1.565,5.95c3.145-2.394,2.839-6.418,2.448-8.418a5.756,5.756,0,0,0,.8-1.274,8.42,8.42,0,0,0,.534-2.253C235.833,254.573,235.706,251.387,234.653,250Z" transform="translate(-188.79 -247.137)" fill="#14212b"/>
                </g>
              </g>
              <g id="Group_832" data-name="Group 832" transform="translate(113.141 8.481)">
                <g id="Group_480" data-name="Group 480" transform="translate(0 0)">
                  <g id="Group_475" data-name="Group 475" transform="translate(0 47.849)">
                    <g id="Group_470" data-name="Group 470" transform="translate(0 0)">
                      <path id="Path_593" data-name="Path 593" d="M186.98,180.735c.371-.544,50.575-5.97,50.575-5.97,1.293,5.893.651,7.882,1.046,13.866-.4.178-1.195.538-1.195.538s-.273.075-1.15.284c-2.124.51-20.435.636-20.435.636s-23.116,1.023-30.012-3.7A43.783,43.783,0,0,1,186.98,180.735Z" transform="translate(-193.498 -118.75)" fill="#ffd6b0"/>
                      <path id="Path_592" data-name="Path 592" d="M178.013,189.81l8.907-51.514c7.556-10.708,19.6,6.594,11.169,16.356-8,12.911,2.277,27.726-9.8,40.445C185.65,190.233,181.394,194.3,178.013,189.81Z" transform="translate(-152.321 -127.789)" fill="#ffd6b0"/>
                      <path id="Path_594" data-name="Path 594" d="M195.193,215.99c-.191,6.309-.428,13.225-.722,20.96,0,0-47.944,2.211-57.991-9.632a19.715,19.715,0,0,0,3.713-11.046Z" transform="translate(-105.053 -116.672)" fill="#a5a5b5"/>
                      <path id="Path_597" data-name="Path 597" d="M155.526,136.455c19.746,5.319,32.768,11.858,37.03,18.439a16.666,16.666,0,0,1,2.575,7.366c3.669,35.668-1.622,64.009-2.157,86.213a7.569,7.569,0,0,1-4.312,6.606c-2.191,1.05-16.563,1.992-29.145,0-13.183-2.087-22.908,1.612-24.651,0-1.9-1.756-1.844-13.21-1.688-15.79.1-1.7.2-3.846.305-6.723.565-15.6.848-46.533.134-75.137C133.618,152.362,124.8,143.848,155.526,136.455Z" transform="translate(-101.057 -136.455)" fill="#0a66fa"/>
                      <path id="Path_1472" data-name="Path 1472" d="M58.646,19.337,56.7,26.755" transform="translate(-29.997 -2.68)" fill="#e0e0e0"/>
                    </g>
                  </g>
                  <g id="Group_479" data-name="Group 479" transform="translate(37.724)">
                    <g id="Group_477" data-name="Group 477" transform="translate(15.813 29.14)">
                      <g id="Group_476" data-name="Group 476">
                        <path id="Path_602" data-name="Path 602" d="M154.2,146.8c4.516,2.67,8.824,2.068,13.01-.457a4.344,4.344,0,0,0,2.122-3.706V121.442l-17.751,3.779v16.861A5.461,5.461,0,0,0,154.2,146.8Z" transform="translate(-151.583 -121.442)" fill="#edcdab"/>
                      </g>
                    </g>
                    <g id="Group_478" data-name="Group 478">
                      <path id="Path_603" data-name="Path 603" d="M154.721,143.333c4.262.072,10.528-4.234,14.919-7.938.964-.813.315-7.707,1.34-8.516,3.971-3.131,9.586-.271,9.586-4.575,0-10.487-8.522-16.787-17.338-16.787-5.509,0-11.217.833-14.166,5.481a19.11,19.11,0,0,0-2.279,8.878C146.854,121.452,148.483,143.225,154.721,143.333Z" transform="translate(-140.997 -96.256)" fill="#fce3c3"/>
                      <path id="Path_604" data-name="Path 604" d="M167.468,117.758a10.153,10.153,0,0,1-7.933,4.307c-14.963,0-19.269-12.014-15.416-17.681,4.285-6.3,8.073-1.25,12.921-3.628,6.359-3.12,22.129-5.7,27.633,5.717,4,8.286,2.768,15.6.969,19.562-1.929,4.242-9.238,11.239-9.238,14.358l-1.92-6.2-.24-6.119-3.239-.84h0a4.322,4.322,0,0,1-3.432-4.143Z" transform="translate(-142.785 -98.098)" fill="#965028"/>
                      <path id="Path_605" data-name="Path 605" d="M151.833,122.686c0,3.015.585,5.519,2.54,5.519s4.274-4.007,4.274-7.022-.592-4.112-2.547-4.112S151.833,119.671,151.833,122.686Z" transform="translate(-125.396 -93.387)" fill="#edcdab"/>
                      <path id="Path_606" data-name="Path 606" d="M151.866,121.643c0,3.016.585,5.52,2.54,5.52s4.8-3.6,4.8-6.616-1.12-4.519-3.075-4.519S151.866,118.628,151.866,121.643Z" transform="translate(-125.998 -93.646)" fill="#fce3c3"/>
                    </g>
                  </g>
                </g>
                <path id="Path_607" data-name="Path 607" d="M124.066,240.529c6.245-6.379,25.178-11.617,30.21-18.427,1.374-9.445,6.638-23.933,10.267-36.42-.327-.158-.655-.311-.98-.484a1.332,1.332,0,0,1-.674-1.361l.669-4.645a1.3,1.3,0,0,1,1.424-1.1l4.906-20.1c.826-4.154,3.54-9.115,7.758-9.5,7.058-.643,13.477,7.564,12.018,14.5-.678,3.226-3.844,12.551-4.924,18.048a1.3,1.3,0,0,1,.587,1.282l-.852,4.85a1.313,1.313,0,0,1-1.11,1.106c-.15.022-.328.045-.511.069a182.97,182.97,0,0,1-9.114,28.8c-.692,1.7-1.582,3.672-2.164,4.911,0,.005-.064-.5-.085.057a12.494,12.494,0,0,1-1.523,4.195l-.089.108c-22.546,15.84-31.133,14.486-38.555,18.73C128.671,243.822,125.437,242.658,124.066,240.529Z" transform="translate(-94.467 -85.595)" fill="#0759dd"/>
                <g id="Group_482" data-name="Group 482" transform="translate(8.072 61.429)">
                  <path id="Path_608" data-name="Path 608" d="M0,39.463c-.047-.772,3.678-4.511,5.355-7.315-1.724.674-3.461,1.185-3.249.4.511-1.892,5.88-4.663,7.49-5.456a3.619,3.619,0,0,1,.727-.364c1.3-.448,4.933,1.279,8.958.308C24.4,22.947,39,8.606,45.8.312c5.586-1.08,16.368.987,16.368.987-13.082,20.566-36.1,29.993-38.824,31.2-2.4,1.587-8.832,7.73-10.111,8.383-1.809.921-5.282-.264-6.155-.21S.089,40.92,0,39.463Z" transform="translate(5.025 63.529) rotate(7)" fill="#ffd6b0"/>
                  <path id="Path_609" data-name="Path 609" d="M135.718,220.575c2.364-14.188,11.683-46.367,18.822-58.371,2.02-3.4,4.251-5.909,8.219-5.439a8.627,8.627,0,0,1,7.19,10.1c-4.519,26.423-13.7,45.455-16.586,50.854C153.284,217.866,140.383,224.638,135.718,220.575Z" transform="translate(-87.055 -144.974)" fill="#ffd6b0"/>
                  <g id="Group_481" data-name="Group 481" transform="translate(58.932 0)">
                    <path id="Path_610" data-name="Path 610" d="M133.435,180.164l7.119-23.764c1.04-4.106,4.007-8.919,8.24-9.085,7.082-.276,13.067,8.251,11.251,15.1-1.217,4.591-5.573,22.015-5.573,22.015C146.948,184.628,139.866,183.423,133.435,180.164Z" transform="translate(-133.435 -147.308)" fill="#0a66fa"/>
                  </g>
                </g>
              </g>
              <path id="Path_2573" data-name="Path 2573" d="M2723.79-1437.679l-1.224,12.4,3.9,1.408Z" transform="translate(-2579.082 1507.82)" fill="#0a66fa"/>
            </g>
            <path id="Path_2574" data-name="Path 2574" d="M140.852,178.35a14.176,14.176,0,0,1-3.6-2.239,1.326,1.326,0,0,1-.327-1.119l.491-3.695c.084-.637.524-1.018.937-.8.528.276,1.3.659,2.5,1.184h0l.068.03.045.02,0,0,.049.021S140.989,178.551,140.852,178.35Z" transform="translate(852.083 3882.869)" fill="#fff"/>
            <path id="Path_2575" data-name="Path 2575" d="M157.962,174.875l-.975,3.851a1.128,1.128,0,0,1-1.031.841c-2.689.223-11.22.54-18.486-3.455a1.034,1.034,0,0,1-.534-1.119l.8-3.695a1.181,1.181,0,0,1,1.532-.8c3.06.979,11.073,3.3,17.527,3.1A1.089,1.089,0,0,1,157.962,174.875Z" transform="translate(893.083 3922.869)" fill="#fff"/>
            <path id="Path_2671" data-name="Path 2671" d="M2.933,0H149.9a2.933,2.933,0,1,1,0,5.866H2.933A2.933,2.933,0,0,1,2.933,0Z" transform="translate(859 4166)"/>
            <rect id="Rectangle_2496" data-name="Rectangle 2496" width="38.088" height="5.866" rx="2.933" transform="translate(1035.629 4166)"/>
            <path id="Path_2673" data-name="Path 2673" d="M17.914,8.506S11.943,2.491,9.366,1.573C7.549.924,2.726-1.156,1.151.856-.311,2.724-.7,10.559,1.914,12.63c2.222,1.759,12.217-.059,12.217-.059Z" transform="matrix(0.921, -0.391, 0.391, 0.921, 938.024, 4109.486)" fill="#ffd6b0"/>
            <path id="Path_2674" data-name="Path 2674" d="M-.53,7.453S7.763.377,10.989.016,21.3,5.578,21.656,6.848c.322,1.165-1.324,9.14-11.525,4.51a12.261,12.261,0,0,0-7.459-.744l-.318.064Z" transform="matrix(0.99, -0.139, 0.139, 0.99, 931.745, 4108.483)" fill="#f4cca8"/>
            <path id="Path_2675" data-name="Path 2675" d="M2620.371-1376.138l3.56,8.65,21.614-20.649,7.087,2.424s-20.218,30.742-33.207,34.8-20.476-18.29-20.476-18.29Z" transform="translate(-1712.575 5503.723)" fill="#f4cca8"/>
            <path id="Path_2676" data-name="Path 2676" d="M249.025,285.955s-3.286,2.412-3.081,3.512,3.3.138,5.5-1.374c0,0,4.539,1.1,5.02,1.374a15.992,15.992,0,0,0,2.829.591S252.054,284.115,249.025,285.955Z" transform="translate(698.748 3821.736)" fill="#ffd6b0"/>
            <path id="Path_2677" data-name="Path 2677" d="M0,4.255s2.231,2.865,7.84,2c0,0,.281-2.963-.637-3.834,0,0-.506-.208-.768.61,0,0,.072-1.721-.717-2.126s-1.03,1.079-1.03,1.079S4.825.88,4.308.639,3.1,1.018,2.893,1.882c0,0-.241-1.9-.968-1.882S.043,1.712,0,4.255Z" transform="translate(940.632 4111.104) rotate(21)" fill="#ffd6b0"/>
          </g>
        </g>
      </g>
    </g>
  </g>
</svg>
