<svg xmlns="http://www.w3.org/2000/svg" xmlns:xlink="http://www.w3.org/1999/xlink" width="251.785" height="240.565" viewBox="0 0 251.785 240.565">
  <defs>
    <filter id="Ellipse_198" x="83.087" y="157.688" width="82.877" height="82.877" filterUnits="userSpaceOnUse">
      <feOffset dy="3" input="SourceAlpha"/>
      <feGaussianBlur stdDeviation="3" result="blur"/>
      <feFlood flood-opacity="0.161"/>
      <feComposite operator="in" in2="blur"/>
      <feComposite in="SourceGraphic"/>
    </filter>
    <filter id="Ellipse_196" x="0" y="2" width="82.877" height="82.877" filterUnits="userSpaceOnUse">
      <feOffset dy="3" input="SourceAlpha"/>
      <feGaussianBlur stdDeviation="3" result="blur-2"/>
      <feFlood flood-opacity="0.161"/>
      <feComposite operator="in" in2="blur-2"/>
      <feComposite in="SourceGraphic"/>
    </filter>
    <filter id="Ellipse_197" x="168.907" y="0" width="82.877" height="82.877" filterUnits="userSpaceOnUse">
      <feOffset dy="3" input="SourceAlpha"/>
      <feGaussianBlur stdDeviation="3" result="blur-3"/>
      <feFlood flood-opacity="0.161"/>
      <feComposite operator="in" in2="blur-3"/>
      <feComposite in="SourceGraphic"/>
    </filter>
  </defs>
  <g id="Group_1041" data-name="Group 1041" transform="translate(-824 -4502.435)">
    <line id="Line_286" data-name="Line 286" y1="34.934" transform="translate(948.645 4640.803)" fill="none" stroke="#707070" stroke-width="1" stroke-dasharray="2"/>
    <g transform="matrix(1, 0, 0, 1, 824, 4502.43)" filter="url(#Ellipse_198)">
      <circle id="Ellipse_198-2" data-name="Ellipse 198" cx="32.439" cy="32.439" r="32.439" transform="translate(92.09 163.69)" fill="#fff"/>
    </g>
    <path id="Path_2739" data-name="Path 2739" d="M0,0,44.861,19.7" transform="translate(877.958 4555.314) rotate(13)" fill="none" stroke="#707070" stroke-width="1" stroke-dasharray="2"/>
    <path id="Path_2740" data-name="Path 2740" d="M0,0,40.474,17.623" transform="translate(978.233 4577.3) rotate(-58)" fill="none" stroke="#707070" stroke-width="1" stroke-dasharray="2"/>
    <g transform="matrix(1, 0, 0, 1, 824, 4502.43)" filter="url(#Ellipse_196)">
      <circle id="Ellipse_196-2" data-name="Ellipse 196" cx="32.439" cy="32.439" r="32.439" transform="translate(9 8)" fill="#fff"/>
    </g>
    <g id="man" transform="translate(903.106 4556.566)">
      <circle id="Ellipse_199" data-name="Ellipse 199" cx="46.174" cy="46.174" r="46.174" fill="#fd8469"/>
      <g id="Group_1028" data-name="Group 1028" transform="translate(10.325 61.225)">
        <path id="Path_2781" data-name="Path 2781" d="M253.236,362.8c-.073,0-.145.073-.218.073s-.145-.073-.218-.073Z" transform="translate(-217.17 -358.074)" fill="#84dbff"/>
        <path id="Path_2782" data-name="Path 2782" d="M128.5,350.834a46.146,46.146,0,0,1-71.7,0c6.035-8.071,15.27-12.071,22.832-14.034-.582,4.8,1.891,11.2,1.963,11.053,2.545-5.817,11.053-6.326,11.053-6.326s8.508.509,10.98,6.326c.073.145,2.618-6.253,1.963-11.053C113.226,338.763,122.534,342.763,128.5,350.834Z" transform="translate(-56.8 -336.8)" fill="#84dbff"/>
      </g>
      <path id="Path_2783" data-name="Path 2783" d="M217.6,299.236v.073c0,.727-.364,5.381-10.18,9.089h-.436c-9.816-3.708-10.18-8.362-10.18-9.089v-.073a12.767,12.767,0,0,1,.436-2.836c2.836,3.563,6.253,5.963,9.962,5.963s7.126-2.4,9.962-5.963A12.767,12.767,0,0,1,217.6,299.236Z" transform="translate(-161.025 -242.519)" fill="#fff"/>
      <g id="Group_1029" data-name="Group 1029" transform="translate(33.09 56.717)">
        <path id="Path_2784" data-name="Path 2784" d="M264.4,312s.509,5.235-10.4,9.307c0,0,8.508.509,10.98,6.326C265.125,327.779,270,315.127,264.4,312Z" transform="translate(-240.917 -312)" fill="#54c0eb"/>
        <path id="Path_2785" data-name="Path 2785" d="M184.715,312c-5.6,3.127-.727,15.779-.582,15.561,2.545-5.817,10.98-6.326,10.98-6.326C184.206,317.235,184.715,312,184.715,312Z" transform="translate(-182.03 -312)" fill="#54c0eb"/>
      </g>
      <g id="Group_1030" data-name="Group 1030" transform="translate(26.95 19.653)">
        <path id="Path_2786" data-name="Path 2786" d="M202.5,126.778a20.7,20.7,0,0,1-5.89,11.925,14.071,14.071,0,0,1-1.963,1.672l-1.163-3.708H180.98l-1.163,3.708c-2.327-1.745-7.2-6.617-7.271-11.2-2.036-26.1,17.96-20.578,17.96-20.578C203.957,107.654,203.521,119.506,202.5,126.778Z" transform="translate(-168.009 -108.11)" fill="#fff"/>
        <path id="Path_2787" data-name="Path 2787" d="M336.108,205.381a7.437,7.437,0,0,1-3.708,3.272,30.857,30.857,0,0,0,1.309-3.636v-.073l.873-3.272h-.073c.291-1.091.582-2.181.8-3.272a2.067,2.067,0,0,1,.873.291C337.781,199.709,337.708,202.69,336.108,205.381Z" transform="translate(-298.924 -181.987)" fill="#fff"/>
        <path id="Path_2788" data-name="Path 2788" d="M153.221,209.635a7.437,7.437,0,0,1-3.708-3.272c-1.672-2.69-1.672-5.672-.073-6.617.145-.073.218-.145.364-.145a49.508,49.508,0,0,0,2.109,6.472A35.2,35.2,0,0,0,153.221,209.635Z" transform="translate(-148.249 -182.968)" fill="#fff"/>
      </g>
      <path id="SVGCleanerId_0" d="M172.25,42.627c.582-6.69-10.035-6.253-10.035-6.253C146.145,38.7,144.4,53.68,144.4,53.68l2.181-2.618c-3.418,7.49,1.745,20.36,2.181,21.378,2.69,8.944,8.653,17.161,15.561,17.161s12.87-8.217,15.561-17.161h0v-.073c.291-1.091.582-2.181.8-3.272h-.073c1.454-5.817,3.054-11.707,3.054-11.707C187.81,36.519,172.25,42.627,172.25,42.627Zm7.344,25.45A20.7,20.7,0,0,1,173.7,80a20.033,20.033,0,0,1-1.963,1.672l-1.163-3.636H158.07l-1.163,3.708a22.845,22.845,0,0,1-5.89-6.908,15.438,15.438,0,0,1-1.382-4.29c-2.036-26.1,17.96-20.578,17.96-20.578C181.048,48.953,180.612,60.806,179.594,68.077Z" transform="translate(-118.15 -29.757)" fill="#324a5e"/>
      <g id="Group_1031" data-name="Group 1031" transform="translate(26.25 6.611)">
        <path id="SVGCleanerId_0_1_" d="M172.25,42.627c.582-6.69-10.035-6.253-10.035-6.253C146.145,38.7,144.4,53.68,144.4,53.68l2.181-2.618c-3.418,7.49,1.745,20.36,2.181,21.378,2.69,8.944,8.653,17.161,15.561,17.161s12.87-8.217,15.561-17.161h0v-.073c.291-1.091.582-2.181.8-3.272h-.073c1.454-5.817,3.054-11.707,3.054-11.707C187.81,36.519,172.25,42.627,172.25,42.627Zm7.344,25.45A20.7,20.7,0,0,1,173.7,80a20.033,20.033,0,0,1-1.963,1.672l-1.163-3.636H158.07l-1.163,3.708a22.845,22.845,0,0,1-5.89-6.908,15.438,15.438,0,0,1-1.382-4.29c-2.036-26.1,17.96-20.578,17.96-20.578C181.048,48.953,180.612,60.806,179.594,68.077Z" transform="translate(-144.4 -36.368)" fill="#324a5e"/>
      </g>
      <path id="Path_2789" data-name="Path 2789" d="M172.25,42.627c.582-6.69-10.035-6.253-10.035-6.253C146.145,38.7,144.4,53.68,144.4,53.68l2.181-2.618c-3.418,7.49,1.745,20.36,2.181,21.378,2.69,8.944,8.653,17.161,15.561,17.161s12.87-8.217,15.561-17.161h0v-.073c.291-1.091.582-2.181.8-3.272h-.073c1.454-5.817,3.054-11.707,3.054-11.707C187.81,36.519,172.25,42.627,172.25,42.627Zm7.344,25.45A20.7,20.7,0,0,1,173.7,80a20.033,20.033,0,0,1-1.963,1.672l-1.163-3.636H158.07l-1.163,3.708c-2.327-1.745-7.2-6.617-7.271-11.2-2.036-26.1,17.96-20.578,17.96-20.578C181.048,48.953,180.612,60.806,179.594,68.077Z" transform="translate(-118.15 -29.757)" fill="#324a5e"/>
      <path id="Path_2790" data-name="Path 2790" d="M226,279.2a6.866,6.866,0,0,0,5.09,2.327,6.617,6.617,0,0,0,5.09-2.327Z" transform="translate(-184.916 -228.445)" fill="#fff"/>
    </g>
    <g transform="matrix(1, 0, 0, 1, 824, 4502.43)" filter="url(#Ellipse_197)">
      <circle id="Ellipse_197-2" data-name="Ellipse 197" cx="32.439" cy="32.439" r="32.439" transform="translate(177.91 6)" fill="#fff"/>
    </g>
    <g id="Group_1038" data-name="Group 1038" transform="translate(2 -3)">
      <g id="house_2_" data-name="house (2)" transform="translate(923.068 4681.316)">
        <path id="Path_2807" data-name="Path 2807" d="M90.364,348.94v9.537h-4v-9.539" transform="translate(-78.657 -320.512)" fill="#c97523"/>
        <path id="Path_2808" data-name="Path 2808" d="M88.148,348.94v9.537H86.363v-9.539" transform="translate(-78.657 -320.512)" fill="#a85613"/>
        <ellipse id="Ellipse_200" data-name="Ellipse 200" cx="9.707" cy="15.26" rx="9.707" ry="15.26" transform="translate(0 0)" fill="#8cc928"/>
        <path id="Path_2809" data-name="Path 2809" d="M9.707,60.9C4.345,60.9,0,54.069,0,45.641s4.345-15.26,9.707-15.26c-2.374,0-4.3,6.833-4.3,15.26S7.333,60.9,9.707,60.9Z" transform="translate(0 -30.381)" fill="#82b20b"/>
        <path id="Path_2810" data-name="Path 2810" d="M208.53,136.982v19.429H183.04V136.982l12.817-12.433Z" transform="translate(-166.707 -116.146)" fill="#e9eaef"/>
        <path id="Path_2811" data-name="Path 2811" d="M398.8,150.375v-3.589h6.373v9.658" transform="translate(-363.216 -136.399)" fill="#9eb1b7"/>
        <path id="Path_2812" data-name="Path 2812" d="M398.8,150.375v-3.589h1.53v9.658" transform="translate(-363.216 -136.399)" fill="#879ba0"/>
        <g id="Group_1032" data-name="Group 1032" transform="translate(0 36.195)">
          <path id="Path_2813" data-name="Path 2813" d="M340.852,436h12.773a1.308,1.308,0,0,1,1.308,1.308v2.763H339.544V437.3A1.308,1.308,0,0,1,340.852,436Z" transform="translate(-309.246 -435.996)" fill="#85c10d"/>
          <path id="Path_2814" data-name="Path 2814" d="M1.308,436H16.123a1.308,1.308,0,0,1,1.308,1.308v2.763H0V437.3A1.308,1.308,0,0,1,1.308,436Z" transform="translate(0 -435.996)" fill="#85c10d"/>
        </g>
        <path id="Path_2815" data-name="Path 2815" d="M208.53,148.781v3.632l-12.745-12.169L183.04,152.412v-3.632l11.733-11.174,1.012-.94,1.011.94Z" transform="translate(-166.707 -127.182)" fill="#d2d4d8"/>
        <path id="Path_2816" data-name="Path 2816" d="M157.047,117.594l-14.511,13.854-2.029-1.7,15.528-14.789,1.012-.94,1.012.94,15.528,14.789-2.029,1.7Z" transform="translate(-127.969 -106.554)" fill="#ea4756"/>
        <rect id="Rectangle_2508" data-name="Rectangle 2508" width="8.406" height="14.557" transform="translate(19.451 25.709)" fill="#c97523"/>
        <path id="Path_2817" data-name="Path 2817" d="M220.825,326.868h-1.21V312.916h-7.2v13.952h-1.21V312.311a.6.6,0,0,1,.6-.6h8.406a.6.6,0,0,1,.6.6v14.557Z" transform="translate(-192.362 -286.602)" fill="#8e480e"/>
        <rect id="Rectangle_2509" data-name="Rectangle 2509" width="9.573" height="8.406" transform="translate(30.299 25.709)" fill="#a0d9f2"/>
        <rect id="Rectangle_2510" data-name="Rectangle 2510" width="9.573" height="2.554" transform="translate(30.299 25.709)" fill="#c97523"/>
        <g id="Group_1033" data-name="Group 1033" transform="translate(24.144 25.104)">
          <path id="Path_2818" data-name="Path 2818" d="M342.944,321.324h-9.573a.6.6,0,0,1-.6-.6v-8.406a.6.6,0,0,1,.6-.6h9.573a.6.6,0,0,1,.6.6v8.406A.6.6,0,0,1,342.944,321.324Zm-8.968-1.21h8.363v-7.2h-8.363Z" transform="translate(-327.216 -311.708)" fill="#8e480e"/>
          <path id="Path_2819" data-name="Path 2819" d="M272.4,393.962h-1.22a.6.6,0,0,1,0-1.21h1.22a.6.6,0,1,1,0,1.21Z" transform="translate(-270.571 -385.52)" fill="#8e480e"/>
        </g>
        <ellipse id="Ellipse_201" data-name="Ellipse 201" cx="2.338" cy="2.338" rx="2.338" ry="2.338" transform="translate(26.74 16.875)" fill="#413740"/>
        <rect id="Rectangle_2511" data-name="Rectangle 2511" width="9.573" height="1.21" transform="translate(30.299 27.658)" fill="#8e480e"/>
        <path id="Path_2820" data-name="Path 2820" d="M295.826,218.592a2.944,2.944,0,1,1,2.944-2.944A2.947,2.947,0,0,1,295.826,218.592Zm0-4.677a1.734,1.734,0,1,0,1.734,1.734A1.736,1.736,0,0,0,295.826,213.915Z" transform="translate(-266.747 -196.435)" fill="#ea4756"/>
        <g id="Group_1034" data-name="Group 1034" transform="translate(1.248 34.196)">
          <path id="Path_2821" data-name="Path 2821" d="M39.8,416.762a.7.7,0,0,1-.7-.7V414.3a.7.7,0,1,1,1.4,0v1.766A.7.7,0,0,1,39.8,416.762Z" transform="translate(-36.862 -413.601)" fill="#85c10d"/>
          <path id="Path_2822" data-name="Path 2822" d="M14.68,416.762a.7.7,0,0,1-.7-.7V414.3a.7.7,0,1,1,1.4,0v1.766A.7.7,0,0,1,14.68,416.762Z" transform="translate(-13.982 -413.601)" fill="#85c10d"/>
          <path id="Path_2823" data-name="Path 2823" d="M150,416.762a.7.7,0,0,1-.7-.7V414.3a.7.7,0,1,1,1.4,0v1.766A.7.7,0,0,1,150,416.762Z" transform="translate(-137.224 -413.601)" fill="#85c10d"/>
        </g>
      </g>
      <g id="Group_1035" data-name="Group 1035" transform="translate(926.1 4705.319)">
        <path id="Path_439" data-name="Path 439" d="M385.431,431.252A16.035,16.035,0,0,1,386.711,434a5.6,5.6,0,0,1-1.6.092,3.23,3.23,0,0,0,1.548.24,1.466,1.466,0,0,0,1.316.7,4.015,4.015,0,0,1-.854-.712,1.486,1.486,0,0,0,1.094.107s-1.072-.24-1.206-.48-.645-2.642-.645-2.642S385.136,430.7,385.431,431.252Z" transform="translate(-382.359 -419.71)" fill="#e8871e"/>
        <path id="Path_440" data-name="Path 440" d="M392.259,431.156a17.573,17.573,0,0,1,1.177,2.508,1.148,1.148,0,0,1-1.127.344,1.745,1.745,0,0,0,1.215.13,1.552,1.552,0,0,0,1.245.712s-.7-.38-.783-.742a1.5,1.5,0,0,0,1.245.184s-1.419-.279-1.527-.712-.445-2.445-.445-2.445S392.065,430.694,392.259,431.156Z" transform="translate(-386.86 -419.662)" fill="#e8871e"/>
        <path id="Path_441" data-name="Path 441" d="M394.855,402.846s-1.476-.258-1.05-.819S394.6,402.2,394.855,402.846Z" transform="translate(-387.802 -401.26)" fill="#fded00"/>
        <path id="Path_442" data-name="Path 442" d="M396.411,401.925s.969-.721.667-1.245-1.2-.605-1.183.258S396.322,401.8,396.411,401.925Z" transform="translate(-389.171 -400.286)" fill="#fded00"/>
        <path id="Path_443" data-name="Path 443" d="M380.922,409.208a5.7,5.7,0,0,0,1.169-.762,2,2,0,0,0,.7-1.7,2.427,2.427,0,0,1,3.012-2.822c2.123.32,2.834,2.988.7,3.747a.847.847,0,0,0-.32,1.02c.178.771,1.838,2.7-.024,4.1s-2.7,1.672-4.527,1.363a3.74,3.74,0,0,1-2.873-1.85c-.392-.629-1.414-.952-1.067-1.577a3.326,3.326,0,0,1,1.234-.652C379.563,409.828,380.83,409.251,380.922,409.208Z" transform="translate(-377.625 -402.553)" fill="#fded00"/>
        <path id="Path_444" data-name="Path 444" d="M394.976,422.046s.273-.584-.984-1.07a2.161,2.161,0,0,1-.886-3.012,2.716,2.716,0,0,1,2.57-1.056,3.318,3.318,0,0,1,1.032,2.289A3.425,3.425,0,0,1,394.976,422.046Z" transform="translate(-387.244 -410.763)" fill="#f9ff63"/>
        <path id="Path_445" data-name="Path 445" d="M384.93,415.783s1.164,1.486.56,2.636a2.125,2.125,0,0,1-2.4,1.127c-.712-.142-.949-.51-1.281-.368,0,0,.533-.988.913-1.708A4.814,4.814,0,0,1,384.93,415.783Z" transform="translate(-380.272 -410.08)" fill="#f9ff63"/>
        <path id="Path_446" data-name="Path 446" d="M385.441,417.309a3.8,3.8,0,0,1-1.021,1.9,1.942,1.942,0,0,1-1.669.492l-.109.2c.279-.12.479.19,1.078.31a1.789,1.789,0,0,0,2.016-.948A2.105,2.105,0,0,0,385.441,417.309Z" transform="translate(-380.796 -411.044)" fill="#fded00"/>
        <path id="Path_447" data-name="Path 447" d="M402.727,410.043s.184.884.741.812.73-.373,1.24-.077c0,0,.089-.439-.587-.481S402.923,409.895,402.727,410.043Z" transform="translate(-393.489 -406.43)" fill="#d05d02"/>
        <path id="Path_448" data-name="Path 448" d="M404.708,410.136s.037-1.171-1.555-1.145c0,0-.369.1-.426.409,0,0,.5.5.913.406A.91.91,0,0,1,404.708,410.136Z" transform="translate(-393.489 -405.787)" fill="#e87812"/>
        <path id="Path_449" data-name="Path 449" d="M403.9,409.534a.072.072,0,1,1-.071-.085A.079.079,0,0,1,403.9,409.534Z" transform="translate(-394.142 -406.077)" fill="#3c3a32"/>
        <path id="Path_450" data-name="Path 450" d="M400.606,408.241a.3.3,0,1,1-.3-.376A.344.344,0,0,1,400.606,408.241Z" transform="translate(-391.774 -405.076)" fill="#3c3a32"/>
      </g>
      <g id="Group_1036" data-name="Group 1036" transform="translate(956.708 4713.986)">
        <path id="Path_439-2" data-name="Path 439" d="M386.239,431.114a6.452,6.452,0,0,0-.515,1.107,2.253,2.253,0,0,0,.642.037,1.3,1.3,0,0,1-.623.1.59.59,0,0,1-.53.283,1.613,1.613,0,0,0,.344-.286.6.6,0,0,1-.44.043s.431-.1.485-.193.259-1.063.259-1.063S386.357,430.892,386.239,431.114Z" transform="translate(-382.959 -426.469)" fill="#e8871e"/>
        <path id="Path_440-2" data-name="Path 440" d="M393.434,431.03a7.07,7.07,0,0,0-.474,1.009.462.462,0,0,0,.453.138.7.7,0,0,1-.489.052.625.625,0,0,1-.5.286s.282-.153.315-.3a.6.6,0,0,1-.5.074s.571-.112.614-.286.179-.984.179-.984S393.512,430.844,393.434,431.03Z" transform="translate(-391.091 -426.404)" fill="#e8871e"/>
        <path id="Path_441-2" data-name="Path 441" d="M393.727,402.237s.594-.1.422-.329S393.831,401.976,393.727,402.237Z" transform="translate(-392.05 -401.599)" fill="#fded00"/>
        <path id="Path_442-2" data-name="Path 442" d="M396.186,400.946s-.39-.29-.268-.5.485-.243.476.1S396.222,400.9,396.186,400.946Z" transform="translate(-394.583 -400.286)" fill="#fded00"/>
        <path id="Path_443-2" data-name="Path 443" d="M380.392,406.02a2.291,2.291,0,0,1-.471-.307.806.806,0,0,1-.283-.686.977.977,0,0,0-1.212-1.136c-.854.129-1.141,1.2-.282,1.508a.341.341,0,0,1,.129.41c-.072.31-.74,1.088.01,1.652a1.957,1.957,0,0,0,1.822.549,1.5,1.5,0,0,0,1.156-.745c.158-.253.569-.383.43-.635a1.338,1.338,0,0,0-.5-.262C380.939,406.27,380.429,406.038,380.392,406.02Z" transform="translate(-377.203 -403.342)" fill="#fded00"/>
        <path id="Path_444-2" data-name="Path 444" d="M393.543,418.949s-.11-.235.4-.431a.87.87,0,0,0,.357-1.212,1.093,1.093,0,0,0-1.034-.425,1.335,1.335,0,0,0-.415.921A1.378,1.378,0,0,0,393.543,418.949Z" transform="translate(-392.138 -414.408)" fill="#f9ff63"/>
        <path id="Path_445-2" data-name="Path 445" d="M382.108,415.783s-.469.6-.225,1.061a.855.855,0,0,0,.964.453c.286-.057.382-.205.516-.148,0,0-.215-.4-.368-.687A1.937,1.937,0,0,0,382.108,415.783Z" transform="translate(-379.467 -413.488)" fill="#f9ff63"/>
        <path id="Path_446-2" data-name="Path 446" d="M382.82,417.309a1.529,1.529,0,0,0,.411.766.781.781,0,0,0,.672.2l.044.082c-.112-.048-.193.076-.434.125a.72.72,0,0,1-.811-.382A.847.847,0,0,1,382.82,417.309Z" transform="translate(-380.173 -414.788)" fill="#fded00"/>
        <path id="Path_447-2" data-name="Path 447" d="M403.526,410.022s-.074.356-.3.327-.294-.15-.5-.031c0,0-.036-.177.236-.193S403.447,409.962,403.526,410.022Z" transform="translate(-402.727 -408.568)" fill="#d05d02"/>
        <path id="Path_448-2" data-name="Path 448" d="M402.727,409.452s-.015-.471.626-.461c0,0,.149.041.171.165,0,0-.2.2-.368.164A.366.366,0,0,0,402.727,409.452Z" transform="translate(-402.725 -407.702)" fill="#e87812"/>
        <path id="Path_449-2" data-name="Path 449" d="M403.759,409.483a.029.029,0,1,0,.029-.034A.032.032,0,0,0,403.759,409.483Z" transform="translate(-403.17 -408.092)" fill="#3c3a32"/>
        <path id="Path_450-2" data-name="Path 450" d="M400.013,408.017a.123.123,0,1,0,.119-.152A.138.138,0,0,0,400.013,408.017Z" transform="translate(-399.051 -406.743)" fill="#3c3a32"/>
      </g>
      <g id="Group_1037" data-name="Group 1037" transform="translate(959.395 4713.986)">
        <path id="Path_439-3" data-name="Path 439" d="M386.239,431.114a6.452,6.452,0,0,0-.515,1.107,2.253,2.253,0,0,0,.642.037,1.3,1.3,0,0,1-.623.1.59.59,0,0,1-.53.283,1.613,1.613,0,0,0,.344-.286.6.6,0,0,1-.44.043s.431-.1.485-.193.259-1.063.259-1.063S386.357,430.892,386.239,431.114Z" transform="translate(-382.959 -426.469)" fill="#e8871e"/>
        <path id="Path_440-3" data-name="Path 440" d="M393.434,431.03a7.07,7.07,0,0,0-.474,1.009.462.462,0,0,0,.453.138.7.7,0,0,1-.489.052.625.625,0,0,1-.5.286s.282-.153.315-.3a.6.6,0,0,1-.5.074s.571-.112.614-.286.179-.984.179-.984S393.512,430.844,393.434,431.03Z" transform="translate(-391.091 -426.404)" fill="#e8871e"/>
        <path id="Path_441-3" data-name="Path 441" d="M393.727,402.237s.594-.1.422-.329S393.831,401.976,393.727,402.237Z" transform="translate(-392.05 -401.599)" fill="#fded00"/>
        <path id="Path_442-3" data-name="Path 442" d="M396.186,400.946s-.39-.29-.268-.5.485-.243.476.1S396.222,400.9,396.186,400.946Z" transform="translate(-394.583 -400.286)" fill="#fded00"/>
        <path id="Path_443-3" data-name="Path 443" d="M380.392,406.02a2.291,2.291,0,0,1-.471-.307.806.806,0,0,1-.283-.686.977.977,0,0,0-1.212-1.136c-.854.129-1.141,1.2-.282,1.508a.341.341,0,0,1,.129.41c-.072.31-.74,1.088.01,1.652a1.957,1.957,0,0,0,1.822.549,1.5,1.5,0,0,0,1.156-.745c.158-.253.569-.383.43-.635a1.338,1.338,0,0,0-.5-.262C380.939,406.27,380.429,406.038,380.392,406.02Z" transform="translate(-377.203 -403.342)" fill="#fded00"/>
        <path id="Path_444-3" data-name="Path 444" d="M393.543,418.949s-.11-.235.4-.431a.87.87,0,0,0,.357-1.212,1.093,1.093,0,0,0-1.034-.425,1.335,1.335,0,0,0-.415.921A1.378,1.378,0,0,0,393.543,418.949Z" transform="translate(-392.138 -414.408)" fill="#f9ff63"/>
        <path id="Path_445-3" data-name="Path 445" d="M382.108,415.783s-.469.6-.225,1.061a.855.855,0,0,0,.964.453c.286-.057.382-.205.516-.148,0,0-.215-.4-.368-.687A1.937,1.937,0,0,0,382.108,415.783Z" transform="translate(-379.467 -413.488)" fill="#f9ff63"/>
        <path id="Path_446-3" data-name="Path 446" d="M382.82,417.309a1.529,1.529,0,0,0,.411.766.781.781,0,0,0,.672.2l.044.082c-.112-.048-.193.076-.434.125a.72.72,0,0,1-.811-.382A.847.847,0,0,1,382.82,417.309Z" transform="translate(-380.173 -414.788)" fill="#fded00"/>
        <path id="Path_447-3" data-name="Path 447" d="M403.526,410.022s-.074.356-.3.327-.294-.15-.5-.031c0,0-.036-.177.236-.193S403.447,409.962,403.526,410.022Z" transform="translate(-402.727 -408.568)" fill="#d05d02"/>
        <path id="Path_448-3" data-name="Path 448" d="M402.727,409.452s-.015-.471.626-.461c0,0,.149.041.171.165,0,0-.2.2-.368.164A.366.366,0,0,0,402.727,409.452Z" transform="translate(-402.725 -407.702)" fill="#e87812"/>
        <path id="Path_449-3" data-name="Path 449" d="M403.759,409.483a.029.029,0,1,0,.029-.034A.032.032,0,0,0,403.759,409.483Z" transform="translate(-403.17 -408.092)" fill="#3c3a32"/>
        <path id="Path_450-3" data-name="Path 450" d="M400.013,408.017a.123.123,0,1,0,.119-.152A.138.138,0,0,0,400.013,408.017Z" transform="translate(-399.051 -406.743)" fill="#3c3a32"/>
      </g>
    </g>
    <g id="Group_1039" data-name="Group 1039" transform="translate(88 -163)">
      <g id="house_2_2" data-name="house (2)" transform="translate(923.068 4681.316)">
        <path id="Path_2807-2" data-name="Path 2807" d="M90.364,348.94v9.537h-4v-9.539" transform="translate(-78.657 -320.512)" fill="#c97523"/>
        <path id="Path_2808-2" data-name="Path 2808" d="M88.148,348.94v9.537H86.363v-9.539" transform="translate(-78.657 -320.512)" fill="#a85613"/>
        <ellipse id="Ellipse_200-2" data-name="Ellipse 200" cx="9.707" cy="15.26" rx="9.707" ry="15.26" transform="translate(0 0)" fill="#8cc928"/>
        <path id="Path_2809-2" data-name="Path 2809" d="M9.707,60.9C4.345,60.9,0,54.069,0,45.641s4.345-15.26,9.707-15.26c-2.374,0-4.3,6.833-4.3,15.26S7.333,60.9,9.707,60.9Z" transform="translate(0 -30.381)" fill="#82b20b"/>
        <path id="Path_2810-2" data-name="Path 2810" d="M208.53,136.982v19.429H183.04V136.982l12.817-12.433Z" transform="translate(-166.707 -116.146)" fill="#e9eaef"/>
        <path id="Path_2811-2" data-name="Path 2811" d="M398.8,150.375v-3.589h6.373v9.658" transform="translate(-363.216 -136.399)" fill="#9eb1b7"/>
        <path id="Path_2812-2" data-name="Path 2812" d="M398.8,150.375v-3.589h1.53v9.658" transform="translate(-363.216 -136.399)" fill="#879ba0"/>
        <g id="Group_1032-2" data-name="Group 1032" transform="translate(0 36.195)">
          <path id="Path_2813-2" data-name="Path 2813" d="M340.852,436h12.773a1.308,1.308,0,0,1,1.308,1.308v2.763H339.544V437.3A1.308,1.308,0,0,1,340.852,436Z" transform="translate(-309.246 -435.996)" fill="#85c10d"/>
          <path id="Path_2814-2" data-name="Path 2814" d="M1.308,436H16.123a1.308,1.308,0,0,1,1.308,1.308v2.763H0V437.3A1.308,1.308,0,0,1,1.308,436Z" transform="translate(0 -435.996)" fill="#85c10d"/>
        </g>
        <path id="Path_2815-2" data-name="Path 2815" d="M208.53,148.781v3.632l-12.745-12.169L183.04,152.412v-3.632l11.733-11.174,1.012-.94,1.011.94Z" transform="translate(-166.707 -127.182)" fill="#d2d4d8"/>
        <path id="Path_2816-2" data-name="Path 2816" d="M157.047,117.594l-14.511,13.854-2.029-1.7,15.528-14.789,1.012-.94,1.012.94,15.528,14.789-2.029,1.7Z" transform="translate(-127.969 -106.554)" fill="#ea4756"/>
        <rect id="Rectangle_2508-2" data-name="Rectangle 2508" width="8.406" height="14.557" transform="translate(19.451 25.709)" fill="#c97523"/>
        <path id="Path_2817-2" data-name="Path 2817" d="M220.825,326.868h-1.21V312.916h-7.2v13.952h-1.21V312.311a.6.6,0,0,1,.6-.6h8.406a.6.6,0,0,1,.6.6v14.557Z" transform="translate(-192.362 -286.602)" fill="#8e480e"/>
        <rect id="Rectangle_2509-2" data-name="Rectangle 2509" width="9.573" height="8.406" transform="translate(30.299 25.709)" fill="#a0d9f2"/>
        <rect id="Rectangle_2510-2" data-name="Rectangle 2510" width="9.573" height="2.554" transform="translate(30.299 25.709)" fill="#c97523"/>
        <g id="Group_1033-2" data-name="Group 1033" transform="translate(24.144 25.104)">
          <path id="Path_2818-2" data-name="Path 2818" d="M342.944,321.324h-9.573a.6.6,0,0,1-.6-.6v-8.406a.6.6,0,0,1,.6-.6h9.573a.6.6,0,0,1,.6.6v8.406A.6.6,0,0,1,342.944,321.324Zm-8.968-1.21h8.363v-7.2h-8.363Z" transform="translate(-327.216 -311.708)" fill="#8e480e"/>
          <path id="Path_2819-2" data-name="Path 2819" d="M272.4,393.962h-1.22a.6.6,0,0,1,0-1.21h1.22a.6.6,0,1,1,0,1.21Z" transform="translate(-270.571 -385.52)" fill="#8e480e"/>
        </g>
        <ellipse id="Ellipse_201-2" data-name="Ellipse 201" cx="2.338" cy="2.338" rx="2.338" ry="2.338" transform="translate(26.74 16.875)" fill="#413740"/>
        <rect id="Rectangle_2511-2" data-name="Rectangle 2511" width="9.573" height="1.21" transform="translate(30.299 27.658)" fill="#8e480e"/>
        <path id="Path_2820-2" data-name="Path 2820" d="M295.826,218.592a2.944,2.944,0,1,1,2.944-2.944A2.947,2.947,0,0,1,295.826,218.592Zm0-4.677a1.734,1.734,0,1,0,1.734,1.734A1.736,1.736,0,0,0,295.826,213.915Z" transform="translate(-266.747 -196.435)" fill="#ea4756"/>
        <g id="Group_1034-2" data-name="Group 1034" transform="translate(1.248 34.196)">
          <path id="Path_2821-2" data-name="Path 2821" d="M39.8,416.762a.7.7,0,0,1-.7-.7V414.3a.7.7,0,1,1,1.4,0v1.766A.7.7,0,0,1,39.8,416.762Z" transform="translate(-36.862 -413.601)" fill="#85c10d"/>
          <path id="Path_2822-2" data-name="Path 2822" d="M14.68,416.762a.7.7,0,0,1-.7-.7V414.3a.7.7,0,1,1,1.4,0v1.766A.7.7,0,0,1,14.68,416.762Z" transform="translate(-13.982 -413.601)" fill="#85c10d"/>
          <path id="Path_2823-2" data-name="Path 2823" d="M150,416.762a.7.7,0,0,1-.7-.7V414.3a.7.7,0,1,1,1.4,0v1.766A.7.7,0,0,1,150,416.762Z" transform="translate(-137.224 -413.601)" fill="#85c10d"/>
        </g>
      </g>
      <g id="Group_1035-2" data-name="Group 1035" transform="translate(926.1 4705.319)">
        <path id="Path_439-4" data-name="Path 439" d="M385.431,431.252A16.035,16.035,0,0,1,386.711,434a5.6,5.6,0,0,1-1.6.092,3.23,3.23,0,0,0,1.548.24,1.466,1.466,0,0,0,1.316.7,4.015,4.015,0,0,1-.854-.712,1.486,1.486,0,0,0,1.094.107s-1.072-.24-1.206-.48-.645-2.642-.645-2.642S385.136,430.7,385.431,431.252Z" transform="translate(-382.359 -419.71)" fill="#e8871e"/>
        <path id="Path_440-4" data-name="Path 440" d="M392.259,431.156a17.573,17.573,0,0,1,1.177,2.508,1.148,1.148,0,0,1-1.127.344,1.745,1.745,0,0,0,1.215.13,1.552,1.552,0,0,0,1.245.712s-.7-.38-.783-.742a1.5,1.5,0,0,0,1.245.184s-1.419-.279-1.527-.712-.445-2.445-.445-2.445S392.065,430.694,392.259,431.156Z" transform="translate(-386.86 -419.662)" fill="#e8871e"/>
        <path id="Path_441-4" data-name="Path 441" d="M394.855,402.846s-1.476-.258-1.05-.819S394.6,402.2,394.855,402.846Z" transform="translate(-387.802 -401.26)" fill="#fded00"/>
        <path id="Path_442-4" data-name="Path 442" d="M396.411,401.925s.969-.721.667-1.245-1.2-.605-1.183.258S396.322,401.8,396.411,401.925Z" transform="translate(-389.171 -400.286)" fill="#fded00"/>
        <path id="Path_443-4" data-name="Path 443" d="M380.922,409.208a5.7,5.7,0,0,0,1.169-.762,2,2,0,0,0,.7-1.7,2.427,2.427,0,0,1,3.012-2.822c2.123.32,2.834,2.988.7,3.747a.847.847,0,0,0-.32,1.02c.178.771,1.838,2.7-.024,4.1s-2.7,1.672-4.527,1.363a3.74,3.74,0,0,1-2.873-1.85c-.392-.629-1.414-.952-1.067-1.577a3.326,3.326,0,0,1,1.234-.652C379.563,409.828,380.83,409.251,380.922,409.208Z" transform="translate(-377.625 -402.553)" fill="#fded00"/>
        <path id="Path_444-4" data-name="Path 444" d="M394.976,422.046s.273-.584-.984-1.07a2.161,2.161,0,0,1-.886-3.012,2.716,2.716,0,0,1,2.57-1.056,3.318,3.318,0,0,1,1.032,2.289A3.425,3.425,0,0,1,394.976,422.046Z" transform="translate(-387.244 -410.763)" fill="#f9ff63"/>
        <path id="Path_445-4" data-name="Path 445" d="M384.93,415.783s1.164,1.486.56,2.636a2.125,2.125,0,0,1-2.4,1.127c-.712-.142-.949-.51-1.281-.368,0,0,.533-.988.913-1.708A4.814,4.814,0,0,1,384.93,415.783Z" transform="translate(-380.272 -410.08)" fill="#f9ff63"/>
        <path id="Path_446-4" data-name="Path 446" d="M385.441,417.309a3.8,3.8,0,0,1-1.021,1.9,1.942,1.942,0,0,1-1.669.492l-.109.2c.279-.12.479.19,1.078.31a1.789,1.789,0,0,0,2.016-.948A2.105,2.105,0,0,0,385.441,417.309Z" transform="translate(-380.796 -411.044)" fill="#fded00"/>
        <path id="Path_447-4" data-name="Path 447" d="M402.727,410.043s.184.884.741.812.73-.373,1.24-.077c0,0,.089-.439-.587-.481S402.923,409.895,402.727,410.043Z" transform="translate(-393.489 -406.43)" fill="#d05d02"/>
        <path id="Path_448-4" data-name="Path 448" d="M404.708,410.136s.037-1.171-1.555-1.145c0,0-.369.1-.426.409,0,0,.5.5.913.406A.91.91,0,0,1,404.708,410.136Z" transform="translate(-393.489 -405.787)" fill="#e87812"/>
        <path id="Path_449-4" data-name="Path 449" d="M403.9,409.534a.072.072,0,1,1-.071-.085A.079.079,0,0,1,403.9,409.534Z" transform="translate(-394.142 -406.077)" fill="#3c3a32"/>
        <path id="Path_450-4" data-name="Path 450" d="M400.606,408.241a.3.3,0,1,1-.3-.376A.344.344,0,0,1,400.606,408.241Z" transform="translate(-391.774 -405.076)" fill="#3c3a32"/>
      </g>
      <g id="Group_1036-2" data-name="Group 1036" transform="translate(956.708 4713.986)">
        <path id="Path_439-5" data-name="Path 439" d="M386.239,431.114a6.452,6.452,0,0,0-.515,1.107,2.253,2.253,0,0,0,.642.037,1.3,1.3,0,0,1-.623.1.59.59,0,0,1-.53.283,1.613,1.613,0,0,0,.344-.286.6.6,0,0,1-.44.043s.431-.1.485-.193.259-1.063.259-1.063S386.357,430.892,386.239,431.114Z" transform="translate(-382.959 -426.469)" fill="#e8871e"/>
        <path id="Path_440-5" data-name="Path 440" d="M393.434,431.03a7.07,7.07,0,0,0-.474,1.009.462.462,0,0,0,.453.138.7.7,0,0,1-.489.052.625.625,0,0,1-.5.286s.282-.153.315-.3a.6.6,0,0,1-.5.074s.571-.112.614-.286.179-.984.179-.984S393.512,430.844,393.434,431.03Z" transform="translate(-391.091 -426.404)" fill="#e8871e"/>
        <path id="Path_441-5" data-name="Path 441" d="M393.727,402.237s.594-.1.422-.329S393.831,401.976,393.727,402.237Z" transform="translate(-392.05 -401.599)" fill="#fded00"/>
        <path id="Path_442-5" data-name="Path 442" d="M396.186,400.946s-.39-.29-.268-.5.485-.243.476.1S396.222,400.9,396.186,400.946Z" transform="translate(-394.583 -400.286)" fill="#fded00"/>
        <path id="Path_443-5" data-name="Path 443" d="M380.392,406.02a2.291,2.291,0,0,1-.471-.307.806.806,0,0,1-.283-.686.977.977,0,0,0-1.212-1.136c-.854.129-1.141,1.2-.282,1.508a.341.341,0,0,1,.129.41c-.072.31-.74,1.088.01,1.652a1.957,1.957,0,0,0,1.822.549,1.5,1.5,0,0,0,1.156-.745c.158-.253.569-.383.43-.635a1.338,1.338,0,0,0-.5-.262C380.939,406.27,380.429,406.038,380.392,406.02Z" transform="translate(-377.203 -403.342)" fill="#fded00"/>
        <path id="Path_444-5" data-name="Path 444" d="M393.543,418.949s-.11-.235.4-.431a.87.87,0,0,0,.357-1.212,1.093,1.093,0,0,0-1.034-.425,1.335,1.335,0,0,0-.415.921A1.378,1.378,0,0,0,393.543,418.949Z" transform="translate(-392.138 -414.408)" fill="#f9ff63"/>
        <path id="Path_445-5" data-name="Path 445" d="M382.108,415.783s-.469.6-.225,1.061a.855.855,0,0,0,.964.453c.286-.057.382-.205.516-.148,0,0-.215-.4-.368-.687A1.937,1.937,0,0,0,382.108,415.783Z" transform="translate(-379.467 -413.488)" fill="#f9ff63"/>
        <path id="Path_446-5" data-name="Path 446" d="M382.82,417.309a1.529,1.529,0,0,0,.411.766.781.781,0,0,0,.672.2l.044.082c-.112-.048-.193.076-.434.125a.72.72,0,0,1-.811-.382A.847.847,0,0,1,382.82,417.309Z" transform="translate(-380.173 -414.788)" fill="#fded00"/>
        <path id="Path_447-5" data-name="Path 447" d="M403.526,410.022s-.074.356-.3.327-.294-.15-.5-.031c0,0-.036-.177.236-.193S403.447,409.962,403.526,410.022Z" transform="translate(-402.727 -408.568)" fill="#d05d02"/>
        <path id="Path_448-5" data-name="Path 448" d="M402.727,409.452s-.015-.471.626-.461c0,0,.149.041.171.165,0,0-.2.2-.368.164A.366.366,0,0,0,402.727,409.452Z" transform="translate(-402.725 -407.702)" fill="#e87812"/>
        <path id="Path_449-5" data-name="Path 449" d="M403.759,409.483a.029.029,0,1,0,.029-.034A.032.032,0,0,0,403.759,409.483Z" transform="translate(-403.17 -408.092)" fill="#3c3a32"/>
        <path id="Path_450-5" data-name="Path 450" d="M400.013,408.017a.123.123,0,1,0,.119-.152A.138.138,0,0,0,400.013,408.017Z" transform="translate(-399.051 -406.743)" fill="#3c3a32"/>
      </g>
      <g id="Group_1037-2" data-name="Group 1037" transform="translate(959.395 4713.986)">
        <path id="Path_439-6" data-name="Path 439" d="M386.239,431.114a6.452,6.452,0,0,0-.515,1.107,2.253,2.253,0,0,0,.642.037,1.3,1.3,0,0,1-.623.1.59.59,0,0,1-.53.283,1.613,1.613,0,0,0,.344-.286.6.6,0,0,1-.44.043s.431-.1.485-.193.259-1.063.259-1.063S386.357,430.892,386.239,431.114Z" transform="translate(-382.959 -426.469)" fill="#e8871e"/>
        <path id="Path_440-6" data-name="Path 440" d="M393.434,431.03a7.07,7.07,0,0,0-.474,1.009.462.462,0,0,0,.453.138.7.7,0,0,1-.489.052.625.625,0,0,1-.5.286s.282-.153.315-.3a.6.6,0,0,1-.5.074s.571-.112.614-.286.179-.984.179-.984S393.512,430.844,393.434,431.03Z" transform="translate(-391.091 -426.404)" fill="#e8871e"/>
        <path id="Path_441-6" data-name="Path 441" d="M393.727,402.237s.594-.1.422-.329S393.831,401.976,393.727,402.237Z" transform="translate(-392.05 -401.599)" fill="#fded00"/>
        <path id="Path_442-6" data-name="Path 442" d="M396.186,400.946s-.39-.29-.268-.5.485-.243.476.1S396.222,400.9,396.186,400.946Z" transform="translate(-394.583 -400.286)" fill="#fded00"/>
        <path id="Path_443-6" data-name="Path 443" d="M380.392,406.02a2.291,2.291,0,0,1-.471-.307.806.806,0,0,1-.283-.686.977.977,0,0,0-1.212-1.136c-.854.129-1.141,1.2-.282,1.508a.341.341,0,0,1,.129.41c-.072.31-.74,1.088.01,1.652a1.957,1.957,0,0,0,1.822.549,1.5,1.5,0,0,0,1.156-.745c.158-.253.569-.383.43-.635a1.338,1.338,0,0,0-.5-.262C380.939,406.27,380.429,406.038,380.392,406.02Z" transform="translate(-377.203 -403.342)" fill="#fded00"/>
        <path id="Path_444-6" data-name="Path 444" d="M393.543,418.949s-.11-.235.4-.431a.87.87,0,0,0,.357-1.212,1.093,1.093,0,0,0-1.034-.425,1.335,1.335,0,0,0-.415.921A1.378,1.378,0,0,0,393.543,418.949Z" transform="translate(-392.138 -414.408)" fill="#f9ff63"/>
        <path id="Path_445-6" data-name="Path 445" d="M382.108,415.783s-.469.6-.225,1.061a.855.855,0,0,0,.964.453c.286-.057.382-.205.516-.148,0,0-.215-.4-.368-.687A1.937,1.937,0,0,0,382.108,415.783Z" transform="translate(-379.467 -413.488)" fill="#f9ff63"/>
        <path id="Path_446-6" data-name="Path 446" d="M382.82,417.309a1.529,1.529,0,0,0,.411.766.781.781,0,0,0,.672.2l.044.082c-.112-.048-.193.076-.434.125a.72.72,0,0,1-.811-.382A.847.847,0,0,1,382.82,417.309Z" transform="translate(-380.173 -414.788)" fill="#fded00"/>
        <path id="Path_447-6" data-name="Path 447" d="M403.526,410.022s-.074.356-.3.327-.294-.15-.5-.031c0,0-.036-.177.236-.193S403.447,409.962,403.526,410.022Z" transform="translate(-402.727 -408.568)" fill="#d05d02"/>
        <path id="Path_448-6" data-name="Path 448" d="M402.727,409.452s-.015-.471.626-.461c0,0,.149.041.171.165,0,0-.2.2-.368.164A.366.366,0,0,0,402.727,409.452Z" transform="translate(-402.725 -407.702)" fill="#e87812"/>
        <path id="Path_449-6" data-name="Path 449" d="M403.759,409.483a.029.029,0,1,0,.029-.034A.032.032,0,0,0,403.759,409.483Z" transform="translate(-403.17 -408.092)" fill="#3c3a32"/>
        <path id="Path_450-6" data-name="Path 450" d="M400.013,408.017a.123.123,0,1,0,.119-.152A.138.138,0,0,0,400.013,408.017Z" transform="translate(-399.051 -406.743)" fill="#3c3a32"/>
      </g>
    </g>
    <g id="Group_1040" data-name="Group 1040" transform="translate(-80 -161)">
      <g id="house_2_3" data-name="house (2)" transform="translate(923.068 4681.316)">
        <path id="Path_2807-3" data-name="Path 2807" d="M90.364,348.94v9.537h-4v-9.539" transform="translate(-78.657 -320.512)" fill="#c97523"/>
        <path id="Path_2808-3" data-name="Path 2808" d="M88.148,348.94v9.537H86.363v-9.539" transform="translate(-78.657 -320.512)" fill="#a85613"/>
        <ellipse id="Ellipse_200-3" data-name="Ellipse 200" cx="9.707" cy="15.26" rx="9.707" ry="15.26" transform="translate(0 0)" fill="#8cc928"/>
        <path id="Path_2809-3" data-name="Path 2809" d="M9.707,60.9C4.345,60.9,0,54.069,0,45.641s4.345-15.26,9.707-15.26c-2.374,0-4.3,6.833-4.3,15.26S7.333,60.9,9.707,60.9Z" transform="translate(0 -30.381)" fill="#82b20b"/>
        <path id="Path_2810-3" data-name="Path 2810" d="M208.53,136.982v19.429H183.04V136.982l12.817-12.433Z" transform="translate(-166.707 -116.146)" fill="#e9eaef"/>
        <path id="Path_2811-3" data-name="Path 2811" d="M398.8,150.375v-3.589h6.373v9.658" transform="translate(-363.216 -136.399)" fill="#9eb1b7"/>
        <path id="Path_2812-3" data-name="Path 2812" d="M398.8,150.375v-3.589h1.53v9.658" transform="translate(-363.216 -136.399)" fill="#879ba0"/>
        <g id="Group_1032-3" data-name="Group 1032" transform="translate(0 36.195)">
          <path id="Path_2813-3" data-name="Path 2813" d="M340.852,436h12.773a1.308,1.308,0,0,1,1.308,1.308v2.763H339.544V437.3A1.308,1.308,0,0,1,340.852,436Z" transform="translate(-309.246 -435.996)" fill="#85c10d"/>
          <path id="Path_2814-3" data-name="Path 2814" d="M1.308,436H16.123a1.308,1.308,0,0,1,1.308,1.308v2.763H0V437.3A1.308,1.308,0,0,1,1.308,436Z" transform="translate(0 -435.996)" fill="#85c10d"/>
        </g>
        <path id="Path_2815-3" data-name="Path 2815" d="M208.53,148.781v3.632l-12.745-12.169L183.04,152.412v-3.632l11.733-11.174,1.012-.94,1.011.94Z" transform="translate(-166.707 -127.182)" fill="#d2d4d8"/>
        <path id="Path_2816-3" data-name="Path 2816" d="M157.047,117.594l-14.511,13.854-2.029-1.7,15.528-14.789,1.012-.94,1.012.94,15.528,14.789-2.029,1.7Z" transform="translate(-127.969 -106.554)" fill="#ea4756"/>
        <rect id="Rectangle_2508-3" data-name="Rectangle 2508" width="8.406" height="14.557" transform="translate(19.451 25.709)" fill="#c97523"/>
        <path id="Path_2817-3" data-name="Path 2817" d="M220.825,326.868h-1.21V312.916h-7.2v13.952h-1.21V312.311a.6.6,0,0,1,.6-.6h8.406a.6.6,0,0,1,.6.6v14.557Z" transform="translate(-192.362 -286.602)" fill="#8e480e"/>
        <rect id="Rectangle_2509-3" data-name="Rectangle 2509" width="9.573" height="8.406" transform="translate(30.299 25.709)" fill="#a0d9f2"/>
        <rect id="Rectangle_2510-3" data-name="Rectangle 2510" width="9.573" height="2.554" transform="translate(30.299 25.709)" fill="#c97523"/>
        <g id="Group_1033-3" data-name="Group 1033" transform="translate(24.144 25.104)">
          <path id="Path_2818-3" data-name="Path 2818" d="M342.944,321.324h-9.573a.6.6,0,0,1-.6-.6v-8.406a.6.6,0,0,1,.6-.6h9.573a.6.6,0,0,1,.6.6v8.406A.6.6,0,0,1,342.944,321.324Zm-8.968-1.21h8.363v-7.2h-8.363Z" transform="translate(-327.216 -311.708)" fill="#8e480e"/>
          <path id="Path_2819-3" data-name="Path 2819" d="M272.4,393.962h-1.22a.6.6,0,0,1,0-1.21h1.22a.6.6,0,1,1,0,1.21Z" transform="translate(-270.571 -385.52)" fill="#8e480e"/>
        </g>
        <ellipse id="Ellipse_201-3" data-name="Ellipse 201" cx="2.338" cy="2.338" rx="2.338" ry="2.338" transform="translate(26.74 16.875)" fill="#413740"/>
        <rect id="Rectangle_2511-3" data-name="Rectangle 2511" width="9.573" height="1.21" transform="translate(30.299 27.658)" fill="#8e480e"/>
        <path id="Path_2820-3" data-name="Path 2820" d="M295.826,218.592a2.944,2.944,0,1,1,2.944-2.944A2.947,2.947,0,0,1,295.826,218.592Zm0-4.677a1.734,1.734,0,1,0,1.734,1.734A1.736,1.736,0,0,0,295.826,213.915Z" transform="translate(-266.747 -196.435)" fill="#ea4756"/>
        <g id="Group_1034-3" data-name="Group 1034" transform="translate(1.248 34.196)">
          <path id="Path_2821-3" data-name="Path 2821" d="M39.8,416.762a.7.7,0,0,1-.7-.7V414.3a.7.7,0,1,1,1.4,0v1.766A.7.7,0,0,1,39.8,416.762Z" transform="translate(-36.862 -413.601)" fill="#85c10d"/>
          <path id="Path_2822-3" data-name="Path 2822" d="M14.68,416.762a.7.7,0,0,1-.7-.7V414.3a.7.7,0,1,1,1.4,0v1.766A.7.7,0,0,1,14.68,416.762Z" transform="translate(-13.982 -413.601)" fill="#85c10d"/>
          <path id="Path_2823-3" data-name="Path 2823" d="M150,416.762a.7.7,0,0,1-.7-.7V414.3a.7.7,0,1,1,1.4,0v1.766A.7.7,0,0,1,150,416.762Z" transform="translate(-137.224 -413.601)" fill="#85c10d"/>
        </g>
      </g>
      <g id="Group_1035-3" data-name="Group 1035" transform="translate(926.1 4705.319)">
        <path id="Path_439-7" data-name="Path 439" d="M385.431,431.252A16.035,16.035,0,0,1,386.711,434a5.6,5.6,0,0,1-1.6.092,3.23,3.23,0,0,0,1.548.24,1.466,1.466,0,0,0,1.316.7,4.015,4.015,0,0,1-.854-.712,1.486,1.486,0,0,0,1.094.107s-1.072-.24-1.206-.48-.645-2.642-.645-2.642S385.136,430.7,385.431,431.252Z" transform="translate(-382.359 -419.71)" fill="#e8871e"/>
        <path id="Path_440-7" data-name="Path 440" d="M392.259,431.156a17.573,17.573,0,0,1,1.177,2.508,1.148,1.148,0,0,1-1.127.344,1.745,1.745,0,0,0,1.215.13,1.552,1.552,0,0,0,1.245.712s-.7-.38-.783-.742a1.5,1.5,0,0,0,1.245.184s-1.419-.279-1.527-.712-.445-2.445-.445-2.445S392.065,430.694,392.259,431.156Z" transform="translate(-386.86 -419.662)" fill="#e8871e"/>
        <path id="Path_441-7" data-name="Path 441" d="M394.855,402.846s-1.476-.258-1.05-.819S394.6,402.2,394.855,402.846Z" transform="translate(-387.802 -401.26)" fill="#fded00"/>
        <path id="Path_442-7" data-name="Path 442" d="M396.411,401.925s.969-.721.667-1.245-1.2-.605-1.183.258S396.322,401.8,396.411,401.925Z" transform="translate(-389.171 -400.286)" fill="#fded00"/>
        <path id="Path_443-7" data-name="Path 443" d="M380.922,409.208a5.7,5.7,0,0,0,1.169-.762,2,2,0,0,0,.7-1.7,2.427,2.427,0,0,1,3.012-2.822c2.123.32,2.834,2.988.7,3.747a.847.847,0,0,0-.32,1.02c.178.771,1.838,2.7-.024,4.1s-2.7,1.672-4.527,1.363a3.74,3.74,0,0,1-2.873-1.85c-.392-.629-1.414-.952-1.067-1.577a3.326,3.326,0,0,1,1.234-.652C379.563,409.828,380.83,409.251,380.922,409.208Z" transform="translate(-377.625 -402.553)" fill="#fded00"/>
        <path id="Path_444-7" data-name="Path 444" d="M394.976,422.046s.273-.584-.984-1.07a2.161,2.161,0,0,1-.886-3.012,2.716,2.716,0,0,1,2.57-1.056,3.318,3.318,0,0,1,1.032,2.289A3.425,3.425,0,0,1,394.976,422.046Z" transform="translate(-387.244 -410.763)" fill="#f9ff63"/>
        <path id="Path_445-7" data-name="Path 445" d="M384.93,415.783s1.164,1.486.56,2.636a2.125,2.125,0,0,1-2.4,1.127c-.712-.142-.949-.51-1.281-.368,0,0,.533-.988.913-1.708A4.814,4.814,0,0,1,384.93,415.783Z" transform="translate(-380.272 -410.08)" fill="#f9ff63"/>
        <path id="Path_446-7" data-name="Path 446" d="M385.441,417.309a3.8,3.8,0,0,1-1.021,1.9,1.942,1.942,0,0,1-1.669.492l-.109.2c.279-.12.479.19,1.078.31a1.789,1.789,0,0,0,2.016-.948A2.105,2.105,0,0,0,385.441,417.309Z" transform="translate(-380.796 -411.044)" fill="#fded00"/>
        <path id="Path_447-7" data-name="Path 447" d="M402.727,410.043s.184.884.741.812.73-.373,1.24-.077c0,0,.089-.439-.587-.481S402.923,409.895,402.727,410.043Z" transform="translate(-393.489 -406.43)" fill="#d05d02"/>
        <path id="Path_448-7" data-name="Path 448" d="M404.708,410.136s.037-1.171-1.555-1.145c0,0-.369.1-.426.409,0,0,.5.5.913.406A.91.91,0,0,1,404.708,410.136Z" transform="translate(-393.489 -405.787)" fill="#e87812"/>
        <path id="Path_449-7" data-name="Path 449" d="M403.9,409.534a.072.072,0,1,1-.071-.085A.079.079,0,0,1,403.9,409.534Z" transform="translate(-394.142 -406.077)" fill="#3c3a32"/>
        <path id="Path_450-7" data-name="Path 450" d="M400.606,408.241a.3.3,0,1,1-.3-.376A.344.344,0,0,1,400.606,408.241Z" transform="translate(-391.774 -405.076)" fill="#3c3a32"/>
      </g>
      <g id="Group_1036-3" data-name="Group 1036" transform="translate(956.708 4713.986)">
        <path id="Path_439-8" data-name="Path 439" d="M386.239,431.114a6.452,6.452,0,0,0-.515,1.107,2.253,2.253,0,0,0,.642.037,1.3,1.3,0,0,1-.623.1.59.59,0,0,1-.53.283,1.613,1.613,0,0,0,.344-.286.6.6,0,0,1-.44.043s.431-.1.485-.193.259-1.063.259-1.063S386.357,430.892,386.239,431.114Z" transform="translate(-382.959 -426.469)" fill="#e8871e"/>
        <path id="Path_440-8" data-name="Path 440" d="M393.434,431.03a7.07,7.07,0,0,0-.474,1.009.462.462,0,0,0,.453.138.7.7,0,0,1-.489.052.625.625,0,0,1-.5.286s.282-.153.315-.3a.6.6,0,0,1-.5.074s.571-.112.614-.286.179-.984.179-.984S393.512,430.844,393.434,431.03Z" transform="translate(-391.091 -426.404)" fill="#e8871e"/>
        <path id="Path_441-8" data-name="Path 441" d="M393.727,402.237s.594-.1.422-.329S393.831,401.976,393.727,402.237Z" transform="translate(-392.05 -401.599)" fill="#fded00"/>
        <path id="Path_442-8" data-name="Path 442" d="M396.186,400.946s-.39-.29-.268-.5.485-.243.476.1S396.222,400.9,396.186,400.946Z" transform="translate(-394.583 -400.286)" fill="#fded00"/>
        <path id="Path_443-8" data-name="Path 443" d="M380.392,406.02a2.291,2.291,0,0,1-.471-.307.806.806,0,0,1-.283-.686.977.977,0,0,0-1.212-1.136c-.854.129-1.141,1.2-.282,1.508a.341.341,0,0,1,.129.41c-.072.31-.74,1.088.01,1.652a1.957,1.957,0,0,0,1.822.549,1.5,1.5,0,0,0,1.156-.745c.158-.253.569-.383.43-.635a1.338,1.338,0,0,0-.5-.262C380.939,406.27,380.429,406.038,380.392,406.02Z" transform="translate(-377.203 -403.342)" fill="#fded00"/>
        <path id="Path_444-8" data-name="Path 444" d="M393.543,418.949s-.11-.235.4-.431a.87.87,0,0,0,.357-1.212,1.093,1.093,0,0,0-1.034-.425,1.335,1.335,0,0,0-.415.921A1.378,1.378,0,0,0,393.543,418.949Z" transform="translate(-392.138 -414.408)" fill="#f9ff63"/>
        <path id="Path_445-8" data-name="Path 445" d="M382.108,415.783s-.469.6-.225,1.061a.855.855,0,0,0,.964.453c.286-.057.382-.205.516-.148,0,0-.215-.4-.368-.687A1.937,1.937,0,0,0,382.108,415.783Z" transform="translate(-379.467 -413.488)" fill="#f9ff63"/>
        <path id="Path_446-8" data-name="Path 446" d="M382.82,417.309a1.529,1.529,0,0,0,.411.766.781.781,0,0,0,.672.2l.044.082c-.112-.048-.193.076-.434.125a.72.72,0,0,1-.811-.382A.847.847,0,0,1,382.82,417.309Z" transform="translate(-380.173 -414.788)" fill="#fded00"/>
        <path id="Path_447-8" data-name="Path 447" d="M403.526,410.022s-.074.356-.3.327-.294-.15-.5-.031c0,0-.036-.177.236-.193S403.447,409.962,403.526,410.022Z" transform="translate(-402.727 -408.568)" fill="#d05d02"/>
        <path id="Path_448-8" data-name="Path 448" d="M402.727,409.452s-.015-.471.626-.461c0,0,.149.041.171.165,0,0-.2.2-.368.164A.366.366,0,0,0,402.727,409.452Z" transform="translate(-402.725 -407.702)" fill="#e87812"/>
        <path id="Path_449-8" data-name="Path 449" d="M403.759,409.483a.029.029,0,1,0,.029-.034A.032.032,0,0,0,403.759,409.483Z" transform="translate(-403.17 -408.092)" fill="#3c3a32"/>
        <path id="Path_450-8" data-name="Path 450" d="M400.013,408.017a.123.123,0,1,0,.119-.152A.138.138,0,0,0,400.013,408.017Z" transform="translate(-399.051 -406.743)" fill="#3c3a32"/>
      </g>
      <g id="Group_1037-3" data-name="Group 1037" transform="translate(959.395 4713.986)">
        <path id="Path_439-9" data-name="Path 439" d="M386.239,431.114a6.452,6.452,0,0,0-.515,1.107,2.253,2.253,0,0,0,.642.037,1.3,1.3,0,0,1-.623.1.59.59,0,0,1-.53.283,1.613,1.613,0,0,0,.344-.286.6.6,0,0,1-.44.043s.431-.1.485-.193.259-1.063.259-1.063S386.357,430.892,386.239,431.114Z" transform="translate(-382.959 -426.469)" fill="#e8871e"/>
        <path id="Path_440-9" data-name="Path 440" d="M393.434,431.03a7.07,7.07,0,0,0-.474,1.009.462.462,0,0,0,.453.138.7.7,0,0,1-.489.052.625.625,0,0,1-.5.286s.282-.153.315-.3a.6.6,0,0,1-.5.074s.571-.112.614-.286.179-.984.179-.984S393.512,430.844,393.434,431.03Z" transform="translate(-391.091 -426.404)" fill="#e8871e"/>
        <path id="Path_441-9" data-name="Path 441" d="M393.727,402.237s.594-.1.422-.329S393.831,401.976,393.727,402.237Z" transform="translate(-392.05 -401.599)" fill="#fded00"/>
        <path id="Path_442-9" data-name="Path 442" d="M396.186,400.946s-.39-.29-.268-.5.485-.243.476.1S396.222,400.9,396.186,400.946Z" transform="translate(-394.583 -400.286)" fill="#fded00"/>
        <path id="Path_443-9" data-name="Path 443" d="M380.392,406.02a2.291,2.291,0,0,1-.471-.307.806.806,0,0,1-.283-.686.977.977,0,0,0-1.212-1.136c-.854.129-1.141,1.2-.282,1.508a.341.341,0,0,1,.129.41c-.072.31-.74,1.088.01,1.652a1.957,1.957,0,0,0,1.822.549,1.5,1.5,0,0,0,1.156-.745c.158-.253.569-.383.43-.635a1.338,1.338,0,0,0-.5-.262C380.939,406.27,380.429,406.038,380.392,406.02Z" transform="translate(-377.203 -403.342)" fill="#fded00"/>
        <path id="Path_444-9" data-name="Path 444" d="M393.543,418.949s-.11-.235.4-.431a.87.87,0,0,0,.357-1.212,1.093,1.093,0,0,0-1.034-.425,1.335,1.335,0,0,0-.415.921A1.378,1.378,0,0,0,393.543,418.949Z" transform="translate(-392.138 -414.408)" fill="#f9ff63"/>
        <path id="Path_445-9" data-name="Path 445" d="M382.108,415.783s-.469.6-.225,1.061a.855.855,0,0,0,.964.453c.286-.057.382-.205.516-.148,0,0-.215-.4-.368-.687A1.937,1.937,0,0,0,382.108,415.783Z" transform="translate(-379.467 -413.488)" fill="#f9ff63"/>
        <path id="Path_446-9" data-name="Path 446" d="M382.82,417.309a1.529,1.529,0,0,0,.411.766.781.781,0,0,0,.672.2l.044.082c-.112-.048-.193.076-.434.125a.72.72,0,0,1-.811-.382A.847.847,0,0,1,382.82,417.309Z" transform="translate(-380.173 -414.788)" fill="#fded00"/>
        <path id="Path_447-9" data-name="Path 447" d="M403.526,410.022s-.074.356-.3.327-.294-.15-.5-.031c0,0-.036-.177.236-.193S403.447,409.962,403.526,410.022Z" transform="translate(-402.727 -408.568)" fill="#d05d02"/>
        <path id="Path_448-9" data-name="Path 448" d="M402.727,409.452s-.015-.471.626-.461c0,0,.149.041.171.165,0,0-.2.2-.368.164A.366.366,0,0,0,402.727,409.452Z" transform="translate(-402.725 -407.702)" fill="#e87812"/>
        <path id="Path_449-9" data-name="Path 449" d="M403.759,409.483a.029.029,0,1,0,.029-.034A.032.032,0,0,0,403.759,409.483Z" transform="translate(-403.17 -408.092)" fill="#3c3a32"/>
        <path id="Path_450-9" data-name="Path 450" d="M400.013,408.017a.123.123,0,1,0,.119-.152A.138.138,0,0,0,400.013,408.017Z" transform="translate(-399.051 -406.743)" fill="#3c3a32"/>
      </g>
    </g>
  </g>
</svg>
