<svg xmlns="http://www.w3.org/2000/svg" xmlns:xlink="http://www.w3.org/1999/xlink" width="246.772" height="232.493" viewBox="0 0 246.772 232.493">
  <defs>
    <clipPath id="clip-path">
      <path id="Path_1397" data-name="Path 1397" d="M148.11,555.9s-.425-13.584-10.188-17.192.684,11.693,2.123,14.221c0,0-18.041-8.278-22.923-1.274s13.584,6.368,15.494,9.339c0,0-14.433,8.49-15.069,17.828s5.306,10.931,7.641,9.392,5.518-15.547,9.126-18.943c0,0-.424,21.437,6.155,23.347s-1.273-18.466,1.062-23.559S148.11,555.9,148.11,555.9Z" transform="translate(-116.303 -538.16)" fill="#fff200"/>
    </clipPath>
    <clipPath id="clip-path-2">
      <path id="Path_1407" data-name="Path 1407" d="M213.424,467.013s.637-6.155-2.122-8.914-5.094-3.4-7-1.7,1.89,6.579,1.89,6.579-6.882-4.245-9.464-.849c-2.165,2.848,3.376,4.881,3.376,4.881s-4.822,2.547-3.815,6.155,6.383,2.547,6.383,2.547S199.415,464.679,213.424,467.013Z" transform="translate(-196.146 -455.464)" fill="#fc4100"/>
    </clipPath>
    <clipPath id="clip-path-3">
      <path id="Path_1412" data-name="Path 1412" d="M251.309,497.266s1.571,7-.87,8.593-3.478,0-3.478,0-2.252,3.184-3.844,2.759.637-6.473.637-6.473S250.678,498,251.309,497.266Z" transform="translate(-242.543 -497.266)" fill="#fc4100"/>
    </clipPath>
    <clipPath id="clip-path-4">
      <path id="Path_1420" data-name="Path 1420" d="M194.812,584.771c-1.925-8.38-8.01-10.426-14.213-9.153s-20.93,12.522-21.525,15.282,8.743,0,8.743,0-4.952,3.537-4.917,5.907,10.435,1.309,10.435,1.309-1.7,2.334-.637,3.4S198.036,598.806,194.812,584.771Z" transform="translate(-159.046 -575.271)" fill="#fff200"/>
    </clipPath>
    <clipPath id="clip-path-5">
      <path id="Path_1424" data-name="Path 1424" d="M165.41,624.8s5.094-2.852,6.792-2.938,2.122,2.938,2.122,2.938,6.226-2.545,8.49-2.147,1.726,3.369,1.726,3.369,6.811-4.547,8.415-4.679,3.726,2.339,3.726,2.339,3.4-3.037,4.952-3.037,3.709,2.008,3.709,2.008,3.164-2.574,4.185-2.715,2.221,1.406,2.221,1.406,6.8-6.131,9.094-6.174-1.663,6.174-1.663,6.174,4.729-.22,6.114,1.31c.3.671-2.489,3.369-2.489,3.369a16.744,16.744,0,0,1,4.582.708c2.123.707-2.093,1.963-2.093,1.963s2.517,1.977,2.093,3.261-4.582,1.426-4.582,1.426,2.454,3.1,1.962,4.026-1.962,0-1.962,0a4.906,4.906,0,0,1-6.03,2.29s-.61,4.958-.942,5.263-5.992,1.109-7.123,0c0,0-2.912,4.267-3.366,4.126s-2.691-3.17-2.691-3.17-1.867,4.726-3.565,5.576-5.917-1.415-5.917-1.415-1.582,2.83-2.573,2.972-6.056-3.962-6.056-3.962-2.716,4.111-3.566,3.965-3.962-3.965-3.962-3.965-4.1,4.4-5.66,3.969-5.093-6.032-5.093-6.032-2.547,3.478-3.821,3.478-.849-3.478-.849-3.478-3.821,2.2-4.953,2.063-1.7-4.126-1.7-4.126-5.66,3.113-7.216,2.063-.708-3.335-.708-3.335l-3.962-1.818c-.707-.99,1.5-3.847,1.5-3.847s-4.614-3.007-4.755-3.9,3.538-2.173,3.538-2.173l-2.972-6.074c.715-.691,4.189.283,4.189.283s.6-3.982,2.805-4.821,3.335,2.7,3.335,2.7,3.325-3.134,4.988-3.477,1.946,2.775,1.946,2.775a18.072,18.072,0,0,1,4.632-1.476C164.278,621.633,165.41,624.8,165.41,624.8Z" transform="translate(-139.795 -615.167)" fill="#996b07"/>
    </clipPath>
  </defs>
  <g id="Group_814" data-name="Group 814" transform="translate(6.616 13.885)">
    <g id="seo_1_" data-name="seo (1)" transform="translate(0 0)">
      <path id="Path_1425" data-name="Path 1425" d="M75.731,0c41.825,0,120.614,33.906,120.614,75.731s-78.789,75.731-120.614,75.731A75.731,75.731,0,0,1,75.731,0Z" transform="matrix(0.848, -0.53, 0.53, 0.848, -6.617, 90.161)" fill="#ffaf10" opacity="0.077"/>
      <path id="Path_1393" data-name="Path 1393" d="M404.594,461.988a1.631,1.631,0,1,1,1.151-.477A1.637,1.637,0,0,1,404.594,461.988Z" transform="translate(-257.091 -298.423)" fill="#fff"/>
    </g>
    <g id="Group_813" data-name="Group 813" transform="translate(63.657 46.184)">
      <g id="Group_800" data-name="Group 800" transform="translate(0 39.23)">
        <g id="Group_799" data-name="Group 799">
          <path id="Path_1394" data-name="Path 1394" d="M148.11,555.9s-.425-13.584-10.188-17.192.684,11.693,2.123,14.221c0,0-18.041-8.278-22.923-1.274s13.584,6.368,15.494,9.339c0,0-14.433,8.49-15.069,17.828s5.306,10.931,7.641,9.392,5.518-15.547,9.126-18.943c0,0-.424,21.437,6.155,23.347s-1.273-18.466,1.062-23.559S148.11,555.9,148.11,555.9Z" transform="translate(-116.303 -538.16)" fill="#fff200"/>
          <g id="Group_798" data-name="Group 798" clip-path="url(#clip-path)">
            <path id="Path_1395" data-name="Path 1395" d="M116.122,566.607s-.607,1.254,1.409,2.558,12.021,7.441,21.9,1.764,7.272,15.551,8.339,17.449.949,16.6-4.269,17.078-13.447-9.843-12.3-13.876c0,0-4.956,18.315-10.71,15.537s-10.555-18.794.83-26.712C121.326,580.4,110.917,570.809,116.122,566.607Z" transform="translate(-115.303 -553.112)" fill="#efdd00"/>
            <path id="Path_1396" data-name="Path 1396" d="M133.88,586.294s-13.076,7.464-14.845,16.313,4.077,12.679,7.417,10.907" transform="translate(-117.568 -563.46)" fill="none" stroke="#fff200" stroke-miterlimit="10" stroke-width="2"/>
          </g>
        </g>
      </g>
      <g id="Group_801" data-name="Group 801" transform="translate(19.95 43.386)">
        <path id="Path_1398" data-name="Path 1398" d="M223.784,546.921s6.518,12.947,6.491,24.621-12.5,18.466-24.408,20.588-41.415,0-45.872-15.706,8.5-21.437,23.775-22.711S223.784,546.921,223.784,546.921Z" transform="translate(-158.75 -546.921)" fill="#fcd700"/>
        <path id="Path_1399" data-name="Path 1399" d="M169.335,567.572s-7.244,4.9-6.64,9.614c.94,7.333,4.71,11.592,20.975,13.78s42.057.667,45.409-16.361c0,0,4.822,15.8-9.671,23.46s-39.406,11.577-52.023.255S155.339,572.113,169.335,567.572Z" transform="translate(-158.358 -557.775)" fill="#e2bc00"/>
        <path id="Path_1400" data-name="Path 1400" d="M298.167,554.189s10.589,19.863,1.223,31.551" transform="translate(-231.843 -550.741)" fill="none" stroke="#ffff57" stroke-miterlimit="10" stroke-width="2"/>
      </g>
      <g id="Group_807" data-name="Group 807" transform="translate(37.876 0)">
        <path id="Path_1401" data-name="Path 1401" d="M203.038,552.079s-3.338,1.514-1.925,4.125,6.672,0,6.672,0-2.059,3.38,1.8,7.027,12.261-3.5,12.261-3.5-1.646,4.307,2.093,6.318,10.543-7.584,10.543-7.584.216,5.885,3.347,5.962,7.4-13.538,7.4-13.538l2.822-.361s-3.088-6.185-4.5-7.134S206.86,548.9,203.038,552.079Z" transform="translate(-198.574 -501.633)" fill="#e2bc00"/>
        <g id="Group_803" data-name="Group 803" transform="translate(0)">
          <path id="Path_1402" data-name="Path 1402" d="M213.424,467.013s.637-6.155-2.122-8.914-5.094-3.4-7-1.7,1.89,6.579,1.89,6.579-6.882-4.245-9.464-.849c-2.165,2.848,3.376,4.881,3.376,4.881s-4.822,2.547-3.815,6.155,6.383,2.547,6.383,2.547S199.415,464.679,213.424,467.013Z" transform="translate(-196.146 -455.464)" fill="#fc4100"/>
          <g id="Group_802" data-name="Group 802" clip-path="url(#clip-path-2)">
            <path id="Path_1403" data-name="Path 1403" d="M211.932,457.439s1.493,4.616,3.165,6.552a3.42,3.42,0,0,1-3.165-1.542C210.317,459.741,210.19,457.647,211.932,457.439Z" transform="translate(-203.782 -456.502)" fill="#e02f00"/>
            <path id="Path_1404" data-name="Path 1404" d="M192.443,469.519s1.042,6.122,10.4,3.531-4.651,15.133-10.4,12.26S186.351,470.24,192.443,469.519Z" transform="translate(-191.866 -462.852)" fill="#e02f00"/>
            <path id="Path_1405" data-name="Path 1405" d="M216.2,457.106c.827-1,3.069-.28,5.2,2.491s-.893,5.139-2.554,4.072S215.406,458.071,216.2,457.106Z" transform="translate(-206.585 -456.101)" fill="#ff8548"/>
            <path id="Path_1406" data-name="Path 1406" d="M200.3,469.351c-.33-1.688,4.422-1.215,7.232.7S200.93,472.553,200.3,469.351Z" transform="translate(-198.322 -462.219)" fill="#ff8548"/>
          </g>
        </g>
        <path id="Path_1408" data-name="Path 1408" d="M210.567,476.117c7.6-4.55,18.119-.213,29.233,14.857s11.539,23.135,6.657,21.862c0,0-1.7,9.763-5.306,9.975s-4.033-5.093-4.033-5.093-4.352,7.64-8.119,7.428-3.554-4.669-3.554-4.669-7.216,5.306-11.037,3.82-2.119-6.155-2.119-6.155-4.886,3.4-6.8-.424,2.227-4.457,2.175-12.735S198.872,483.121,210.567,476.117Z" transform="translate(-200.526 -465.417)" fill="#fff200"/>
        <path id="Path_1409" data-name="Path 1409" d="M232.644,474.4s9.343-.212,21.408,15.835c11.766,15.65,10.177,20.25,10.177,20.25" transform="translate(-215.33 -465.417)" fill="none" stroke="#fffc92" stroke-miterlimit="10" stroke-width="2"/>
        <g id="Group_806" data-name="Group 806" transform="translate(18.661 12.452)">
          <g id="Group_805" data-name="Group 805" transform="translate(3.349 7.379)">
            <path id="Path_1410" data-name="Path 1410" d="M251.309,497.266s1.571,7-.87,8.593-3.478,0-3.478,0-2.252,3.184-3.844,2.759.637-6.473.637-6.473S250.678,498,251.309,497.266Z" transform="translate(-242.543 -497.266)" fill="#fc4100"/>
            <g id="Group_804" data-name="Group 804" clip-path="url(#clip-path-3)">
              <path id="Path_1411" data-name="Path 1411" d="M247.333,503.608s-1.9,5.017,1.7,5.858-6.715,6.733-7.545,2.482S241.91,502.127,247.333,503.608Z" transform="translate(-241.867 -500.471)" fill="#e02f00"/>
            </g>
          </g>
          <path id="Path_1413" data-name="Path 1413" d="M251.822,485.054s-3.821-5.306-9.976-2.547-7.747,8.383-5.2,10.825,5.628,1.061,7.006,0,7-7.854,7-7.854A1.15,1.15,0,0,1,251.822,485.054Z" transform="translate(-235.483 -481.712)" fill="#ffc200"/>
          <path id="Path_1414" data-name="Path 1414" d="M251.493,485.11s-2.72-5.232-9.468-2.562a10.923,10.923,0,0,0-6.2,6.583s2.3.548,6.151-2.292C243.952,485.381,247.471,482.481,251.493,485.11Z" transform="translate(-235.662 -481.753)" fill="#ffd400"/>
          <path id="Path_1415" data-name="Path 1415" d="M239.278,494.611s2.984.209,6.369-2.688a15.409,15.409,0,0,1,7.662-3.133,20.845,20.845,0,0,0-7.345,3.911C244.544,493.93,241.931,495.46,239.278,494.611Z" transform="translate(-237.478 -485.432)" fill="#d39702"/>
        </g>
        <path id="Path_1416" data-name="Path 1416" d="M215.565,492.484a4.111,4.111,0,0,0,3.776-.108,2.417,2.417,0,0,0,1.212-2.724,2.388,2.388,0,0,1-.53,3.612C217.794,494.852,215.565,492.484,215.565,492.484Z" transform="translate(-206.353 -473.434)" fill="#352b02"/>
        <path id="Path_1417" data-name="Path 1417" d="M233.368,481.985a4.364,4.364,0,0,0,3.776-.108c1.668-.983.788-2.3.788-2.3a1.838,1.838,0,0,1-.106,3.187C235.6,484.353,233.368,481.985,233.368,481.985Z" transform="translate(-215.71 -468.139)" fill="#352b02"/>
      </g>
      <g id="Group_810" data-name="Group 810" transform="translate(20.277 56.835)">
        <g id="Group_809" data-name="Group 809" transform="translate(0 0)">
          <path id="Path_1418" data-name="Path 1418" d="M194.812,584.771c-1.925-8.38-8.01-10.426-14.213-9.153s-20.93,12.522-21.525,15.282,8.743,0,8.743,0-4.952,3.537-4.917,5.907,10.435,1.309,10.435,1.309-1.7,2.334-.637,3.4S198.036,598.806,194.812,584.771Z" transform="translate(-159.046 -575.271)" fill="#fff200"/>
          <g id="Group_808" data-name="Group 808" clip-path="url(#clip-path-4)">
            <path id="Path_1419" data-name="Path 1419" d="M167.168,600.962s11.306,1.183,17.235-.694,15.132-6.182,13.852-14.88,5.417,10.81,1.12,14.575-19.075,10.181-22.533,8.079S167.011,606.5,167.168,600.962Z" transform="translate(-163.314 -579.425)" fill="#ffce00"/>
          </g>
        </g>
        <path id="Path_1421" data-name="Path 1421" d="M197.489,586.369s6.227,9.009-3.132,15.565-16.54,5.953-17.388,5.411.637-3.4.637-3.4-8.692,1.3-10.435-1.309" transform="translate(-163.317 -581.104)" fill="none" stroke="#d3aa00" stroke-miterlimit="10" stroke-width="2"/>
      </g>
      <g id="Group_812" data-name="Group 812" transform="translate(11.144 75.761)">
        <path id="Path_1422" data-name="Path 1422" d="M165.41,624.8s5.094-2.852,6.792-2.938,2.122,2.938,2.122,2.938,6.226-2.545,8.49-2.147,1.726,3.369,1.726,3.369,6.811-4.547,8.415-4.679,3.726,2.339,3.726,2.339,3.4-3.037,4.952-3.037,3.709,2.008,3.709,2.008,3.164-2.574,4.185-2.715,2.221,1.406,2.221,1.406,6.8-6.131,9.094-6.174-1.663,6.174-1.663,6.174,4.729-.22,6.114,1.31c.3.671-2.489,3.369-2.489,3.369a16.744,16.744,0,0,1,4.582.708c2.123.707-2.093,1.963-2.093,1.963s2.517,1.977,2.093,3.261-4.582,1.426-4.582,1.426,2.454,3.1,1.962,4.026-1.962,0-1.962,0a4.906,4.906,0,0,1-6.03,2.29s-.61,4.958-.942,5.263-5.992,1.109-7.123,0c0,0-2.912,4.267-3.366,4.126s-2.691-3.17-2.691-3.17-1.867,4.726-3.565,5.576-5.917-1.415-5.917-1.415-1.582,2.83-2.573,2.972-6.056-3.962-6.056-3.962-2.716,4.111-3.566,3.965-3.962-3.965-3.962-3.965-4.1,4.4-5.66,3.969-5.093-6.032-5.093-6.032-2.547,3.478-3.821,3.478-.849-3.478-.849-3.478-3.821,2.2-4.953,2.063-1.7-4.126-1.7-4.126-5.66,3.113-7.216,2.063-.708-3.335-.708-3.335l-3.962-1.818c-.707-.99,1.5-3.847,1.5-3.847s-4.614-3.007-4.755-3.9,3.538-2.173,3.538-2.173l-2.972-6.074c.715-.691,4.189.283,4.189.283s.6-3.982,2.805-4.821,3.335,2.7,3.335,2.7,3.325-3.134,4.988-3.477,1.946,2.775,1.946,2.775a18.072,18.072,0,0,1,4.632-1.476C164.278,621.633,165.41,624.8,165.41,624.8Z" transform="translate(-139.795 -615.167)" fill="#996b07"/>
        <g id="Group_811" data-name="Group 811" transform="translate(0 0)" clip-path="url(#clip-path-5)">
          <path id="Path_1423" data-name="Path 1423" d="M134.454,646.427s6.6,3.575,8.8,2.785c0,0,.779,4.484,2.993,4.456s4.023-3.62,4.023-3.62,1.67,4.016,2.46,4.516,2.38-.9,2.38-.9,3.394,2.295,5.172,1.687a8.7,8.7,0,0,0,3.326-2.687s2.563,3.341,4.3,3.185,2.482-3.185,2.482-3.185,3.891,2.663,5.607,2.687,3.784-2.156,3.784-2.156a17.733,17.733,0,0,0,3.408,2.156c.849.183,2.746-2.687,2.746-2.687s3.954,2.345,5.218,1.9,4.517-4.675,4.517-4.675,3.015,3.387,4.23,2.779,2.669-4.087,2.669-4.087,4.3.949,6.088.158,1.491-3.795,1.491-3.795,4.2-.633,5.33-.949.963-4.38.963-4.38,6.121.134,7.389-.958,3.235,8.661-8.352,18.385-55.618,13.518-60.37,10.355-25.309-8.748-25.467-12.834S130.25,646.014,134.454,646.427Z" transform="translate(-134.45 -627.469)" fill="#6b4b03"/>
        </g>
      </g>
    </g>
  </g>
</svg>
