<svg id="Group_818" data-name="Group 818" xmlns="http://www.w3.org/2000/svg" width="269.831" height="246.871" viewBox="0 0 269.831 246.871">
  <path id="Path_1428" data-name="Path 1428" d="M84.138,0c46.468,0,134,37.67,134,84.138s-87.535,84.138-134,84.138A84.138,84.138,0,0,1,84.138,0Z" transform="matrix(0.899, -0.438, 0.438, 0.899, 0, 95.627)" fill="#fff9ec"/>
  <path id="Path_1430" data-name="Path 1430" d="M84.138,0c21.422,0,51.571,8.006,77.9,21.212,3.469,1.74,14.876,8.284,17.158,9.754,22.386,14.412,38.948,32.959,38.948,53.172,0,46.468-87.535,84.138-134,84.138A84.138,84.138,0,0,1,84.138,0Z" transform="matrix(0.961, 0.276, -0.276, 0.961, 51.795, 4.423)" fill="none" stroke="#ffaf10" stroke-width="2" stroke-dasharray="5"/>
  <g id="responsive" transform="translate(56.792 72.31)">
    <rect id="Rectangle_2388" data-name="Rectangle 2388" width="23.856" height="12.496" transform="translate(56.288 90.793)" fill="#445ea0"/>
    <rect id="Rectangle_2389" data-name="Rectangle 2389" width="6.014" height="12.496" transform="translate(56.288 90.793)" fill="#2e4c89"/>
    <path id="Path_1320" data-name="Path 1320" d="M181.377,398.763H124.005a1.551,1.551,0,0,0-1.546,1.546v7.75a1.551,1.551,0,0,0,1.546,1.546h57.372V398.763Z" transform="translate(-85.344 -295.776)" fill="#293d7c"/>
    <path id="Path_1321" data-name="Path 1321" d="M128.473,408.058v-7.75a1.551,1.551,0,0,1,1.546-1.546h-6.014a1.551,1.551,0,0,0-1.546,1.546v7.75a1.551,1.551,0,0,0,1.546,1.546h6.014A1.551,1.551,0,0,1,128.473,408.058Z" transform="translate(-85.344 -295.776)" fill="#1a2b63"/>
    <path id="Path_1322" data-name="Path 1322" d="M134.887,58.964H1.546A1.551,1.551,0,0,0,0,60.51v88a1.551,1.551,0,0,0,1.546,1.546H96.033v-46.3a2.124,2.124,0,0,1,2.122-2.122h38.279V60.51A1.551,1.551,0,0,0,134.887,58.964Z" transform="translate(0 -58.964)" fill="#293d7c"/>
    <path id="Path_1323" data-name="Path 1323" d="M22.4,169.468a.93.93,0,0,0,.928.927h88.318V138.63a2.124,2.124,0,0,1,2.122-2.122h31.491V109H22.4Z" transform="translate(-15.608 -93.834)" fill="#fff"/>
    <path id="Path_1324" data-name="Path 1324" d="M28.41,169.468V109H22.4v60.47a.93.93,0,0,0,.928.927h6.014A.93.93,0,0,1,28.41,169.468Z" transform="translate(-15.608 -93.834)" fill="#d9eafc"/>
    <ellipse id="Ellipse_149" data-name="Ellipse 149" cx="4.175" cy="4.175" rx="4.175" ry="4.175" transform="translate(64.043 79.626)" fill="#445ea0"/>
    <path id="Path_1325" data-name="Path 1325" d="M277.533,223.146H261.341a.912.912,0,0,0-.909.909v18.075a.912.912,0,0,0,.909.909h16.192Z" transform="translate(-181.5 -173.385)" fill="#c3ddf4"/>
    <path id="Path_1326" data-name="Path 1326" d="M266.446,242.131V224.055a.912.912,0,0,1,.909-.909h-6.014a.912.912,0,0,0-.909.909v18.075a.912.912,0,0,0,.909.909h6.014A.912.912,0,0,1,266.446,242.131Z" transform="translate(-181.5 -173.385)" fill="#aec1ed"/>
    <path id="Path_1327" data-name="Path 1327" d="M153.687,150.718h14.129V130.9a1.52,1.52,0,0,0-1.515-1.515H81.2a1.52,1.52,0,0,0-1.515,1.515v20.162a1.52,1.52,0,0,0,1.515,1.515h70.385A2.123,2.123,0,0,1,153.687,150.718Z" transform="translate(-55.532 -108.042)" fill="#c3ddf4"/>
    <path id="Path_1328" data-name="Path 1328" d="M85.7,151.063V130.9a1.52,1.52,0,0,1,1.515-1.515H81.2a1.52,1.52,0,0,0-1.515,1.515v20.163a1.52,1.52,0,0,0,1.515,1.515h6.014A1.52,1.52,0,0,1,85.7,151.063Z" transform="translate(-55.532 -108.042)" fill="#aec1ed"/>
    <path id="Path_1329" data-name="Path 1329" d="M144.326,84.983h-121a.93.93,0,0,0-.928.928v6.654H145.254V85.911A.931.931,0,0,0,144.326,84.983Z" transform="translate(-15.608 -77.097)" fill="#ffaf10"/>
    <path id="Path_1330" data-name="Path 1330" d="M29.338,84.983H23.324a.93.93,0,0,0-.928.928v6.654H28.41V85.911A.931.931,0,0,1,29.338,84.983Z" transform="translate(-15.608 -77.097)" fill="#ff9518"/>
    <g id="Group_786" data-name="Group 786" transform="translate(24.196 50.013)">
      <path id="Path_1331" data-name="Path 1331" d="M107.617,228.525H82.107a2.273,2.273,0,1,1,0-4.546h25.51a2.273,2.273,0,1,1,0,4.546Z" transform="translate(-79.834 -223.979)" fill="#5dc1d8"/>
      <path id="Path_1332" data-name="Path 1332" d="M107.617,253.012H82.107a2.273,2.273,0,1,1,0-4.546h25.51a2.273,2.273,0,1,1,0,4.546Z" transform="translate(-79.834 -241.044)" fill="#5dc1d8"/>
      <path id="Path_1333" data-name="Path 1333" d="M107.617,277.5H82.107a2.273,2.273,0,1,1,0-4.546h25.51a2.273,2.273,0,0,1,0,4.546Z" transform="translate(-79.834 -258.11)" fill="#5dc1d8"/>
      <path id="Path_1334" data-name="Path 1334" d="M202.138,228.525H189.007a2.273,2.273,0,1,1,0-4.546h13.131a2.273,2.273,0,0,1,0,4.546Z" transform="translate(-154.335 -223.979)" fill="#5dc1d8"/>
      <path id="Path_1335" data-name="Path 1335" d="M202.138,253.012H189.007a2.273,2.273,0,1,1,0-4.546h13.131a2.273,2.273,0,1,1,0,4.546Z" transform="translate(-154.335 -241.044)" fill="#5dc1d8"/>
      <path id="Path_1336" data-name="Path 1336" d="M202.138,277.5H189.007a2.273,2.273,0,0,1,0-4.546h13.131a2.273,2.273,0,0,1,0,4.546Z" transform="translate(-154.335 -258.11)" fill="#5dc1d8"/>
    </g>
    <path id="Path_1337" data-name="Path 1337" d="M372.879,198.768a2.432,2.432,0,0,1,2.425,2.425v73.276a2.432,2.432,0,0,1-2.425,2.425h-54.6a2.432,2.432,0,0,1-2.425-2.425V201.193a2.432,2.432,0,0,1,2.425-2.425Z" transform="translate(-220.126 -156.396)" fill="#445ea0"/>
    <path id="Path_1338" data-name="Path 1338" d="M334.082,278.114a1.52,1.52,0,0,1-1.515-1.516V215.7a1.52,1.52,0,0,1,1.515-1.515H380.37a1.52,1.52,0,0,1,1.515,1.515v60.9a1.52,1.52,0,0,1-1.515,1.516Z" transform="translate(-231.772 -167.137)" fill="#fff"/>
    <path id="Path_1339" data-name="Path 1339" d="M338.581,276.6V215.7a1.52,1.52,0,0,1,1.515-1.515h-6.014a1.52,1.52,0,0,0-1.515,1.515v60.9a1.52,1.52,0,0,0,1.515,1.516H340.1A1.52,1.52,0,0,1,338.581,276.6Z" transform="translate(-231.772 -167.137)" fill="#d9eafc"/>
    <path id="Path_1340" data-name="Path 1340" d="M401.082,436.8a1.52,1.52,0,0,1-1.515-1.515v-.59a1.52,1.52,0,0,1,1.515-1.516h5.675a1.52,1.52,0,0,1,1.515,1.516v.59a1.52,1.52,0,0,1-1.515,1.515Z" transform="translate(-278.466 -319.762)" fill="#445ea0"/>
    <path id="Path_1341" data-name="Path 1341" d="M381.885,220.027V215.7a1.52,1.52,0,0,0-1.515-1.515H334.082a1.52,1.52,0,0,0-1.515,1.515v4.332Z" transform="translate(-231.772 -167.137)" fill="#ffaf10"/>
    <path id="Path_1342" data-name="Path 1342" d="M340.1,214.18h-6.014a1.52,1.52,0,0,0-1.515,1.515v4.332h6.014V215.7A1.52,1.52,0,0,1,340.1,214.18Z" transform="translate(-231.772 -167.137)" fill="#ff9518"/>
    <g id="Group_787" data-name="Group 787" transform="translate(112.85 76.064)">
      <path id="Path_1343" data-name="Path 1343" d="M395.278,314.479H374.617a2.273,2.273,0,0,1,0-4.546h20.661a2.273,2.273,0,1,1,0,4.546Z" transform="translate(-372.344 -309.933)" fill="#5dc1d8"/>
      <path id="Path_1344" data-name="Path 1344" d="M395.278,337.606H374.617a2.273,2.273,0,0,1,0-4.546h20.661a2.273,2.273,0,1,1,0,4.546Z" transform="translate(-372.344 -326.051)" fill="#5dc1d8"/>
      <path id="Path_1345" data-name="Path 1345" d="M395.278,360.731H374.617a2.273,2.273,0,0,1,0-4.546h20.661a2.273,2.273,0,1,1,0,4.546Z" transform="translate(-372.344 -342.167)" fill="#5dc1d8"/>
    </g>
    <path id="Path_1346" data-name="Path 1346" d="M388,260.029a1.52,1.52,0,0,1-1.515,1.515H349.616a1.52,1.52,0,0,1-1.515-1.515v-12.5a1.52,1.52,0,0,1,1.515-1.515h36.871A1.52,1.52,0,0,1,388,247.528Z" transform="translate(-242.598 -189.322)" fill="#c3ddf4"/>
    <path id="Path_1347" data-name="Path 1347" d="M354.115,260.029v-12.5a1.52,1.52,0,0,1,1.515-1.515h-6.014a1.52,1.52,0,0,0-1.515,1.515v12.5a1.52,1.52,0,0,0,1.515,1.515h6.014A1.52,1.52,0,0,1,354.115,260.029Z" transform="translate(-242.598 -189.322)" fill="#aec1ed"/>
    <path id="Path_1348" data-name="Path 1348" d="M395.092,394.147a1.52,1.52,0,0,1-1.515,1.515H367.615a1.52,1.52,0,0,1-1.515-1.515v-5.125a1.52,1.52,0,0,1,1.515-1.515h25.961a1.52,1.52,0,0,1,1.515,1.515v5.125Z" transform="translate(-255.142 -287.931)" fill="#c3ddf4"/>
    <path id="Path_1349" data-name="Path 1349" d="M372.114,394.147v-5.125a1.52,1.52,0,0,1,1.515-1.515h-6.014a1.52,1.52,0,0,0-1.515,1.515v5.125a1.52,1.52,0,0,0,1.515,1.515h6.014A1.52,1.52,0,0,1,372.114,394.147Z" transform="translate(-255.142 -287.931)" fill="#aec1ed"/>
  </g>
</svg>
