<svg id="Group_831" data-name="Group 831" xmlns="http://www.w3.org/2000/svg" xmlns:xlink="http://www.w3.org/1999/xlink" width="149.319" height="168.484" viewBox="0 0 149.319 168.484">
  <defs>
    <linearGradient id="linear-gradient" x1="7.549" y1="-20.231" x2="8.127" y2="-21.23" gradientUnits="objectBoundingBox">
      <stop offset="0" stop-color="#fff"/>
      <stop offset="0.412" stop-color="#baada6"/>
    </linearGradient>
  </defs>
  <g id="Group_829" data-name="Group 829" transform="translate(117.714 75.441)">
    <path id="Path_1449" data-name="Path 1449" d="M174.866,306.525a1.477,1.477,0,0,1,.963,1.534c.026.825-.566,1.456-.952,2.663-.128.4-.552,2.6-.552,2.6s2.495.134,3.435.158a2.371,2.371,0,0,1,1.942.837c.376.493,0,1.285,0,1.285a2.181,2.181,0,0,1,.664,1.159,1.173,1.173,0,0,1-.426.956,1.4,1.4,0,0,1,.3,1.1,1.092,1.092,0,0,1-.766.752,1.126,1.126,0,0,1,.29,1.046c-.162.616-.9.976-2.813,1.319s-3.5-.283-5.439-.368c-.763-.033-6.322,2.074-6.322,2.074l-.6-6.69s4.878-1.314,5.912-2.629A54.708,54.708,0,0,0,174.866,306.525Z" transform="translate(-164.59 -306.525)" fill="#ffb680"/>
    <path id="Path_1456" data-name="Path 1456" d="M213.327,364.489s.1.687.15,1.021a5.054,5.054,0,0,0,.3.913,1.454,1.454,0,0,1-.575-.913A2.62,2.62,0,0,1,213.327,364.489Z" transform="translate(-204.228 -350.031)" fill="#ec8b56"/>
  </g>
  <g id="Group_828" data-name="Group 828" transform="translate(0 0)">
    <g id="Group_460" data-name="Group 460" transform="translate(20.006 0)">
      <g id="Group_174" data-name="Group 174" transform="translate(0)">
        <path id="Path_146" data-name="Path 146" d="M59.88,89.165c2.708,6.028,10.847,19.287,10.546,20.485s9.037,14.774,12.658,9.95c2.206-2.945,7.907-8.5,3.61-17.477-2.877-6.038-17.778-34.051-21.689-33.75C61.078,68.68,59.88,89.165,59.88,89.165Z" transform="translate(3.429 -11.763)" fill="#d4dee8"/>
        <path id="Path_148" data-name="Path 148" d="M66.344,78.314c-8.007.544-20.3-3.294-16.505-8.229,2.423-3.156,15.318-4.3,27.273-5.68C88.661,63.081,99.239,58.24,101.372,62c2.929,3.077-7.342,11.839-12.531,12.6S66.344,78.314,66.344,78.314Z" transform="translate(-42.565 -45.028)" fill="#3e3e3e"/>
        <path id="Path_149" data-name="Path 149" d="M50.93,72.718c3.494-3.837,6.392-6.308,9.052-6.429s25.1-1.869,26.656,2.739-5.326,13.808-5.326,13.808Z" transform="translate(-34.862 -22.499)" fill="#d4dee8"/>
        <g id="Group_137" data-name="Group 137" transform="translate(15.545 34.59)">
          <path id="Path_150" data-name="Path 150" d="M50.958,84.886s5.87-3.5,7.464-5.263c1.145-2.9,2.787-10.14,2.6-14.521l5.416-.9V64.2l.042.011.048-.011-.011.011,13.645,1.256C80.274,78.916,84.7,82.885,84.7,82.885l-1.214,24.27Z" transform="translate(-50.288 -64.2)" fill="#d3a594"/>
          <g id="Group_136" data-name="Group 136" transform="translate(0 0.945)">
            <path id="Path_151" data-name="Path 151" d="M80.738,66.849c.464,3.257-.38,8.477,4.708,13.555-1.689,2.666-15.561,17.751-18.965,17.83-2.8.058-13.8-11.618-15.65-13.47,7.886-.686,7.247-5.711,8.667-7.115a57.12,57.12,0,0,0,1.547-13.27Z" transform="translate(-50.831 -64.379)" fill="url(#linear-gradient)"/>
          </g>
        </g>
        <g id="Group_141" data-name="Group 141" transform="translate(17.725 4.664)">
          <g id="Group_139" data-name="Group 139" transform="translate(1.727 5.912)">
            <g id="Group_138" data-name="Group 138">
              <path id="Path_152" data-name="Path 152" d="M53.824,79.073c1.3,5.247,3.542,12.145,6.783,14.658,1.932,1.51,7.11,2.745,8.672,2.65,3.373-.206,7.147-3.985,9.089-5.975,1.631-1.679.628-7.347.9-13.808.375-9.132-2.1-18.876-15.181-16.616C47.068,62.921,51.608,70.279,53.824,79.073Z" transform="translate(-51.571 -59.65)" fill="#e6c38b"/>
            </g>
          </g>
          <path id="Path_153" data-name="Path 153" d="M55.005,62.635c-1.425.09-3.853,1.383-3.631,3.31.237,1.932,4.455,7.411,5.917,7S55.005,62.635,55.005,62.635Z" transform="translate(-50.751 -40.97)" fill="#e6c38b"/>
          <path id="Path_154" data-name="Path 154" d="M56.9,62.489c1.869-1.246,3.236.248,2.613,3.125-.607,2.834-1.884,6.978-2.565,6.234S56.9,62.489,56.9,62.489Z" transform="translate(-28.191 -43.489)" fill="#e6c38b"/>
          <g id="Group_140" data-name="Group 140">
            <path id="Path_155" data-name="Path 155" d="M58.087,67.715C64.8,62.828,69.15,71.79,68.86,77.8c1.3-1.393,2.064-1.14,2.064-1.14s.823-1.942-.2-6.572c-.7-3.209-8.181-15.3-14.51-10.15S58.087,67.715,58.087,67.715Z" transform="translate(-40.214 -57.884)" fill="#1f1f1f"/>
            <path id="Path_156" data-name="Path 156" d="M71.582,67.037c-1.3,2.1-7.77,4.5-10.245,3.357-4.165-1.937-5.848,3.32-5.906,4.761-.074,1.436,1.51,7.026,1.51,7.026L54.649,81.2s-.137-.179-1.531.327c-.491.18-1.874-4.682-1.874-7.854,0-7.274,9.675-16.358,14.4-15.006,3.478,1,6.308.464,7.1,3.864S71.582,67.037,71.582,67.037Z" transform="translate(-51.244 -58.53)" fill="#1f1f1f"/>
            <path id="Path_157" data-name="Path 157" d="M64.484,67.357c-4.254,1.161-2.043-.765-7.685-.533-3.4.143-4.65,3.621-4.65,3.621s2.127-6.207,7.02-4.9,5.416-.486,5.416-.486-8.889-1.99-11.4,2.1a7.041,7.041,0,0,1,8.952-4.444c.808-.232-4.133-1.409-4.782-.823.808-1.884,7.432-4.7,10.3-1.731,2.882,2.972,1.515,3.848.5,4.766A29.618,29.618,0,0,1,64.484,67.357Z" transform="translate(-47.376 -57.13)" fill="#ccd4dd"/>
          </g>
        </g>
        <path id="Path_162" data-name="Path 162" d="M100.086,70.835c-6.63-2.713-11.079-4.3-11.079-4.3s1.927,3.23-3.732,6.519a12.649,12.649,0,0,1-3.61,1.167c-16.553,1.821-15.481-7.765-15.481-7.765s-3.014,2.375-14.23,5.532c-4.5,1.277-1.779,5.748-1.795,10.794-.011,3.869,2.708,15.6,4.054,19.773,1.314,4.18.8,23.22.818,30.873,0,4.281,46.756-4.334,46.788-5.426C102.277,107.414,105.76,73.152,100.086,70.835Z" transform="translate(-41.596 -19.945)" fill="#101056"/>
        <path id="Path_163" data-name="Path 163" d="M66.689,66.59c1.747,5.183-3.12,14.975-6.477,24.434-3.273,9.264-5.426,18.5-4.154,23.42,2.692,10.335,16.732,21.573,17.266,24.708,5.537.523,2.454-23.832,3.341-29.775.908-5.933,9.037-33.819,5.711-35.291C77,71.71,66.689,66.59,66.689,66.59Z" transform="translate(-14.507 -19.385)" fill="#d4dee8"/>
        <path id="Path_164" data-name="Path 164" d="M91.647,160.3c3.917-1.689,1.082-41.05-.348-54-2.37-21.457-24.972-27.7-22.9-39.82C57.543,70.3,50.322,70.841,48,74.953c1.573,8.192,5.442,22.338,3.99,25.167,1.124,7.031,5.115,17,3.848,23.346-1.283,6.36-3.4,30.3,2.059,33.512C60.2,158.045,85.4,162.98,91.647,160.3Z" transform="translate(-47.376 -19.851)" fill="#d4dee8"/>
        <g id="Group_144" data-name="Group 144" transform="translate(7.717)">
          <path id="Path_165" data-name="Path 165" d="M50.846,79.379c.607-8.435,2.132-11.2,2.576-15.181.528-4.766,18.48-9.327,22.47-4.481,3.32,4.022,6.973,8.43,8.773,12.658C86.47,76.586,50.846,79.379,50.846,79.379Z" transform="translate(-42.939 -57.647)" fill="#ffbe0b"/>
          <path id="Path_166" data-name="Path 166" d="M49.348,70.634C53.877,68.375,60.8,68.808,76.2,66.517,89.759,64.5,90.736,61.339,99.007,62.1c1.6.148-9.717-1.789-9.717-1.789L58.4,66.127Z" transform="translate(-49.348 -46.253)" fill="gray"/>
          <path id="Path_167" data-name="Path 167" d="M70.832,63.1a189.476,189.476,0,0,0-19.889,5.183l-.069-1.071s16.622-8.931,32.172-7c1.346,1.357,1.346,1.884,1.346,1.884A73.9,73.9,0,0,0,70.832,63.1Z" transform="translate(-42.819 -47.827)" fill="#d99c11"/>
        </g>
        <path id="Path_168" data-name="Path 168" d="M49.518,68.065c5.426,8.15,7.643,23.441,4.935,36.078-1.357,6.329,7.574,3.172,7.574,3.172s-1.019-26.6-7.01-40.158C54.585,66.181,49.518,68.065,49.518,68.065Z" transform="translate(-40.903 -18.158)" fill="#101056"/>
        <path id="Path_169" data-name="Path 169" d="M82.486,113.775C83.442,84,58.971,79.413,60.565,69.115a10.046,10.046,0,0,1,1.4-3.072,11.546,11.546,0,0,0-4.413,2.191c-2.829,2.222-6.038,5.917-7.511,6.176,1.747,1.584,5.753.686,14.753,7.838C87.173,100.052,82.486,113.775,82.486,113.775Z" transform="translate(-38.67 -21.725)" fill="#fff"/>
        <path id="Path_170" data-name="Path 170" d="M58.053,66.752c.67,2.708,8.366,11.75,3.389,35.476,2.708.913,7.231-.216,7.231-.216S66.71,70.067,63.553,68.7A41.859,41.859,0,0,0,58.053,66.752Z" transform="translate(-4.387 -18.692)" fill="#1335a3"/>
        <path id="Path_171" data-name="Path 171" d="M56.633,107.639c-4.349-18.8,10.868-23.22,7.807-41.414,0,0,12.821,6.012,14.151,5.954,0,0-7.928,1.172-11.074,6.366-6.044,9.992-10.7,25.743-10.7,25.743Z" transform="translate(-13.835 -20.946)" fill="#d4dee8"/>
        <path id="Subtraction_1" data-name="Subtraction 1" d="M71.157,90.175H2.429C.885,76.494,0,67.571,0,65.694c0-2.464.631-7.873,1.3-13.6.8-6.877,1.713-14.671,1.713-18.945a100.938,100.938,0,0,0,4.07-11.6C8.8,15.5,10.591,6.852,9.348,0,12.922,1.856,19.44,2.8,28.722,2.8A267.856,267.856,0,0,0,61.746.195l3.161,55.7c0,6.864,3.175,20.789,6.246,34.256l0,.018v0h0Z" transform="translate(3.337 75.893)" fill="#101056" stroke="rgba(0,0,0,0)" stroke-width="1"/>
        <path id="Path_173" data-name="Path 173" d="M61.211,68.211s-.269-.769,3.278,1.434,12.205,19.7,13.6,22.506c1.4,2.837,3,6.086,3,6.086l-5.586-.621,2.95-1.507-4.252.769a5.873,5.873,0,0,1,1.3-2.359c1.152-1.5-4.125-6.611-6.665-12.254-2.477-5.491-6.21-9.439-8.281-10.438Z" transform="translate(6.36 -13.005)" fill="#f4f4f4"/>
        <path id="Path_147" data-name="Path 147" d="M28.969,10.595c0,1.552-2.1,4.576-5.338,7.458-5.051,4.492-12.578,9.019-14.138,9.419a10.631,10.631,0,0,1-1.458.5c-2.767.319-8.516,1.287-8-4.7C.555,17.043,8.53,2.116,13.158.2S28.969,10.595,28.969,10.595Z" transform="matrix(-0.94, -0.342, 0.342, -0.94, 98.303, 114.731)" fill="#d4dee8"/>
        <g id="Group_164" data-name="Group 164" transform="translate(0 123.019)">
          <path id="Path_266" data-name="Path 266" d="M48,92.772c-.533,6.909,2.222,25.468,5.194,26.234s12.562-8.952,14.2-16.722c1.631-7.754-3.69-20.723-3.69-20.723Z" transform="translate(-47.666 -78.352)" fill="#101056"/>
          <path id="Path_267" data-name="Path 267" d="M63.125,80.953C59.119,87.968,51.893,92.4,49.449,92.877s-1.3,5.131-1.3,5.131,14.188-10.419,15.5-12.161S63.125,80.953,63.125,80.953Z" transform="translate(-47.886 -80.953)" fill="#1335a3"/>
        </g>
        <g id="Group_165" data-name="Group 165" transform="translate(60.859 125.763)">
          <path id="Path_268" data-name="Path 268" d="M72.475,90.959c1.742,6.656.232,9.981.232,22.945-6.93-7.532-9.8-2.011-12.05-9.644-2.09-7.115-.908-22.3-.908-22.3Z" transform="translate(-59.416 -79.394)" fill="#101056"/>
          <path id="Path_269" data-name="Path 269" d="M59.43,81.473c3.589,5.162,10.742,9.322,11.649,9.459C72.943,91.217,73,95.561,73,95.561A101.914,101.914,0,0,1,60.333,85.543C59.267,84.329,59.43,81.473,59.43,81.473Z" transform="translate(-59.393 -81.473)" fill="#1335a3"/>
        </g>
      </g>
    </g>
    <path id="Path_1446" data-name="Path 1446" d="M0,0V106.969" transform="translate(128.604 60.514)" fill="none" stroke="#434343" stroke-linecap="square" stroke-width="2"/>
    <path id="Path_1441" data-name="Path 1441" d="M3872.913-2880.138s11.27,25.272,3.039,33.7-27.381,8.678-35.965,0,1.629-34.714,1.629-34.714l1.5,10.625,2.553,20.775H3870.1Z" transform="translate(-3729.641 2906.287)" fill="#452a0f"/>
    <path id="Path_1442" data-name="Path 1442" d="M3844.881-2855.024v-27.52l1.108,27.52Z" transform="translate(-3725.691 2912.198)" fill="#452a0f"/>
    <path id="Path_1443" data-name="Path 1443" d="M3844.881-2855.024v-27.52l1.108,27.52Z" transform="translate(-3720.665 2912.198)" fill="#452a0f"/>
    <path id="Path_1444" data-name="Path 1444" d="M3844.881-2855.024v-27.52l1.108,27.52Z" transform="translate(-3713.963 2912.198)" fill="#452a0f"/>
    <path id="Path_1445" data-name="Path 1445" d="M3844.881-2855.024v-27.52l1.108,27.52Z" transform="translate(-3708.937 2912.198)" fill="#452a0f"/>
    <rect id="Rectangle_2408" data-name="Rectangle 2408" width="10.053" height="13.404" transform="translate(122.74 59.677)" fill="#221303"/>
    <path id="Path_1447" data-name="Path 1447" d="M3777.863-2879.286,3757-2819.98s9.535,8.56,17.711-.93,5.459-22.12,12.686-28.322c-.327.235-8.528-30.054-8.528-30.054" transform="translate(-3756.567 2933.456)" fill="#d4dee8"/>
    <path id="Path_1448" data-name="Path 1448" d="M14.453,2.621C21.119,6.979,26.838,23.06,26.838,23.06s-6.119,5.079-6.192,4.525S1.722,11.87.173,5.629,7.786-1.736,14.453,2.621Z" transform="translate(0 110.448) rotate(-9)" fill="#d4dee8"/>
  </g>
  <path id="Path_1463" data-name="Path 1463" d="M3832.968-2862.139l-2.411.576s-.489.583-.437,1,.644.659.644.659l3.709-.659" transform="translate(-3702.154 2945.039)" fill="#ffb680"/>
  <path id="Path_1464" data-name="Path 1464" d="M3832.968-2862.139l-2.411.576s-.489.583-.437,1,.644.659.644.659h3.737" transform="translate(-3702.154 2946.715)" fill="#ffb680"/>
  <path id="Path_1465" data-name="Path 1465" d="M3832.968-2862.139l-2.411.576s-.489.583-.437,1,.644.659.644.659l1.248.329,2.489-.329" transform="translate(-3702.154 2948.39)" fill="#ffb680"/>
  <path id="Path_1466" data-name="Path 1466" d="M3832.244-2862.139l-1.8.519a1.761,1.761,0,0,0-.326.9c.038.373.481.594.481.594l.931.3,1.857-.3" transform="translate(-3701.042 2950.066)" fill="#ffb680"/>
  <path id="Path_1458" data-name="Path 1458" d="M172.577,341.665c.1-.581.583-.84,1.084-1.025a5.265,5.265,0,0,1,2.076-.275,8.024,8.024,0,0,0-1.834.459c-.5.25-1.176.626-.859,1.167.076.13.227.328.389.357a10.533,10.533,0,0,0,2.029-.142,13.546,13.546,0,0,1,2.173-.216,19.039,19.039,0,0,1-2.611.475,11.468,11.468,0,0,0-1.151.264c-.2.062-.7.271-.8.638a.709.709,0,0,0,.767.825,26.507,26.507,0,0,1,3.791-.116,15.935,15.935,0,0,1-1.877.274c-.356.037-.712.07-1.068.109a2.77,2.77,0,0,0-1.389.366.615.615,0,0,0,.3,1.092c.569.148,3.077-.084,3.778.067-.676.051-1.352.081-2.023.172a4.179,4.179,0,0,0-1.046.258c-.408.17-.447.476-.375.6.082.145.225.409,1.469.533a10.217,10.217,0,0,1,1.638.151,7.711,7.711,0,0,1-2.617-.047c-.249-.036-1.358-.378-.881-1.3a1.114,1.114,0,0,1-.321-2.02,1.055,1.055,0,0,1-.339-1.715A1.019,1.019,0,0,1,172.577,341.665Z" transform="translate(-44.763 -257.449)" fill="#ec8b56"/>
  <path id="Path_1459" data-name="Path 1459" d="M188.182,343.594l.25,1.063s-.9.261-1.051-.288S188.182,343.594,188.182,343.594Z" transform="translate(-58.825 -259.978)" fill="#ffd6bb"/>
  <path id="Path_1460" data-name="Path 1460" d="M187.915,351.847l.183,1.076s-.919.2-1.031-.353S187.915,351.847,187.915,351.847Z" transform="translate(-58.423 -266.411)" fill="#ffd6bb"/>
  <path id="Path_1461" data-name="Path 1461" d="M188.3,360.377l.167.984s-.919.2-1.031-.353S188.3,360.377,188.3,360.377Z" transform="translate(-58.871 -273.06)" fill="#ffd6bb"/>
  <path id="Path_1462" data-name="Path 1462" d="M185.287,368l.106.858s-.8.141-.877-.346S185.287,368,185.287,368Z" transform="translate(-55.156 -278.999)" fill="#ffd6bb"/>
</svg>
