<svg id="Group_817" data-name="Group 817" xmlns="http://www.w3.org/2000/svg" width="253.628" height="245.716" viewBox="0 0 253.628 245.716">
  <path id="Path_1426" data-name="Path 1426" d="M77.459,0c42.779,0,123.366,34.679,123.366,77.459s-80.587,77.459-123.366,77.459A77.459,77.459,0,0,1,77.459,0Z" transform="matrix(0.788, -0.616, 0.616, 0.788, 0, 123.64)" fill="#fff9ec"/>
  <g id="Group_815" data-name="Group 815" transform="translate(11.643 20.375)">
    <path id="Path_1431" data-name="Path 1431" d="M77.459,0c19.721,0,47.477,7.37,71.713,19.529,3.194,1.6,13.695,7.627,15.8,8.979,20.609,13.268,35.857,30.343,35.857,48.951,0,42.779-80.587,77.459-123.366,77.459A77.459,77.459,0,0,1,77.459,0Z" transform="matrix(0.961, 0.276, -0.276, 0.961, 42.701, 0)" fill="none" stroke="#ffaf10" stroke-width="2" stroke-dasharray="5"/>
    <g id="organizer" transform="translate(51.977 39.393)">
      <path id="Path_1254" data-name="Path 1254" d="M13.8,248.348v7.995a6.779,6.779,0,0,1,4.457-1.67c.048,0,.094.006.143.007v-2.13a22.715,22.715,0,0,1,.394-4.2Zm0,0" transform="translate(-10.25 -184.518)" fill="#242424"/>
      <path id="Path_1255" data-name="Path 1255" d="M78.752,391.1a2.355,2.355,0,0,0,.149.459c.008.019.016.039.025.057.028.06.06.12.093.177s.069.109.107.162c.02.029.038.059.06.087l1.467,1.866a10.423,10.423,0,0,0,5.782,3.74c.308.072.628.135.958.185a10.458,10.458,0,0,0,9.767-4.016l2.139-2.759a2.341,2.341,0,0,0,.049-.451v-6.368h0v-.071a22.288,22.288,0,0,1-20.656,0v6.456a2.342,2.342,0,0,0,.056.482Zm0,0" transform="translate(-58.463 -285.422)" fill="#f9cfcf"/>
      <path id="Path_1256" data-name="Path 1256" d="M70.76,424.768c0-.086-.011-.172-.016-.257-.011-.167-.022-.332-.037-.5-.01-.1-.022-.206-.033-.307-.016-.146-.034-.291-.054-.436-.015-.11-.031-.22-.049-.329-.021-.134-.044-.266-.069-.4-.021-.115-.043-.231-.066-.345s-.054-.241-.081-.363-.056-.244-.087-.365c-.026-.1-.054-.2-.081-.293a16.017,16.017,0,0,0-.519-1.558c-.017-.043-.032-.086-.049-.128-.067-.169-.139-.334-.212-.5-.02-.046-.039-.093-.06-.14-.076-.168-.156-.334-.236-.5-.018-.037-.037-.074-.055-.11q-.131-.262-.272-.518c-.008-.015-.016-.03-.025-.045a16.27,16.27,0,0,0-13.581-8.406l-.071.09-10.5,6.949h-.012l.006,0-10.564-6.993a16.258,16.258,0,0,0-11.374,6.184h0c-.01.012-.019.026-.029.039-.088.114-.174.229-.259.345-.053.071-.105.143-.157.216-.081.113-.16.228-.238.343-.052.078-.1.156-.156.235-.074.113-.147.23-.218.345-.051.083-.1.168-.151.251-.068.115-.136.232-.2.348-.05.088-.1.178-.145.267-.061.116-.124.233-.184.35-.047.094-.091.191-.138.286-.055.115-.111.23-.164.346s-.1.231-.148.345q-.116.277-.222.557c-.048.129-.1.256-.144.386-.035.1-.067.206-.1.309-.041.126-.082.25-.12.377-.031.1-.059.21-.088.315-.036.127-.071.255-.1.384-.026.105-.051.212-.075.318-.03.132-.059.263-.086.4-.022.1-.042.211-.061.316-.025.138-.048.275-.07.413-.015.1-.032.207-.046.31-.02.147-.037.293-.052.441-.011.1-.022.195-.032.292-.015.165-.025.33-.035.5-.005.082-.012.166-.016.249-.011.249-.018.5-.018.751v3.257H70.779v-3.257C70.779,425.277,70.772,425.022,70.76,424.768Zm0,0" transform="translate(-14.267 -304.077)"/>
      <path id="Path_1257" data-name="Path 1257" d="M153.337,424.768c0-.086-.011-.172-.016-.257-.011-.167-.022-.332-.037-.5-.01-.1-.022-.206-.033-.307-.016-.146-.034-.291-.054-.436-.015-.11-.031-.22-.049-.329-.021-.134-.044-.266-.069-.4-.021-.115-.043-.231-.066-.345s-.054-.241-.081-.363-.056-.244-.087-.365c-.026-.1-.054-.2-.081-.293a16.009,16.009,0,0,0-.519-1.558c-.017-.043-.032-.086-.049-.128-.067-.169-.139-.334-.212-.5-.02-.046-.039-.093-.06-.14-.076-.168-.156-.334-.236-.5-.018-.037-.037-.074-.055-.11q-.131-.262-.272-.518c-.008-.015-.016-.03-.025-.045a16.27,16.27,0,0,0-13.581-8.406l-.04.05h.03l-7.39,19.469h23v-3.257C153.356,425.277,153.349,425.022,153.337,424.768Zm0,0" transform="translate(-96.844 -304.077)" fill="#f59b2d"/>
      <path id="Path_1258" data-name="Path 1258" d="M34.036,409.465a16.255,16.255,0,0,0-11.374,6.183h0l-.029.04c-.088.112-.174.228-.259.344-.053.071-.105.143-.157.215-.081.113-.16.228-.238.344-.052.077-.1.156-.156.234-.074.114-.147.23-.218.346-.051.083-.1.167-.151.251-.068.116-.136.231-.2.348-.05.088-.1.178-.145.267-.061.117-.124.232-.184.35-.047.094-.091.191-.138.286-.055.115-.111.23-.164.346s-.1.23-.148.345q-.116.276-.222.557c-.048.128-.1.255-.144.385-.035.1-.067.207-.1.31-.041.124-.082.249-.12.375-.031.1-.059.21-.088.315-.036.128-.071.255-.1.384-.026.105-.051.212-.075.318-.03.132-.059.263-.086.4-.022.105-.042.211-.061.316-.025.138-.048.275-.07.414-.015.1-.032.206-.046.31-.02.146-.037.293-.052.44-.011.1-.022.2-.032.293-.015.164-.025.329-.035.494-.005.083-.012.166-.016.249-.011.249-.018.5-.018.752v3.257H41.425l-7.137-18.805A2.384,2.384,0,0,1,34.036,409.465Zm0,0" transform="translate(-14.267 -304.219)" fill="#f59b2d"/>
      <path id="Path_1259" data-name="Path 1259" d="M109.126,460.879h-4.819l-1.5,4.33.73,1.922h6.35l.729-1.922Zm0,0" transform="translate(-76.384 -342.417)" fill="#5c2a3f"/>
      <path id="Path_1260" data-name="Path 1260" d="M76.906,409.465l10.564,6.993-5.777,5.621Zm0,0" transform="translate(-57.137 -304.219)" fill="#fff"/>
      <path id="Path_1261" data-name="Path 1261" d="M128.568,409.465,118,416.458l5.777,5.621Zm0,0" transform="translate(-87.67 -304.219)" fill="#fff"/>
      <path id="Path_1262" data-name="Path 1262" d="M78.721,420.135a1.051,1.051,0,0,1-.223-.024,1.028,1.028,0,0,1-.738-.64l-4.789-12.614a1.028,1.028,0,0,1,1.529-1.222l10.564,6.994a1.028,1.028,0,0,1,.15,1.594l-5.777,5.621A1.027,1.027,0,0,1,78.721,420.135Zm-2.694-11.023,3.1,8.166,3.738-3.638Zm0,0" transform="translate(-54.164 -301.247)" fill="#f0f0f0"/>
      <path id="Path_1263" data-name="Path 1263" d="M120.808,420.135a1.027,1.027,0,0,1-.717-.291l-5.777-5.621a1.027,1.027,0,0,1,.149-1.594l10.564-6.994a1.028,1.028,0,0,1,1.529,1.221l-4.788,12.615a1.031,1.031,0,0,1-.739.639A.977.977,0,0,1,120.808,420.135Zm-4.145-6.5,3.739,3.639,3.1-8.166Zm0,0" transform="translate(-84.697 -301.247)" fill="#f0f0f0"/>
      <path id="Path_1264" data-name="Path 1264" d="M106.922,464.162h-6.35a1.034,1.034,0,0,1-.961-.581l-.73-1.686a.8.8,0,0,1-.01-.614l1.5-3.795a1.027,1.027,0,0,1,.972-.607h4.819a1.027,1.027,0,0,1,.972.607l1.5,3.795a.8.8,0,0,1-.011.614l-.729,1.685A1.034,1.034,0,0,1,106.922,464.162Zm-5.641-1.8h4.931l.345-.8-1.135-2.879h-3.354l-1.134,2.879Zm0,0" transform="translate(-73.413 -339.445)" fill="#f59b2d"/>
      <path id="Path_1265" data-name="Path 1265" d="M109.254,436.668l-3.027,2.945.618,3.279h4.819l.618-3.279Zm0,0" transform="translate(-78.92 -324.429)" fill="#5c2a3f"/>
      <path id="Path_1266" data-name="Path 1266" d="M108.691,440.95h-4.819a1.027,1.027,0,0,1-1.01-.839l-.618-3.278a1.026,1.026,0,0,1,.293-.927l3.027-2.946a1.03,1.03,0,0,1,1.434,0l3.026,2.946a1.029,1.029,0,0,1,.294.927l-.618,3.278A1.029,1.029,0,0,1,108.691,440.95Zm-3.965-2.057h3.113l.357-1.9-1.914-1.863L104.368,437Zm0,0" transform="translate(-75.949 -321.459)" fill="#f59b2d"/>
      <path id="Path_1267" data-name="Path 1267" d="M200.181,43.32h-9.628a1.232,1.232,0,0,1-1.175-.883,36.63,36.63,0,0,0-2.756-6.631,1.231,1.231,0,0,1,.207-1.457l6.814-6.814a3.069,3.069,0,0,0,0-4.341l-9.548-9.548a3.07,3.07,0,0,0-4.34,0l-6.815,6.815a1.233,1.233,0,0,1-1.457.206,36.495,36.495,0,0,0-6.631-2.755,1.232,1.232,0,0,1-.883-1.176V7.108A3.068,3.068,0,0,0,160.9,4.039H147.4a3.068,3.068,0,0,0-3.069,3.069v9.628a1.234,1.234,0,0,1-.883,1.176,36.562,36.562,0,0,0-6.632,2.755,1.233,1.233,0,0,1-1.457-.206l-6.814-6.815a3.071,3.071,0,0,0-4.341,0l-9.548,9.548a3.071,3.071,0,0,0,0,4.341l6.814,6.814a1.231,1.231,0,0,1,.206,1.457,36.637,36.637,0,0,0-2.755,6.631,1.232,1.232,0,0,1-1.175.883h-9.629a3.069,3.069,0,0,0-3.069,3.069v13.5a3.069,3.069,0,0,0,3.069,3.07h9.629a1.231,1.231,0,0,1,1.175.882,36.677,36.677,0,0,0,2.755,6.632,1.23,1.23,0,0,1-.206,1.457l-6.814,6.814a3.07,3.07,0,0,0,0,4.34l9.548,9.548a3.068,3.068,0,0,0,4.34,0l6.814-6.814a1.232,1.232,0,0,1,1.457-.206,36.532,36.532,0,0,0,6.632,2.755,1.232,1.232,0,0,1,.883,1.176v9.628a3.068,3.068,0,0,0,3.069,3.069h13.5a3.069,3.069,0,0,0,3.069-3.069V89.545a1.232,1.232,0,0,1,.883-1.176,36.625,36.625,0,0,0,6.631-2.755,1.231,1.231,0,0,1,1.457.206l6.815,6.814a3.068,3.068,0,0,0,4.34,0l9.548-9.548a3.07,3.07,0,0,0,0-4.34l-6.814-6.814a1.233,1.233,0,0,1-.207-1.457,36.539,36.539,0,0,0,2.756-6.632,1.23,1.23,0,0,1,1.175-.882h9.629a3.069,3.069,0,0,0,3.069-3.07v-13.5A3.069,3.069,0,0,0,200.181,43.32ZM154.149,77.372A24.232,24.232,0,1,1,178.38,53.14,24.259,24.259,0,0,1,154.149,77.372Zm0,0" transform="translate(-78.044 -3.011)" fill="#f59b2d"/>
      <path id="Path_1268" data-name="Path 1268" d="M157.928,100.3h-13.5a4.1,4.1,0,0,1-4.1-4.1V86.574a.207.207,0,0,0-.154-.192,37.8,37.8,0,0,1-6.819-2.834.206.206,0,0,0-.244.027L126.3,90.39a4.1,4.1,0,0,1-5.794,0l-9.548-9.548a4.1,4.1,0,0,1,0-5.794l6.814-6.814a.205.205,0,0,0,.027-.245,37.719,37.719,0,0,1-2.834-6.818.2.2,0,0,0-.192-.154h-9.628a4.1,4.1,0,0,1-4.1-4.1v-13.5a4.1,4.1,0,0,1,4.1-4.1h9.629a.208.208,0,0,0,.192-.154,37.653,37.653,0,0,1,2.833-6.819.206.206,0,0,0-.026-.244l-6.815-6.814a4.1,4.1,0,0,1,0-5.795L120.5,9.948a4.094,4.094,0,0,1,5.794,0l6.814,6.814a.207.207,0,0,0,.245.026,37.676,37.676,0,0,1,6.818-2.833.206.206,0,0,0,.154-.192V4.136a4.1,4.1,0,0,1,4.1-4.1h13.5a4.1,4.1,0,0,1,4.1,4.1v9.629a.208.208,0,0,0,.154.192A37.656,37.656,0,0,1,169,16.789a.207.207,0,0,0,.245-.026l6.814-6.814a4.1,4.1,0,0,1,5.794,0L191.4,19.5a4.1,4.1,0,0,1,0,5.795L184.583,32.1a.205.205,0,0,0-.027.244,37.676,37.676,0,0,1,2.834,6.818.206.206,0,0,0,.192.154h9.628a4.1,4.1,0,0,1,4.1,4.1v13.5a4.1,4.1,0,0,1-4.1,4.1h-9.628a.206.206,0,0,0-.192.154,37.747,37.747,0,0,1-2.834,6.818.206.206,0,0,0,.027.244l6.814,6.815a4.1,4.1,0,0,1,0,5.794l-9.548,9.548a4.1,4.1,0,0,1-5.794,0l-6.814-6.814a.207.207,0,0,0-.245-.027,37.734,37.734,0,0,1-6.818,2.834.206.206,0,0,0-.154.192V96.2A4.1,4.1,0,0,1,157.928,100.3ZM133.244,81.462a2.287,2.287,0,0,1,1.083.274,35.712,35.712,0,0,0,6.445,2.679,2.248,2.248,0,0,1,1.612,2.159V96.2a2.043,2.043,0,0,0,2.04,2.04h13.5a2.043,2.043,0,0,0,2.041-2.04V86.574a2.248,2.248,0,0,1,1.612-2.159,35.671,35.671,0,0,0,6.444-2.679,2.251,2.251,0,0,1,2.67.386l6.814,6.814a2.044,2.044,0,0,0,2.886,0l9.548-9.548a2.04,2.04,0,0,0,0-2.886l-6.814-6.814a2.249,2.249,0,0,1-.385-2.67,35.634,35.634,0,0,0,2.678-6.446,2.25,2.25,0,0,1,2.159-1.612h9.629a2.043,2.043,0,0,0,2.04-2.04v-13.5a2.042,2.042,0,0,0-2.04-2.04h-9.628a2.25,2.25,0,0,1-2.159-1.612,35.64,35.64,0,0,0-2.679-6.445,2.248,2.248,0,0,1,.386-2.67l6.814-6.814a2.045,2.045,0,0,0,0-2.887L180.4,11.4a2.042,2.042,0,0,0-2.885,0L170.7,18.215a2.248,2.248,0,0,1-2.669.386,35.614,35.614,0,0,0-6.446-2.678,2.249,2.249,0,0,1-1.611-2.159V4.136a2.043,2.043,0,0,0-2.041-2.04h-13.5a2.043,2.043,0,0,0-2.04,2.04v9.629a2.25,2.25,0,0,1-1.612,2.158,35.639,35.639,0,0,0-6.445,2.679,2.248,2.248,0,0,1-2.67-.386L124.844,11.4a2.09,2.09,0,0,0-2.887,0l-9.547,9.547a2.045,2.045,0,0,0,0,2.887l6.814,6.814a2.248,2.248,0,0,1,.386,2.67,35.533,35.533,0,0,0-2.678,6.445,2.251,2.251,0,0,1-2.159,1.612h-9.629a2.043,2.043,0,0,0-2.04,2.04v13.5a2.043,2.043,0,0,0,2.04,2.04h9.629a2.252,2.252,0,0,1,2.159,1.612,35.593,35.593,0,0,0,2.678,6.446,2.248,2.248,0,0,1-.386,2.67L112.41,76.5a2.044,2.044,0,0,0,0,2.886l9.548,9.548a2.044,2.044,0,0,0,2.886,0l6.814-6.814A2.234,2.234,0,0,1,133.244,81.462Zm17.933-6.034a25.26,25.26,0,1,1,25.26-25.26A25.289,25.289,0,0,1,151.177,75.428Zm0-48.463a23.2,23.2,0,1,0,23.2,23.2A23.23,23.23,0,0,0,151.177,26.965Zm0,0" transform="translate(-75.072 -0.039)" fill="#ea8913"/>
      <path id="Path_1269" data-name="Path 1269" d="M224.847,148.479a24.64,24.64,0,1,1,24.639-24.64A24.668,24.668,0,0,1,224.847,148.479Zm0-47.223a22.583,22.583,0,1,0,22.583,22.583A22.609,22.609,0,0,0,224.847,101.256Zm0,0" transform="translate(-148.742 -73.709)" fill="#3762cc"/>
      <path id="Path_1270" data-name="Path 1270" d="M213.558,84A28.547,28.547,0,1,0,242.1,112.543,28.579,28.579,0,0,0,213.558,84Zm0,52.159a23.612,23.612,0,1,1,23.611-23.612A23.639,23.639,0,0,1,213.558,136.156Zm0,0" transform="translate(-137.453 -62.414)" fill="#fff"/>
      <path id="Path_1271" data-name="Path 1271" d="M210.586,139.147a29.576,29.576,0,1,1,29.575-29.576A29.609,29.609,0,0,1,210.586,139.147Zm0-57.095A27.519,27.519,0,1,0,238.1,109.572,27.55,27.55,0,0,0,210.586,82.053Zm0,52.159a24.64,24.64,0,1,1,24.639-24.64A24.668,24.668,0,0,1,210.586,134.212Zm0-47.223a22.583,22.583,0,1,0,22.583,22.583A22.609,22.609,0,0,0,210.586,86.989Zm0,0" transform="translate(-134.481 -59.443)" fill="#db8925"/>
      <g id="Group_783" data-name="Group 783" transform="translate(59.297 35.915)">
        <path id="Path_1272" data-name="Path 1272" d="M266.6,161.736A10.194,10.194,0,0,1,256.4,151.541V139.754h20.389v11.787A10.194,10.194,0,0,1,266.6,161.736Zm0,0" transform="translate(-249.789 -139.754)" fill="#f59b2d"/>
        <path id="Path_1273" data-name="Path 1273" d="M266.6,161.736A10.194,10.194,0,0,1,256.4,151.541V139.754h20.389v11.787A10.194,10.194,0,0,1,266.6,161.736Zm0,0" transform="translate(-249.789 -139.754)" fill="#f59b2d"/>
        <path id="Path_1274" data-name="Path 1274" d="M283.7,253.346H271.592a.319.319,0,0,1-.318-.319,2.867,2.867,0,0,1,2.867-2.867h7.009a2.867,2.867,0,0,1,2.868,2.867A.319.319,0,0,1,283.7,253.346Zm0,0" transform="translate(-260.837 -221.779)" fill="#f59b2d"/>
        <path id="Path_1275" data-name="Path 1275" d="M292.094,231.041v-6.615a10.252,10.252,0,0,1-4.2,0v6.615Zm0,0" transform="translate(-273.189 -202.66)" fill="#f59b2d"/>
        <path id="Path_1276" data-name="Path 1276" d="M237.289,154.442v-.213a7.721,7.721,0,0,1-2.339-1.62,7.048,7.048,0,0,1-2.031-3.716,2.837,2.837,0,0,1,.567-2.425,2.456,2.456,0,0,1,1.752-.623,5.189,5.189,0,0,1,2.05.466v-2.329a5.226,5.226,0,0,0-5.35.937c-2.147,2.146-1.491,6.282,1.464,9.236a9.467,9.467,0,0,0,4.123,2.471A10.237,10.237,0,0,1,237.289,154.442Zm0,0" transform="translate(-230.676 -142.655)" fill="#f59b2d"/>
        <path id="Path_1277" data-name="Path 1277" d="M340.385,144.92a5.227,5.227,0,0,0-5.351-.937v2.329a5.189,5.189,0,0,1,2.05-.466,2.459,2.459,0,0,1,1.753.623,2.836,2.836,0,0,1,.566,2.425,7.048,7.048,0,0,1-2.031,3.716,7.721,7.721,0,0,1-2.339,1.62v.213a10.243,10.243,0,0,1-.237,2.185,9.477,9.477,0,0,0,4.124-2.47C341.875,151.2,342.531,147.067,340.385,144.92Zm0,0" transform="translate(-308.032 -142.655)" fill="#f59b2d"/>
      </g>
      <path id="Path_1278" data-name="Path 1278" d="M56.484,201.648c-.047,0-.093.006-.142.007v-2.13a22.414,22.414,0,1,0-44.826,0v2.13c-.048,0-.094-.007-.143-.007a6.879,6.879,0,1,0,.734,13.718,22.381,22.381,0,0,0,43.643,0,6.877,6.877,0,1,0,.733-13.718Zm0,0" transform="translate(-3.369 -131.494)" fill="#f9cfcf"/>
      <path id="Path_1279" data-name="Path 1279" d="M66.526,278.862a2.28,2.28,0,0,1-2.28-2.279v-3.85a2.28,2.28,0,0,1,4.56,0v3.85A2.279,2.279,0,0,1,66.526,278.862Zm0,0" transform="translate(-47.731 -200.941)"/>
      <path id="Path_1280" data-name="Path 1280" d="M158.588,278.862a2.279,2.279,0,0,1-2.279-2.279v-3.85a2.279,2.279,0,0,1,4.559,0v3.85A2.28,2.28,0,0,1,158.588,278.862Zm0,0" transform="translate(-116.128 -200.941)"/>
      <path id="Path_1281" data-name="Path 1281" d="M102.687,332.4c-3.984,0-7.226-2.2-7.226-4.912a1.238,1.238,0,0,1,2.441,0c0,1.548,2.191,2.856,4.785,2.856s4.785-1.307,4.785-2.856a1.238,1.238,0,0,1,2.441,0C109.913,330.193,106.672,332.4,102.687,332.4Zm0,0" transform="translate(-71.726 -237.725)" fill="#434343"/>
      <path id="Path_1282" data-name="Path 1282" d="M30.956,230.831A23.35,23.35,0,0,1,8.343,213.463,7.91,7.91,0,0,1,7.515,197.7v-1.145a23.442,23.442,0,1,1,46.884,0V197.7a7.91,7.91,0,0,1-.828,15.765A23.35,23.35,0,0,1,30.956,230.831ZM9.136,211.365a1.028,1.028,0,0,1,1,.8,21.353,21.353,0,0,0,41.64,0,1.032,1.032,0,0,1,1.112-.79,5.693,5.693,0,0,0,.624.035,5.851,5.851,0,0,0,.013-11.7c-.056,0-.094.006-.133.007a1,1,0,0,1-.741-.293,1.032,1.032,0,0,1-.309-.735v-2.13a21.385,21.385,0,1,0-42.77,0v2.13a1.026,1.026,0,0,1-.309.735,1.007,1.007,0,0,1-.741.293q-.059,0-.117-.006h0a5.851,5.851,0,0,0,0,11.7,5.68,5.68,0,0,0,.624-.035A1,1,0,0,1,9.136,211.365Zm0,0" transform="translate(-0.398 -128.522)" fill="none"/>
      <path id="Path_1283" data-name="Path 1283" d="M69.994,408.2H19.849a1.029,1.029,0,0,1-1.028-1.028v-3.186c0-.263.007-.523.019-.782l.016-.26c.01-.171.021-.342.037-.513l.032-.306c.016-.152.034-.306.054-.458.014-.107.031-.215.048-.323.022-.143.046-.286.071-.429.02-.111.041-.22.063-.329.029-.14.059-.277.09-.415.024-.107.05-.219.077-.329.034-.133.07-.267.106-.4l.022-.079c.023-.083.046-.166.07-.248.034-.114.07-.226.106-.337l.047-.147c.025-.078.05-.157.076-.233.037-.106.077-.214.118-.321L19.9,398c.074-.2.151-.39.231-.58l.033-.079c.039-.093.078-.188.119-.28s.087-.191.133-.285l.063-.133c.038-.081.076-.163.116-.243.056-.111.114-.222.174-.333l.165-.309c.067-.12.138-.241.208-.361.05-.087.1-.175.156-.261q.111-.181.226-.36l.161-.243c.081-.121.163-.24.247-.359l.162-.224c.089-.12.178-.241.268-.358l.031-.042c.012-.016.024-.03.037-.045a16.938,16.938,0,0,1,10.746-6.272v-6.038a1.027,1.027,0,0,1,1.505-.91,21.265,21.265,0,0,0,19.7,0,1.028,1.028,0,0,1,1.505.911v5.932a16.963,16.963,0,0,1,13.033,8.68l.028.048q.145.267.28.539l.045.09c.1.2.177.369.256.543l.048.111c.089.206.164.379.233.554l.039.1a16.987,16.987,0,0,1,.549,1.656l.024.086c.02.072.04.146.059.22.027.1.052.21.076.316l.015.064c.028.125.057.249.083.375s.048.243.07.362c.025.137.049.275.071.415.019.115.036.229.051.344.021.15.039.3.056.453l.006.061c.01.086.02.174.028.261.015.168.027.341.037.514l.017.267v0q.02.395.02.793v3.186A1.025,1.025,0,0,1,69.994,408.2Zm-49.117-2.056h48.09v-2.158c0-.235-.007-.469-.018-.7h0l-.014-.234c-.01-.153-.02-.3-.034-.455l-.03-.284q-.023-.2-.048-.4c-.014-.1-.03-.2-.046-.3q-.029-.182-.063-.365c-.019-.107-.039-.213-.06-.318s-.049-.219-.074-.33l-.016-.067c-.02-.089-.041-.179-.063-.267L68.424,400a14.693,14.693,0,0,0-.471-1.425s-.021-.054-.022-.058l-.02-.053c-.064-.161-.13-.312-.195-.463l-.056-.129q-.1-.229-.214-.455l-.049-.1c-.081-.164-.164-.321-.249-.478a14.9,14.9,0,0,0-12.306-7.728,1,1,0,0,1-.462-.1,1.025,1.025,0,0,1-.57-1.129,1.24,1.24,0,0,0,.029-.249v-4.809a23.323,23.323,0,0,1-18.6,0v4.825a1.3,1.3,0,0,0,.034.266,1.03,1.03,0,0,1-.882,1.235l-.293.036a14.855,14.855,0,0,0-10.074,5.625l-.031.038c-.092.122-.163.217-.234.313l-.144.2c-.072.1-.145.208-.215.313l-.142.216c-.068.1-.135.209-.2.315l-.136.229c-.063.106-.125.212-.184.319l-.132.246c-.066.126-.117.221-.166.318-.033.065-.064.132-.094.2l-.069.147c-.038.078-.075.157-.11.235s-.065.154-.1.231l-.035.084c-.07.17-.138.339-.2.511l-.029.078c-.034.09-.068.181-.1.272l-.11.339c-.031.1-.062.192-.091.289l-.081.289c-.032.114-.063.232-.093.348-.024.1-.046.193-.068.29-.028.124-.054.244-.079.365-.019.1-.037.192-.055.289-.022.125-.043.251-.063.379-.015.094-.03.189-.042.283-.019.135-.034.268-.048.4l-.029.27c-.013.15-.023.3-.032.452l-.015.229c-.01.227-.016.457-.016.688Zm0,0" transform="translate(-13.982 -282.452)" fill="none"/>
      <path id="Path_1284" data-name="Path 1284" d="M153.51,166.177h11.657a1.561,1.561,0,0,0,1.561-1.561V155.7a17.953,17.953,0,0,0-17.953-17.954h-.557a4.683,4.683,0,0,0-4.683,4.683V156.2A9.975,9.975,0,0,0,153.51,166.177Zm0,0" transform="translate(-106.638 -102.348)" fill="#242424"/>
      <path id="Path_1285" data-name="Path 1285" d="M35.235,137.742H23.49A19.491,19.491,0,0,0,4,157.232v7.374a1.568,1.568,0,0,0,1.567,1.567H16.056a13.38,13.38,0,0,0,4.736-.86,18.279,18.279,0,0,0,9.578-7.829s-2.047,6.012-3.617,8.034a.374.374,0,0,0,.33.6,14.034,14.034,0,0,0,12.829-13.981V142.42A4.677,4.677,0,0,0,35.235,137.742Zm0,0" transform="translate(-2.972 -102.345)" fill="#242424"/>
      <path id="Path_1286" data-name="Path 1286" d="M162.193,164.233H150.536a11.016,11.016,0,0,1-11-11V139.458a5.719,5.719,0,0,1,5.713-5.711h.556a19,19,0,0,1,18.982,18.982v8.917A2.592,2.592,0,0,1,162.193,164.233ZM145.244,135.8a3.659,3.659,0,0,0-3.655,3.656V153.23a8.957,8.957,0,0,0,8.947,8.947h11.658a.534.534,0,0,0,.533-.533v-8.917A16.945,16.945,0,0,0,145.8,135.8Zm0,0" transform="translate(-103.664 -99.376)" fill="#242424"/>
      <path id="Path_1287" data-name="Path 1287" d="M13.084,164.231H2.6a2.6,2.6,0,0,1-2.6-2.6v-7.374a20.542,20.542,0,0,1,20.518-20.518H32.264a5.712,5.712,0,0,1,5.705,5.706v9.721A15.145,15.145,0,0,1,24.2,164.175a1.4,1.4,0,0,1-1.23-2.258A11.946,11.946,0,0,0,24.1,159.95a21.458,21.458,0,0,1-5.919,3.354A14.334,14.334,0,0,1,13.084,164.231ZM20.518,135.8A18.483,18.483,0,0,0,2.056,154.261v7.374a.54.54,0,0,0,.539.539H13.084a12.337,12.337,0,0,0,4.373-.792A17.176,17.176,0,0,0,26.5,154.01a1.029,1.029,0,0,1,1.87.836,54,54,0,0,1-2.984,7.091,13.092,13.092,0,0,0,10.525-12.766v-9.722a3.654,3.654,0,0,0-3.649-3.65Zm0,0" transform="translate(0 -99.373)" fill="#242424"/>
      <path id="Path_1288" data-name="Path 1288" d="M47.751,272.624h-7.96A5.794,5.794,0,0,1,34,266.836V260.1a1.544,1.544,0,0,1,1.542-1.542H52A1.544,1.544,0,0,1,53.54,260.1v6.739A5.8,5.8,0,0,1,47.751,272.624ZM36.06,260.611v6.225a3.736,3.736,0,0,0,3.731,3.731h7.96a3.736,3.736,0,0,0,3.731-3.731v-6.225Zm0,0" transform="translate(-25.263 -192.101)" fill="#7b4006"/>
      <path id="Path_1289" data-name="Path 1289" d="M139.751,272.624h-7.96A5.794,5.794,0,0,1,126,266.836V260.1a1.544,1.544,0,0,1,1.542-1.542H144a1.544,1.544,0,0,1,1.542,1.542v6.739A5.8,5.8,0,0,1,139.751,272.624ZM128.06,260.611v6.225a3.736,3.736,0,0,0,3.731,3.731h7.96a3.736,3.736,0,0,0,3.731-3.731v-6.225Zm0,0" transform="translate(-93.614 -192.101)" fill="#7b4006"/>
      <path id="Path_1290" data-name="Path 1290" d="M107.4,283.978H99.177a1.028,1.028,0,1,1,0-2.056H107.4a1.028,1.028,0,0,1,0,2.056Zm0,0" transform="translate(-72.919 -209.462)" fill="#7b4006"/>
      <path id="Path_1291" data-name="Path 1291" d="M204.539,248.348a22.716,22.716,0,0,1,.395,4.2v2.13c.048,0,.094-.007.142-.007a6.779,6.779,0,0,1,4.594,1.794v-8.119Zm0,0" transform="translate(-151.961 -184.518)" fill="#242424"/>
      <path id="Path_1292" data-name="Path 1292" d="M206.7,254.526a1.031,1.031,0,0,1-.695-.269,5.768,5.768,0,0,0-3.9-1.524c-.042,0-.081.006-.12.007a1,1,0,0,1-.741-.293,1.032,1.032,0,0,1-.309-.735v-2.13a21.787,21.787,0,0,0-.377-4.013,1.029,1.029,0,0,1,1.011-1.218h5.129a1.028,1.028,0,0,1,1.028,1.028V253.5a1.026,1.026,0,0,1-.614.941A1.043,1.043,0,0,1,206.7,254.526Zm-3.707-3.8a7.8,7.8,0,0,1,2.679.813v-5.132h-2.895a23.622,23.622,0,0,1,.216,3.174Zm0,0" transform="translate(-148.988 -181.549)" fill="#242424"/>
      <path id="Path_1293" data-name="Path 1293" d="M10.824,254.4A1.026,1.026,0,0,1,9.8,253.371v-7.995a1.029,1.029,0,0,1,1.028-1.028h4.994a1.028,1.028,0,0,1,1.01,1.218,21.857,21.857,0,0,0-.376,4.013v2.13a1.026,1.026,0,0,1-.309.735,1.007,1.007,0,0,1-.741.293q-.059,0-.117-.006h0a5.78,5.78,0,0,0-3.784,1.417A1.02,1.02,0,0,1,10.824,254.4Zm1.029-7.995v5.064a7.826,7.826,0,0,1,2.542-.744v-1.146a23.764,23.764,0,0,1,.215-3.174Zm0,0" transform="translate(-7.279 -181.546)" fill="#242424"/>
    </g>
  </g>
</svg>
