<svg xmlns="http://www.w3.org/2000/svg" width="211.718" height="179.834" viewBox="0 0 211.718 179.834">
  <g id="Group_1011" data-name="Group 1011" transform="translate(-1304 -3979.032)">
    <g id="Group_986" data-name="Group 986" transform="translate(1376.055 4105.954)">
      <g id="Group_966" data-name="Group 966" transform="translate(72.066 0)">
        <g id="Group_965" data-name="Group 965" transform="translate(0)">
          <rect id="Rectangle_2456" data-name="Rectangle 2456" width="31.222" height="48.87" transform="translate(25.65 0.001)" fill="#ffd18d"/>
          <rect id="Rectangle_2457" data-name="Rectangle 2457" width="27.561" height="48.87" transform="translate(0.556)" fill="#d88850"/>
          <g id="Group_960" data-name="Group 960" transform="translate(0 24.042)">
            <g id="Group_959" data-name="Group 959" opacity="0.5">
              <rect id="Rectangle_2458" data-name="Rectangle 2458" width="56.879" height="0.609" fill="#c9804f"/>
            </g>
          </g>
          <rect id="Rectangle_2459" data-name="Rectangle 2459" width="3.421" height="4.043" transform="translate(40.331 0)" fill="#ce683c"/>
          <rect id="Rectangle_2460" data-name="Rectangle 2460" width="3.198" height="2.909" transform="translate(1.383 19.14)" fill="#c2d8ef" opacity="0.8"/>
          <g id="Group_961" data-name="Group 961" transform="translate(15.506 19.14)" opacity="0.2">
            <rect id="Rectangle_2461" data-name="Rectangle 2461" width="5.336" height="2.909" fill="#333332"/>
          </g>
          <g id="Group_962" data-name="Group 962" transform="translate(21.595 19.14)" opacity="0.2">
            <rect id="Rectangle_2462" data-name="Rectangle 2462" width="2.747" height="2.909" fill="#333332"/>
          </g>
          <g id="Group_963" data-name="Group 963" transform="translate(15.506 44.611)" opacity="0.2">
            <rect id="Rectangle_2463" data-name="Rectangle 2463" width="5.336" height="2.91" fill="#333332"/>
          </g>
          <g id="Group_964" data-name="Group 964" transform="translate(21.595 44.611)" opacity="0.2">
            <rect id="Rectangle_2464" data-name="Rectangle 2464" width="2.747" height="2.91" fill="#333332"/>
          </g>
          <rect id="Rectangle_2465" data-name="Rectangle 2465" width="3.198" height="2.91" transform="translate(1.383 44.775)" fill="#c2d8ef" opacity="0.8"/>
          <rect id="Rectangle_2466" data-name="Rectangle 2466" width="3.421" height="4.043" transform="translate(40.637 24.408)" fill="#ce683c"/>
        </g>
      </g>
      <g id="Group_985" data-name="Group 985" transform="translate(0 0)">
        <g id="Group_975" data-name="Group 975" transform="translate(0)">
          <rect id="Rectangle_2467" data-name="Rectangle 2467" width="32.371" height="48.87" transform="translate(42.898)" fill="#ba6145"/>
          <rect id="Rectangle_2468" data-name="Rectangle 2468" width="21.552" height="48.87" fill="#d88850"/>
          <g id="Group_968" data-name="Group 968" transform="translate(0.053 24.042)">
            <g id="Group_967" data-name="Group 967" opacity="0.5">
              <rect id="Rectangle_2469" data-name="Rectangle 2469" width="75.223" height="0.609" fill="#c9804f"/>
            </g>
          </g>
          <rect id="Rectangle_2470" data-name="Rectangle 2470" width="3.421" height="3.732" transform="translate(55.523)" fill="#a86951"/>
          <g id="Group_969" data-name="Group 969" transform="translate(15.829 19.14)" opacity="0.3">
            <rect id="Rectangle_2471" data-name="Rectangle 2471" width="2.747" height="2.91" fill="#333332"/>
          </g>
          <g id="Group_970" data-name="Group 970" transform="translate(21.165 19.14)" opacity="0.3">
            <rect id="Rectangle_2472" data-name="Rectangle 2472" width="2.747" height="2.91" fill="#333332"/>
          </g>
          <g id="Group_971" data-name="Group 971" transform="translate(26.335 19.14)" opacity="0.3">
            <rect id="Rectangle_2473" data-name="Rectangle 2473" width="2.747" height="2.91" fill="#333332"/>
          </g>
          <g id="Group_972" data-name="Group 972" transform="translate(15.829 44.611)" opacity="0.3">
            <rect id="Rectangle_2474" data-name="Rectangle 2474" width="2.747" height="2.91" fill="#333332"/>
          </g>
          <g id="Group_973" data-name="Group 973" transform="translate(21.165 44.611)" opacity="0.3">
            <rect id="Rectangle_2475" data-name="Rectangle 2475" width="2.747" height="2.91" fill="#333332"/>
          </g>
          <g id="Group_974" data-name="Group 974" transform="translate(26.335 44.611)" opacity="0.3">
            <rect id="Rectangle_2476" data-name="Rectangle 2476" width="2.747" height="2.91" fill="#333332"/>
          </g>
          <rect id="Rectangle_2477" data-name="Rectangle 2477" width="3.421" height="4.669" transform="translate(55.993 24.501)" fill="#a86951"/>
        </g>
        <g id="Group_984" data-name="Group 984" transform="translate(11.665)">
          <rect id="Rectangle_2478" data-name="Rectangle 2478" width="32.372" height="48.87" transform="translate(54.639 0)" fill="#ffd18d"/>
          <rect id="Rectangle_2479" data-name="Rectangle 2479" width="21.552" height="48.87" transform="translate(9.622)" fill="#d88850"/>
          <rect id="Rectangle_2481" data-name="Rectangle 2481" width="3.421" height="4.043" transform="translate(62.753)" fill="#ce683c"/>
          <g id="Group_978" data-name="Group 978" transform="translate(25.914 19.14)" opacity="0.3">
            <rect id="Rectangle_2482" data-name="Rectangle 2482" width="2.747" height="2.91" fill="#333332"/>
          </g>
          <g id="Group_979" data-name="Group 979" transform="translate(31.406 19.14)" opacity="0.3">
            <rect id="Rectangle_2483" data-name="Rectangle 2483" width="2.747" height="2.909" fill="#333332"/>
          </g>
          <g id="Group_980" data-name="Group 980" transform="translate(36.727 19.14)" opacity="0.3">
            <rect id="Rectangle_2484" data-name="Rectangle 2484" width="2.747" height="2.909" fill="#333332"/>
          </g>
          <g id="Group_981" data-name="Group 981" transform="translate(25.914 44.611)" opacity="0.3">
            <rect id="Rectangle_2485" data-name="Rectangle 2485" width="2.747" height="2.91" fill="#333332"/>
          </g>
          <g id="Group_982" data-name="Group 982" transform="translate(31.406 44.611)" opacity="0.3">
            <rect id="Rectangle_2486" data-name="Rectangle 2486" width="2.747" height="2.91" fill="#333332"/>
          </g>
          <g id="Group_983" data-name="Group 983" transform="translate(36.727 44.611)" opacity="0.3">
            <rect id="Rectangle_2487" data-name="Rectangle 2487" width="2.747" height="2.91" fill="#333332"/>
          </g>
          <rect id="Rectangle_2488" data-name="Rectangle 2488" width="3.421" height="4.043" transform="translate(62.753 24.408)" fill="#ce683c"/>
        </g>
      </g>
    </g>
    <g id="Group_1010" data-name="Group 1010">
      <g id="Group_958" data-name="Group 958" transform="translate(1313.746 3979.032)">
        <g id="Group_933" data-name="Group 933" transform="translate(48.724 82.967)">
          <path id="Path_2600" data-name="Path 2600" d="M519.746,221.121a8.549,8.549,0,0,1-8.313-6.766l-8.409-41.577a5.176,5.176,0,0,1,10.147-2.052l8.048,39.79,17.794-2.755a5.176,5.176,0,0,1,1.584,10.231L521,221.025A8.1,8.1,0,0,1,519.746,221.121Z" transform="translate(-502.92 -166.576)" fill="#e5785c"/>
        </g>
        <g id="Group_951" data-name="Group 951" transform="translate(0 0)">
          <g id="Group_950" data-name="Group 950" transform="translate(0)">
            <g id="Group_948" data-name="Group 948" transform="translate(0 2.238)">
              <g id="Group_947" data-name="Group 947">
                <g id="Group_939" data-name="Group 939" transform="translate(39.383 64.359)">
                  <path id="Path_2617" data-name="Path 2617" d="M505.584,196.573l-1.519-8.132c-1.472-7.882-3.477-16.568-4.746-21.612l-2.018-8.022s-5.5-5.452,2.108-5.452c9.01,0,14.414,7.1,16,15.362,1.672,8.693,5.182,24.908,5.182,24.908Z" transform="translate(-495.377 -153.356)" fill="#ffe14e"/>
                  <path id="Path_2618" data-name="Path 2618" d="M513.883,191.922l-5.37-26.16-10.38,28.972Z" transform="translate(-494.72 -150.4)" fill="#d64404" opacity="0.5"/>
                </g>
                <path id="Path_2620" data-name="Path 2620" d="M482.486,153.32h22.663c7.339.061,13.11,6.731,13.11,14.56,0,0-1.379,66.082-1.559,71.1-.019.516-1.3,1.538-1.3,1.538s3.421-2.386-15.791-2.235c-22.59.177-31.619,21.147-31.619,21.147V167.469C467.993,159.64,475.147,153.261,482.486,153.32Z" transform="translate(-462.519 -89.006)" fill="#ffe14e"/>
                <path id="Path_2621" data-name="Path 2621" d="M480.831,169.119l-2.087-.513h-.559l-6.536,4.357-2.179,27.169,3.359,7.818,15.737-6.023.769-21.018Z" transform="translate(-462.167 -85.363)" fill="#d64404" opacity="0.5"/>
                <path id="Path_2622" data-name="Path 2622" d="M518.038,199.034l4.881,57.714H468.046s-.061-1.27-.1-2.049c-.021-.369-.021-.738-.021-1.087-.492-15.646.329-63.149.329-63.149l4.593,2.01v8.038a40.4,40.4,0,0,1,6.315-.431,5.641,5.641,0,0,0,1.8-.287c7.752-2.707,5.435-23.293,5.435-29.24h27.886C514.285,199.034,514.838,199.034,518.038,199.034Z" transform="translate(-462.573 -84.899)" fill="#9b2a35"/>
                <path id="Path_2623" data-name="Path 2623" d="M487.328,221.928c-9.967,0-19.436,9.531-19.436,28.4V184.347l4.922,4.838v8.038a40.4,40.4,0,0,1,6.315-.431,5.641,5.641,0,0,0,1.8-.287c.821,1.538,1.334,2.563,1.334,2.563.5,18.24,33.342,6.075,33.342,11.58C515.609,222.684,505.914,221.928,487.328,221.928Z" transform="translate(-462.543 -81.612)" fill="#751931"/>
                <g id="Group_943" data-name="Group 943" transform="translate(10.721)">
                  <path id="Path_2624" data-name="Path 2624" d="M472.874,125.357c.8,11.122,3.548,14.126,7.894,14.126,3.566,0,6.521-4.922,6.392-6.073s-1.405-7.926-2.428-8.31S472.874,125.357,472.874,125.357Z" transform="translate(-472.077 -95.759)" fill="#8e3925"/>
                  <path id="Path_2625" data-name="Path 2625" d="M483.2,142.737c-.706-1.418-1.14,3.09-1.15,2.55-.182-9.468-8.29-2.418-8.929-12.9-.546-8.938-.623-9.016-.863-13.359-.48-8.63,4.533-17.784,22.976-17.643,10.268.078,12.9,4.065,15.216,9.295,4.312,9.74.831,22.251.831,22.251Z" transform="translate(-472.23 -101.382)" fill="#8e3925"/>
                  <path id="Path_2626" data-name="Path 2626" d="M497.465,157.495s.141,3.643-5.794,3.643a14.626,14.626,0,0,1-9.631-3.642V139.419l15.425-.854Z" transform="translate(-469.893 -92.521)" fill="#ffb287"/>
                  <path id="Path_2627" data-name="Path 2627" d="M497.465,154.2c-4.042.494-15.316-.953-15.316-3.61s-.109-14.437-.109-14.437l15.425.105Z" transform="translate(-469.893 -93.096)" fill="#e5785c"/>
                  <path id="Path_2628" data-name="Path 2628" d="M511.979,137.151c0,3.553-3.1,11.74-5.018,14.19-.82,1.045-1.952,3.419-4.553,4.208-2.366.717-3.767,1.222-3.767,2.5,0,1.387-2.914-1.3-3.908-1.3-11.823,0-17.668-12.736-17.668-21.412l3.643-11.382c0-9.5,6.305-16.327,15.48-16.257s16.563,6.326,16.563,15.825Z" transform="translate(-471.078 -99.877)" fill="#e5785c"/>
                  <path id="Path_2629" data-name="Path 2629" d="M511.879,123.5l-.123,3.773-.328,10.232c-.348,9.966-2.584,19.172-14.681,19.071-12.078-.083-15.318-14.7-14.99-24.176l.573-8.243c0-.348,0-.7.021-1.025.246-12.364,5.27-16.9,14.149-16.9C508.619,106.235,512.207,114.006,511.879,123.5Z" transform="translate(-469.965 -100.225)" fill="#ffb287"/>
                  <g id="Group_940" data-name="Group 940" transform="translate(27.817 36.987)">
                    <path id="Path_2630" data-name="Path 2630" d="M498.029,133.834c1.722,0,3.187-.97,3.112-1.963-.028-.36-.389-.8-1.064-.479a5.774,5.774,0,0,1-2.037.312,5.668,5.668,0,0,1-1.875-.336c-1.095-.329-1.44.1-1.469.463C494.621,132.822,496.307,133.815,498.029,133.834Z" transform="translate(-494.694 -131.251)" fill="#e5785c"/>
                  </g>
                  <path id="Path_2631" data-name="Path 2631" d="M483.626,127.821c.251,3.539-1.549,6.58-4.019,6.791s-4.678-2.488-4.93-6.027,1.127-6.3,3.574-6.734S483.374,124.281,483.626,127.821Z" transform="translate(-471.654 -96.515)" fill="#e5785c"/>
                  <ellipse id="Ellipse_186" data-name="Ellipse 186" cx="1.521" cy="1.538" rx="1.521" ry="1.538" transform="matrix(0.375, -0.927, 0.927, 0.375, 21.972, 31.369)" fill="#422b27"/>
                  <path id="Path_2632" data-name="Path 2632" d="M501.294,126.513a1.545,1.545,0,0,0,1.535,1.535,1.516,1.516,0,0,0,1.535-1.512A1.543,1.543,0,0,0,502.83,125,1.514,1.514,0,0,0,501.294,126.513Z" transform="translate(-465.305 -95.753)" fill="#422b27"/>
                  <g id="Group_941" data-name="Group 941" transform="translate(18.806 23.175)">
                    <path id="Path_2633" data-name="Path 2633" d="M488.375,122.154a.959.959,0,0,1-.019-1.918l6.908-.139a.959.959,0,1,1,.04,1.918l-6.91.139Z" transform="translate(-487.417 -120.097)" fill="#8e3925"/>
                  </g>
                  <g id="Group_942" data-name="Group 942" transform="translate(34.289 23.432)">
                    <path id="Path_2634" data-name="Path 2634" d="M506.831,122.653l-.071,0-5.948-.43a.96.96,0,1,1,.138-1.914l5.949.43a.96.96,0,0,1-.068,1.917Z" transform="translate(-499.921 -120.304)" fill="#8e3925"/>
                  </g>
                  <path id="Path_2635" data-name="Path 2635" d="M479.092,124.021a17.35,17.35,0,0,1,6.164-13.33c-1.81-2.249-2.467-5.611-2.08-5.92a16.972,16.972,0,0,1,18.706-1.014c6.7,3.875,9.763,6.475,8.616,9.224.014.032.03.062.045.094l-.058-.061a6.34,6.34,0,0,1-5.383,4.029c-8.566,0-8.384-5.029-14.767-4.538-2.493.192-6.281,1.774-6.281,8.007a92.47,92.47,0,0,1-1.148,13.812c-2,.129-2.032-1.171-2.032-1.171,0-3.58-.535-5.582-2.812-6.648Z" transform="translate(-470.84 -101.381)" fill="#8e3925"/>
                </g>
                <g id="Group_944" data-name="Group 944" transform="translate(34.924 44.408)">
                  <path id="Path_2636" data-name="Path 2636" d="M497.283,140.16h-.012c-2.4,0-4.1-.342-5.051-1.012a1.048,1.048,0,1,1,1.206-1.714,8.162,8.162,0,0,0,3.846.63,6.416,6.416,0,0,0,3.233-.625,1.047,1.047,0,0,1,1.207,1.711A7.8,7.8,0,0,1,497.283,140.16Z" transform="translate(-491.775 -137.244)" fill="#e5785c"/>
                </g>
                <g id="Group_946" data-name="Group 946" transform="translate(5.317 83.518)">
                  <path id="Path_2644" data-name="Path 2644" d="M534.819,212.568a5.192,5.192,0,0,1-4.72,5.6l-34.639,2.982c-.268.027-1.074-.064-1.355-.064a11.341,11.341,0,0,1-10.138-6.659l-6.552-14.209-2.591-8.649L468.272,176a5.172,5.172,0,0,1,9.535-4.012l7.542,17.907,2.961,2.883,7.368,17.493a1.429,1.429,0,0,0,.615.334l32.922-2.763A5.193,5.193,0,0,1,534.819,212.568Z" transform="translate(-467.866 -168.828)" fill="#ffb287"/>
                </g>
                <path id="Path_2645" data-name="Path 2645" d="M483.913,153.32c-16.842,0-20.494,10.019-20.336,18.439.154,8.289,10.265,36.029,10.265,36.029l17.762-6.058-9.369-29.61Z" transform="translate(-463.572 -89.005)" fill="#ffe14e"/>
              </g>
              <path id="Path_2646" data-name="Path 2646" d="M481.04,153.32c8.041,0,9.916,12.871,9.81,21.333l-2.773,6.152-3.174-6.152c.108-8.462-1.89-21.058-10.844-20.554,0,0,2-.375,3.409-.576A32.323,32.323,0,0,1,481.04,153.32Z" transform="translate(-461.073 -89.005)" fill="#9b2a35"/>
              <path id="Path_2647" data-name="Path 2647" d="M498.235,153.339a19.088,19.088,0,0,0-3.571-.011c-.048.007-.1.016-.152.022V154a2.311,2.311,0,0,1-.073.577c6.255,2.3,7.754,12.752,7.661,20.1l3.447,4.1,2.386-4.1C508.038,166.209,506.276,153.339,498.235,153.339Z" transform="translate(-456.217 -89.024)" fill="#9b2a35"/>
            </g>
            <path id="Path_2648" data-name="Path 2648" d="M511.679,123.5l-.123,3.773c-.532-2.645-8.761-3.194-17.824-2.846-5.414.227-10.974.618-11.158,2.846.246-12.364,4.848-21.038,13.726-21.038C508.42,106.235,512.007,114.006,511.679,123.5Z" transform="translate(-459.044 -97.987)" fill="#c67560" opacity="0.6"/>
            <g id="Group_949" data-name="Group 949" transform="translate(9.719)">
              <path id="Path_2649" data-name="Path 2649" d="M513.418,119.425c-1.339-1.025-2.73-.513-8.919-.513a71.176,71.176,0,0,0-19.931,2.773c-5.829,1.76-10.215,4.261-11.5,7.137-.6.443-1.538-5.253-1.628-9.349-.014-.228-.014-.443-.014-.658a18.9,18.9,0,0,1,.6-4.761c1.767-6.688,7.421-12.392,17.726-14.027a.827.827,0,0,0,.1-.021c1.15-.18,2.356-.3,3.632-.388.451-.027.887-.042,1.324-.042a21.091,21.091,0,0,1,7.11,1.067c.145.05.291.1.43.16a17.651,17.651,0,0,1,10.124,9.6C514.526,115.018,514.36,119.348,513.418,119.425Z" transform="translate(-471.421 -99.574)" fill="#fca903"/>
              <path id="Path_2650" data-name="Path 2650" d="M512.3,113.751c-2.127.1-4.5-.111-6.968-.037a24.08,24.08,0,0,1,.922,8.008h0C521.995,122.51,525.289,113.125,512.3,113.751Z" transform="translate(-463.34 -96.209)" fill="#d86619"/>
              <path id="Path_2651" data-name="Path 2651" d="M472.746,128.587c1.289-2.877,5.675-5.378,11.5-7.139a71.223,71.223,0,0,1,19.931-2.771c6.189,0,7.581-.514,8.918.513.944-.077,1.109-4.408-.942-9.023a17.651,17.651,0,0,0-10.124-9.6c4.476,2.765,4.914,10.021,5.218,12.307.347,2.6-6.929,3.119-18.192,5.891S472.891,125.758,472.746,128.587Z" transform="translate(-471.105 -99.338)" fill="#fca903"/>
            </g>
          </g>
        </g>
        <g id="Group_952" data-name="Group 952" transform="translate(20.801 89.296)" opacity="0.7">
          <rect id="Rectangle_2452" data-name="Rectangle 2452" width="15.363" height="10.879" rx="0.535" fill="#631729"/>
        </g>
        <rect id="Rectangle_2453" data-name="Rectangle 2453" width="15.363" height="10.111" rx="0.535" transform="translate(22.533 87.564)" fill="#fff"/>
        <rect id="Rectangle_2454" data-name="Rectangle 2454" width="3.371" height="4.636" rx="0.535" transform="translate(28.529 83.641)" fill="#b6b8bf"/>
        <g id="Group_953" data-name="Group 953" transform="translate(32.387 89.688)" opacity="0.6">
          <rect id="Rectangle_2455" data-name="Rectangle 2455" width="3.608" height="3.544" rx="0.535" fill="#4c888e"/>
        </g>
        <path id="Path_2661" data-name="Path 2661" d="M524.9,213.177a15.9,15.9,0,0,1-1.886-.067c-1.871-4.61-4.8-7.368-6.162-4.889-.295-1.979-.391-4.647-3.174-4.848,0,0-3.158-1.63-.421-2.256,4.012-.92,8.381-1.755,10.616-1.672,4.514.167,5.092,2.176,5.64,6.227C529.98,209.1,528.022,213.177,524.9,213.177Z" transform="translate(-451.999 -75.778)" fill="#ffb287"/>
        <path id="Path_2662" data-name="Path 2662" d="M530.421,202.845c3.524.256,4.059,4.418,4.107,6.224.074,2.776,3.7,3.951,6.2,3.951,3.622,0,5.544-4.485,5.126-7.634-.537-4.045-2.285-6.464-7.244-6.185a57.916,57.916,0,0,0-6.687.892C529.164,200.562,530.421,202.845,530.421,202.845Z" transform="translate(-447.711 -75.84)" fill="#ffb287"/>
        <g id="Group_957" data-name="Group 957" transform="translate(72.234 123.919)">
          <path id="Path_2663" data-name="Path 2663" d="M530.155,210.569a1.234,1.234,0,0,1-.191-.014,1.337,1.337,0,0,1-1.135-1.513,5.89,5.89,0,0,0-1.121-4.476,6.4,6.4,0,0,0-4.589-2.25,1.337,1.337,0,1,1,.249-2.662,8.994,8.994,0,0,1,6.44,3.257,8.571,8.571,0,0,1,1.669,6.511A1.337,1.337,0,0,1,530.155,210.569Z" transform="translate(-521.906 -199.647)" fill="#ffb287"/>
        </g>
        <path id="Path_2666" data-name="Path 2666" d="M482.353,121.5c-1.9-8.64-5.768-21.338,13.927-21.121,20.283.223,15.157,19.614,15.157,19.614Z" transform="translate(-459.484 -99.384)" fill="#ffe14e"/>
        <path id="Path_2667" data-name="Path 2667" d="M521.484,113.915c-5.13-.128-6.871,2.322-17.657,5.832-8.181,2.667-16.149-.136-21.788-1.383,1.927-1.756,21.563-4.767,32.4-4.844C517.257,113.5,521.014,113.845,521.484,113.915Z" transform="translate(-459.171 -96.252)" fill="#ffc229"/>
      </g>
      <rect id="Rectangle_2493" data-name="Rectangle 2493" width="166.908" height="5.866" rx="2.933" transform="translate(1304 4153)"/>
      <rect id="Rectangle_2494" data-name="Rectangle 2494" width="38.088" height="5.866" rx="2.933" transform="translate(1477.629 4153)"/>
    </g>
  </g>
</svg>
