<svg id="increase" xmlns="http://www.w3.org/2000/svg" width="62" height="59.299" viewBox="0 0 62 59.299">
  <path id="Path_1227" data-name="Path 1227" d="M174.936,165.985V161.44c1.73.129,2.323.956,3.047.956.955,0,1.368-1.188,1.368-1.782,0-1.5-2.736-1.988-4.415-2.04V157.9c0-.335-.439-.645-.878-.645-.491,0-.878.31-.878.645v.723c-2.582.336-5.009,1.756-5.009,5.035,0,3.3,2.659,4.312,5.009,5.19v5.138c-2.272-.258-3.047-1.937-4.028-1.937-.8,0-1.446,1.085-1.446,1.807,0,1.446,2.35,3.124,5.473,3.2v.723c0,.335.387.645.878.645.439,0,.878-.31.878-.645v-.8c2.892-.465,4.88-2.3,4.88-5.474C179.816,168,177.234,166.837,174.936,165.985Zm-1.549-.568c-1.188-.465-2.066-.956-2.066-2.091,0-.981.775-1.6,2.066-1.807Zm1.342,8.546V169.47c1.11.491,1.937,1.11,1.937,2.375A2.11,2.11,0,0,1,174.73,173.963Zm0,0" transform="translate(-147.399 -138.215)"/>
  <path id="Path_1228" data-name="Path 1228" d="M61.541,16.25,52.568,2.358a5.3,5.3,0,0,0-8.815,0L40.509,7.382A26.363,26.363,0,0,0,7.721,48.27,26.365,26.365,0,0,0,40.9,51.62v5.011A2.671,2.671,0,0,0,43.57,59.3h9.182a2.671,2.671,0,0,0,2.668-2.667V47.815a.908.908,0,1,0-1.817,0v8.817a.852.852,0,0,1-.851.851H43.57a.852.852,0,0,1-.851-.851V19.858a.909.909,0,0,0-.909-.908H37.24a1.125,1.125,0,0,1-.934-1.715L45.279,3.344a3.462,3.462,0,0,1,5.763,0l8.973,13.891a1.119,1.119,0,0,1-.934,1.714h-4.57a.909.909,0,0,0-.909.909V44.181a.908.908,0,0,0,1.817,0V20.767h3.662A2.952,2.952,0,0,0,61.541,16.25Zm-24.3,4.517H40.9V41.393A18.7,18.7,0,0,1,11.76,17.945a.908.908,0,0,0-1.418-1.136,20.519,20.519,0,0,0,30.56,27.3v5.3a24.314,24.314,0,0,1-14.539,4.769A24.546,24.546,0,1,1,39.523,8.907L37.338,12.29a20.488,20.488,0,0,0-24.355,1.783.908.908,0,0,0,1.186,1.376,18.671,18.671,0,0,1,22.184-1.634L34.78,16.25A2.961,2.961,0,0,0,37.24,20.767Zm0,0" transform="translate(0)"/>
</svg>
