<svg xmlns="http://www.w3.org/2000/svg" width="234.435" height="233.51" viewBox="0 0 234.435 233.51">
  <g id="rising" transform="translate(0 -0.501)">
    <path id="Path_1434" data-name="Path 1434" d="M44.559,392.036a3.434,3.434,0,0,0,3.434-3.434V301.309A9.325,9.325,0,0,0,38.678,292H9.315A9.325,9.325,0,0,0,0,301.309V388.6a3.434,3.434,0,0,0,3.434,3.434ZM6.868,301.309a2.448,2.448,0,0,1,2.447-2.445H38.678a2.447,2.447,0,0,1,2.445,2.445v83.858H6.868Zm0,0" transform="translate(0 -158.025)"/>
    <path id="Path_1435" data-name="Path 1435" d="M145.044,241.7a9.324,9.324,0,0,0-9.313,9.315V361.335a3.433,3.433,0,0,0,3.434,3.434h41.123a3.433,3.433,0,0,0,3.434-3.434V251.014a9.325,9.325,0,0,0-9.313-9.315Zm31.81,9.315V357.9H142.6V251.014a2.45,2.45,0,0,1,2.447-2.447h29.363A2.449,2.449,0,0,1,176.854,251.014Zm0,0" transform="translate(-73.582 -130.758)"/>
    <path id="Path_1436" data-name="Path 1436" d="M319.451,334.07V200.721a9.325,9.325,0,0,0-9.315-9.315H280.772a9.325,9.325,0,0,0-9.315,9.315V334.07a3.434,3.434,0,0,0,3.434,3.434h41.125A3.434,3.434,0,0,0,319.451,334.07Zm-6.868-3.434H278.325V200.721a2.449,2.449,0,0,1,2.447-2.447h29.363a2.449,2.449,0,0,1,2.445,2.447V330.636Zm0,0" transform="translate(-147.162 -103.493)"/>
    <path id="Path_1437" data-name="Path 1437" d="M410.622,310.24h41.123a3.434,3.434,0,0,0,3.434-3.434V150.427a9.324,9.324,0,0,0-9.315-9.313H416.5a9.324,9.324,0,0,0-9.313,9.313V306.805A3.433,3.433,0,0,0,410.622,310.24Zm3.434-159.813a2.447,2.447,0,0,1,2.445-2.445h29.363a2.449,2.449,0,0,1,2.447,2.445V303.371H414.056Zm0,0" transform="translate(-220.744 -76.229)"/>
    <path id="Path_1438" data-name="Path 1438" d="M257.36,48.347a7.167,7.167,0,0,0,12.687-1.826l11.737-35.275a7.168,7.168,0,0,0-6.548-9.424L238.084.506a7.166,7.166,0,0,0-6.14,11.25l3.879,5.586c-20.075,11.583-67.4,34.969-131.872,41.816a3.434,3.434,0,0,0,.358,6.849,3.62,3.62,0,0,0,.367-.018c69.516-7.382,119.557-33.661,137.845-44.618a3.468,3.468,0,0,0,1.055-4.9l-5.992-8.625a.3.3,0,0,1,.254-.472l37.153,1.316a.3.3,0,0,1,.274.393s-11.717,35.216-11.737,35.273a.3.3,0,0,1-.529.077l-5.314-7.65a3.433,3.433,0,0,0-4.609-.973,309.784,309.784,0,0,1-39.759,20.181,3.434,3.434,0,1,0,2.692,6.319,324.355,324.355,0,0,0,37.87-18.968Zm0,0" transform="translate(-54.689 0)"/>
    <path id="Path_1439" data-name="Path 1439" d="M47.868,138a3.434,3.434,0,1,0-.453-6.852c-7.453.49-14.956.74-22.3.74a3.433,3.433,0,0,0-3.434,3.434V160a3.434,3.434,0,0,0,3.434,3.434A383.338,383.338,0,0,0,159.207,138.7a3.434,3.434,0,1,0-2.431-6.423A376.789,376.789,0,0,1,28.548,156.544V138.738C34.939,138.672,41.422,138.425,47.868,138Zm0,0" transform="translate(-11.753 -70.822)"/>
  </g>
</svg>
