<svg xmlns="http://www.w3.org/2000/svg" xmlns:xlink="http://www.w3.org/1999/xlink" width="375" height="812" viewBox="0 0 375 812">
  <defs>
    <filter id="Rectangle_22" x="-9" y="-6" width="395" height="103" filterUnits="userSpaceOnUse">
      <feOffset dy="3" input="SourceAlpha"/>
      <feGaussianBlur stdDeviation="3" result="blur"/>
      <feFlood flood-opacity="0.161"/>
      <feComposite operator="in" in2="blur"/>
      <feComposite in="SourceGraphic"/>
    </filter>
    <filter id="Rectangle_24" x="1" y="91.377" width="377.159" height="237.598" filterUnits="userSpaceOnUse">
      <feOffset dy="3" input="SourceAlpha"/>
      <feGaussianBlur stdDeviation="3" result="blur-2"/>
      <feFlood flood-opacity="0.161"/>
      <feComposite operator="in" in2="blur-2"/>
      <feComposite in="SourceGraphic"/>
    </filter>
    <filter id="Path_262" x="0" y="337.752" width="377.159" height="227.598" filterUnits="userSpaceOnUse">
      <feOffset dy="3" input="SourceAlpha"/>
      <feGaussianBlur stdDeviation="3" result="blur-3"/>
      <feFlood flood-opacity="0.161"/>
      <feComposite operator="in" in2="blur-3"/>
      <feComposite in="SourceGraphic"/>
    </filter>
    <filter id="Path_263" x="-1" y="572.559" width="377.159" height="217.598" filterUnits="userSpaceOnUse">
      <feOffset input="SourceAlpha"/>
      <feGaussianBlur stdDeviation="3" result="blur-4"/>
      <feFlood flood-opacity="0.161"/>
      <feComposite operator="in" in2="blur-4"/>
      <feComposite in="SourceGraphic"/>
    </filter>
    <filter id="Path_278" x="191.13" y="381.303" width="182" height="93" filterUnits="userSpaceOnUse">
      <feOffset dy="3" input="SourceAlpha"/>
      <feGaussianBlur stdDeviation="3" result="blur-5"/>
      <feFlood flood-opacity="0.161"/>
      <feComposite operator="in" in2="blur-5"/>
      <feComposite in="SourceGraphic"/>
    </filter>
    <filter id="Path_280" x="191.13" y="466.676" width="182" height="93" filterUnits="userSpaceOnUse">
      <feOffset dy="3" input="SourceAlpha"/>
      <feGaussianBlur stdDeviation="3" result="blur-6"/>
      <feFlood flood-opacity="0.161"/>
      <feComposite operator="in" in2="blur-6"/>
      <feComposite in="SourceGraphic"/>
    </filter>
    <filter id="Path_277" x="5" y="381.303" width="182" height="93" filterUnits="userSpaceOnUse">
      <feOffset dy="3" input="SourceAlpha"/>
      <feGaussianBlur stdDeviation="3" result="blur-7"/>
      <feFlood flood-opacity="0.161"/>
      <feComposite operator="in" in2="blur-7"/>
      <feComposite in="SourceGraphic"/>
    </filter>
    <filter id="Path_279" x="5" y="466.676" width="182" height="93" filterUnits="userSpaceOnUse">
      <feOffset dy="3" input="SourceAlpha"/>
      <feGaussianBlur stdDeviation="3" result="blur-8"/>
      <feFlood flood-opacity="0.161"/>
      <feComposite operator="in" in2="blur-8"/>
      <feComposite in="SourceGraphic"/>
    </filter>
    <filter id="Path_274" x="30.604" y="674.333" width="187.127" height="97.031" filterUnits="userSpaceOnUse">
      <feOffset dy="3" input="SourceAlpha"/>
      <feGaussianBlur stdDeviation="3" result="blur-9"/>
      <feFlood flood-color="#f08d2a"/>
      <feComposite operator="in" in2="blur-9"/>
      <feComposite in="SourceGraphic"/>
    </filter>
    <radialGradient id="radial-gradient" cx="0.663" cy="0.822" r="1.243" gradientTransform="translate(0.391 1.842) rotate(-126.178)" gradientUnits="objectBoundingBox">
      <stop offset="0" stop-color="#25c72b"/>
      <stop offset="1" stop-color="#bce2bd"/>
    </radialGradient>
    <filter id="Rectangle_2442" x="-10" y="730" width="407" height="102" filterUnits="userSpaceOnUse">
      <feOffset dx="5" dy="6" input="SourceAlpha"/>
      <feGaussianBlur stdDeviation="5" result="blur-10"/>
      <feFlood flood-opacity="0.161"/>
      <feComposite operator="in" in2="blur-10"/>
      <feComposite in="SourceGraphic"/>
    </filter>
    <clipPath id="clip-path">
      <rect id="Rectangle_104" data-name="Rectangle 104" width="25.552" height="22.891" fill="#757575"/>
    </clipPath>
    <clipPath id="clip-path-2">
      <rect id="Rectangle_127" data-name="Rectangle 127" width="22.104" height="23" fill="#f08d2a"/>
    </clipPath>
    <clipPath id="clip-iPhone_X_XS_1">
      <rect width="375" height="812"/>
    </clipPath>
  </defs>
  <g id="iPhone_X_XS_1" data-name="iPhone X/XS – 1" clip-path="url(#clip-iPhone_X_XS_1)">
    <rect width="375" height="812" fill="#fff"/>
    <rect id="Rectangle_21" data-name="Rectangle 21" width="392" height="25" fill="#fff" opacity="0.099"/>
    <g transform="matrix(1, 0, 0, 1, 0, 0)" filter="url(#Rectangle_22)">
      <rect id="Rectangle_22-2" data-name="Rectangle 22" width="377" height="85" fill="#fff"/>
    </g>
    <g transform="matrix(1, 0, 0, 1, 0, 0)" filter="url(#Rectangle_24)">
      <rect id="Rectangle_24-2" data-name="Rectangle 24" width="359.159" height="219.598" rx="18" transform="translate(10 97.38)" fill="#fff"/>
    </g>
    <g transform="matrix(1, 0, 0, 1, 0, 0)" filter="url(#Path_262)">
      <path id="Path_262-2" data-name="Path 262" d="M18.9,0H340.257c10.439,0,18.9,8.059,18.9,18V191.6c0,9.941-8.462,18-18.9,18H18.9c-10.439,0-18.9-8.059-18.9-18V18C0,8.059,8.463,0,18.9,0Z" transform="translate(9 343.75)" fill="#fff"/>
    </g>
    <g transform="matrix(1, 0, 0, 1, 0, 0)" filter="url(#Path_263)">
      <path id="Path_263-2" data-name="Path 263" d="M18.9,0H340.257c10.439,0,18.9,8.059,18.9,18V181.6c0,9.941-8.462,18-18.9,18H18.9c-10.439,0-18.9-8.059-18.9-18V18C0,8.059,8.463,0,18.9,0Z" transform="translate(8 581.56)" fill="#fff"/>
    </g>
    <text id="Market_Indicators" data-name="Market Indicators" transform="translate(24.575 135.754)" fill="#757575" font-size="18" font-family="Roboto-Regular, Roboto"><tspan x="0" y="0">Market Indicators</tspan></text>
    <text id="Price_Settings" data-name="Price Settings" transform="translate(26.575 368.762)" fill="#757575" font-size="18" font-family="Roboto-Regular, Roboto"><tspan x="0" y="0">Price Settings</tspan></text>
    <text id="Clicks_Views" data-name="Clicks/Views" transform="translate(26.575 602.403)" fill="#757575" font-size="18" font-family="Roboto-Regular, Roboto"><tspan x="0" y="0">Clicks/Views</tspan></text>
    <rect id="Rectangle_54" data-name="Rectangle 54" width="165.184" height="65.102" transform="translate(197.173 167.054)" fill="#eeffe8"/>
    <rect id="Rectangle_56" data-name="Rectangle 56" width="156.439" height="65.102" transform="translate(17 167.054)" fill="#e8f9ff"/>
    <rect id="Rectangle_57" data-name="Rectangle 57" width="156.439" height="65.102" transform="translate(16.802 243.9)" fill="#eae8ff"/>
    <rect id="Rectangle_55" data-name="Rectangle 55" width="165.184" height="65.102" transform="translate(197.173 243.9)" fill="#f7e8ff"/>
    <text id="_31_01_19" data-name="31/01/19" transform="translate(279.765 135.754)" fill="#757575" font-size="18" font-family="Roboto-Regular, Roboto"><tspan x="0" y="0">31/01/19</tspan></text>
    <text id="East_India_" data-name="East India " transform="translate(61 188)" fill="#757575" font-size="16" font-family="Roboto-Regular, Roboto"><tspan x="0" y="0">East India </tspan></text>
    <text id="North_India_" data-name="North India " transform="translate(54.697 266.43)" fill="#757575" font-size="15" font-family="Roboto-Regular, Roboto"><tspan x="0" y="0">North India </tspan></text>
    <text id="Wesh_India" data-name="Wesh India" transform="translate(237.487 188.748)" fill="#757575" font-size="15" font-family="Roboto-Regular, Roboto"><tspan x="0" y="0">Wesh India</tspan></text>
    <text id="South_India" data-name="South India" transform="translate(239.626 266.43)" fill="#757575" font-size="15" font-family="Roboto-Regular, Roboto"><tspan x="0" y="0">South India</tspan></text>
    <line id="Line_1" data-name="Line 1" y2="18" transform="translate(96.314 200.903)" fill="none" stroke="#757575" stroke-width="1"/>
    <line id="Line_3" data-name="Line 3" y2="29.15" transform="translate(275.14 196.539)" fill="none" stroke="#757575" stroke-width="1"/>
    <line id="Line_4" data-name="Line 4" y2="29.15" transform="translate(275.14 277.288)" fill="none" stroke="#757575" stroke-width="1"/>
    <line id="Line_2" data-name="Line 2" y2="29.15" transform="translate(96.314 276.279)" fill="none" stroke="#757575" stroke-width="1"/>
    <text id="_80" data-name="80" transform="translate(242.714 216.997)" fill="#757575" font-size="18" font-family="Roboto-Regular, Roboto"><tspan x="0" y="0">80</tspan></text>
    <text id="_86" data-name="86" transform="translate(242.714 297.716)" fill="#757575" font-size="18" font-family="Roboto-Regular, Roboto"><tspan x="0" y="0">86</tspan></text>
    <text id="_92" data-name="92" transform="translate(63.448 296.707)" fill="#757575" font-size="18" font-family="Roboto-Regular, Roboto"><tspan x="0" y="0">92</tspan></text>
    <text id="_24" data-name="24" transform="translate(292.463 216.997)" fill="#757575" font-size="18" font-family="Roboto-Regular, Roboto"><tspan x="0" y="0">24</tspan></text>
    <text id="_24-2" data-name="24" transform="translate(292.463 297.716)" fill="#757575" font-size="18" font-family="Roboto-Regular, Roboto"><tspan x="0" y="0">24</tspan></text>
    <text id="_14" data-name="14" transform="translate(113.535 296.707)" fill="#757575" font-size="18" font-family="Roboto-Regular, Roboto"><tspan x="0" y="0">14</tspan></text>
    <text id="Poultry_app" data-name="Poultry app" transform="translate(188 60)" fill="#757575" font-size="20" font-family="Roboto-Regular, Roboto"><tspan x="-50.493" y="0">Poultry app</tspan></text>
    <g id="ic_battery_charging_30_24px" transform="translate(370.13 9) rotate(90)">
      <path id="Path_9" data-name="Path 9" d="M8.67,2H7V0H3V2H1.33A1.336,1.336,0,0,0,0,3.33V12.5H2L6,5v5.5H8l-1.07,2H10V3.33A1.336,1.336,0,0,0,8.67,2Z" transform="translate(0 0)" fill="rgba(0,0,0,0.3)"/>
      <path id="Path_10" data-name="Path 10" d="M4,5.5V0H0V6.17A1.336,1.336,0,0,0,1.33,7.5H8.66A1.338,1.338,0,0,0,10,6.17V0H6.93Z" transform="translate(0 12.5)" fill="#757575"/>
    </g>
    <text id="_50_" data-name="50%" transform="translate(326 18)" fill="#757575" font-size="12" font-family="Roboto-Regular, Roboto"><tspan x="0" y="0">50%</tspan></text>
    <g id="ic_network_wifi_24px" transform="translate(301.672 8)">
      <path id="Path_33" data-name="Path 33" d="M6.972,13.494l6.6-8.224A10.961,10.961,0,0,0,6.966,3,10.942,10.942,0,0,0,.36,5.27l6.6,8.224.006.006Z" transform="translate(-0.36 -3)" fill="rgba(0,0,0,0.3)"/>
      <path id="Path_34" data-name="Path 34" d="M3.53,9.674l4.8,5.982.006.006.006-.006,4.8-5.982A7.933,7.933,0,0,0,8.337,8,7.933,7.933,0,0,0,3.53,9.674Z" transform="translate(-1.731 -5.162)" fill="#757575"/>
    </g>
    <g id="ic_signal_cellular_1_bar_24px" transform="translate(8 7)">
      <path id="Path_45" data-name="Path 45" d="M2,14H14V2Z" transform="translate(-2 -2)" fill="rgba(0,0,0,0.3)"/>
      <path id="Path_46" data-name="Path 46" d="M8,12,2,18H8Z" transform="translate(-2 -6)" fill="#757575"/>
    </g>
    <g id="ic_signal_cellular_1_bar_24px-2" data-name="ic_signal_cellular_1_bar_24px" transform="translate(26 7)">
      <path id="Path_45-2" data-name="Path 45" d="M2,14H14V2Z" transform="translate(-2 -2)" fill="rgba(0,0,0,0.3)"/>
      <path id="Path_46-2" data-name="Path 46" d="M12.066,12,2,21.85H12.066Z" transform="translate(-2 -9.85)" fill="#757575"/>
    </g>
    <text id="_4G" data-name="4G" transform="translate(26 12)" fill="#757575" font-size="5" font-family="Roboto-Regular, Roboto"><tspan x="0" y="0">4G</tspan></text>
    <text id="_3G" data-name="3G" transform="translate(8 12)" fill="#757575" font-size="5" font-family="Roboto-Regular, Roboto"><tspan x="0" y="0">3G</tspan></text>
    <text id="_4:40" data-name="4:40" transform="translate(44 18)" fill="#757575" font-size="12" font-family="Roboto-Regular, Roboto"><tspan x="0" y="0">4:40</tspan></text>
    <g transform="matrix(1, 0, 0, 1, 0, 0)" filter="url(#Path_278)">
      <path id="Path_278-2" data-name="Path 278" d="M0,0H144a10,10,0,0,1,10,10V65a10,10,0,0,1-10,10H0A10,10,0,0,1-10,65V10A10,10,0,0,1,0,0Z" transform="translate(210.13 387.3)" fill="#fff"/>
    </g>
    <g transform="matrix(1, 0, 0, 1, 0, 0)" filter="url(#Path_280)">
      <path id="Path_280-2" data-name="Path 280" d="M0,0H144a10,10,0,0,1,10,10V65a10,10,0,0,1-10,10H0A10,10,0,0,1-10,65V10A10,10,0,0,1,0,0Z" transform="translate(210.13 472.68)" fill="#fff"/>
    </g>
    <g transform="matrix(1, 0, 0, 1, 0, 0)" filter="url(#Path_277)">
      <path id="Path_277-2" data-name="Path 277" d="M10,0H154a10,10,0,0,1,10,10V65a10,10,0,0,1-10,10H10A10,10,0,0,1,0,65V10A10,10,0,0,1,10,0Z" transform="translate(14 387.3)" fill="#fff"/>
    </g>
    <g transform="matrix(1, 0, 0, 1, 0, 0)" filter="url(#Path_279)">
      <path id="Path_279-2" data-name="Path 279" d="M10,0H154a10,10,0,0,1,10,10V65a10,10,0,0,1-10,10H10A10,10,0,0,1,0,65V10A10,10,0,0,1,10,0Z" transform="translate(14 472.68)" fill="#fff"/>
    </g>
    <text id="Rice_Husk" data-name="Rice Husk" transform="translate(112 420)" fill="#757575" font-size="12" font-family="Roboto-Bold, Roboto" font-weight="700"><tspan x="-27.173" y="0">Rice Husk</tspan></text>
    <text id="Phone_no" data-name="Phone no" transform="translate(283 424)" fill="#757575" font-size="12" font-family="Roboto-Bold, Roboto" font-weight="700"><tspan x="-25.471" y="0">Phone no</tspan></text>
    <text id="Price_per_km" data-name="Price per km" transform="translate(120 504)" fill="#757575" font-size="12" font-family="Roboto-Bold, Roboto" font-weight="700"><tspan x="-34.219" y="0">Price per km</tspan></text>
    <text id="Location" transform="translate(258 499)" fill="#757575" font-size="12" font-family="Roboto-Bold, Roboto" font-weight="700"><tspan x="0" y="0">Location</tspan></text>
    <text id="_919665468876" data-name="+919665468876" transform="translate(306 441)" fill="#757575" font-size="12" font-family="Roboto-Regular, Roboto" opacity="0.453"><tspan x="-43.831" y="0">+919665468876</tspan></text>
    <text id="Hyd-500038_Srinivas_Nagar" data-name="Hyd-500038 
Srinivas Nagar" transform="translate(262 516)" fill="#757575" font-size="12" font-family="Roboto-Regular, Roboto" opacity="0.453"><tspan x="0" y="0">Hyd-500038 </tspan><tspan x="0" y="14">Srinivas Nagar</tspan></text>
    <text id="Rs_4_986" data-name="Rs 4,986" transform="translate(108 437)" fill="#757575" font-size="12" font-family="Roboto-Regular, Roboto" opacity="0.453"><tspan x="-22.928" y="0">Rs 4,986</tspan></text>
    <text id="Rs_100" data-name="Rs 100" transform="translate(103 521)" fill="#757575" font-size="12" font-family="Roboto-Regular, Roboto" opacity="0.453"><tspan x="-18.381" y="0">Rs 100</tspan></text>
    <rect id="Rectangle_125" data-name="Rectangle 125" width="8.974" height="8.974" transform="translate(252.831 728.182)" fill="#8462fd"/>
    <rect id="Rectangle_126" data-name="Rectangle 126" width="8.974" height="8.974" transform="translate(252.831 749.182)" fill="#f08d2a"/>
    <text id="Clicks_last_days_15_620" data-name="Clicks last days 15,620" transform="translate(312.37 736.182)" fill="#757575" font-size="8" font-family="Roboto-Regular, Roboto"><tspan x="-40.588" y="0">Clicks last days 15,620</tspan></text>
    <text id="Views_last_days_20_620" data-name="Views last days 20,620" transform="translate(312.37 756.182)" fill="#757575" font-size="8" font-family="Roboto-Regular, Roboto"><tspan x="-40.563" y="0">Views last days 20,620</tspan></text>
    <g id="Group_168" data-name="Group 168" transform="translate(24.49 638.161)">
      <path id="Path_264" data-name="Path 264" d="M1458.7,212.379V329.346H1642.3" transform="translate(-1443.509 -208.521)" fill="none" stroke="#707070" stroke-width="1"/>
      <text id="_0" data-name="0" transform="translate(11.694 118.346)" fill="#757575" font-size="1" font-family="Roboto-Bold, Roboto" font-weight="700"><tspan x="-0.287" y="0">0</tspan></text>
      <text id="_5-2-19" data-name="5-2-19" transform="translate(31.234 128.913)" fill="#757575" font-size="5" font-family="Roboto-Regular, Roboto" opacity="0.468"><tspan x="-6.995" y="0">5-2-19</tspan></text>
      <text id="_25-2-19" data-name="25-2-19" transform="translate(107.13 128.913)" fill="#757575" font-size="5" font-family="Roboto-Regular, Roboto" opacity="0.468"><tspan x="-8.398" y="0">25-2-19</tspan></text>
      <text id="_10-2-19" data-name="10-2-19" transform="translate(49.046 128.913)" fill="#757575" font-size="5" font-family="Roboto-Regular, Roboto" opacity="0.468"><tspan x="-8.398" y="0">10-2-19</tspan></text>
      <path id="Path_275" data-name="Path 275" d="M1478.93,347.663s12.052-19.219,28.9-6.826,23.742-2.242,23.742-2.242,2.426-14.908,24.547-11.159,16.767-12.571,21.645-27.1,14.306-18.5,40.187-20.247,29.408-36.461,29.408-36.461" transform="translate(-1462.965 -228.42)" fill="none" stroke="#9060fd" stroke-width="1"/>
      <path id="Path_276" data-name="Path 276" d="M1478.4,347.895s12.052-19.219,28.9-6.826,23.742-2.243,23.742-2.243,2.426-14.908,24.547-11.159,16.767-12.571,21.645-27.1,14.306-18.5,40.187-20.247,28.985-35.589,28.985-35.589V350.056l-170-1.081Z" transform="translate(-1462.436 -228.652)" fill="#606cfd" opacity="0.244"/>
      <text id="_5-2-19-2" data-name="5-2-19" transform="translate(126.492 128.913)" fill="#757575" font-size="5" font-family="Roboto-Regular, Roboto" opacity="0.468"><tspan x="-6.995" y="0">5-2-19</tspan></text>
      <text id="_15-2-19" data-name="15-2-19" transform="translate(68.408 128.913)" fill="#757575" font-size="5" font-family="Roboto-Regular, Roboto" opacity="0.468"><tspan x="-8.398" y="0">15-2-19</tspan></text>
      <text id="_5-2-19-3" data-name="5-2-19" transform="translate(145.853 128.913)" fill="#757575" font-size="5" font-family="Roboto-Regular, Roboto" opacity="0.468"><tspan x="-6.995" y="0">5-2-19</tspan></text>
      <text id="_20-2-19" data-name="20-2-19" transform="translate(87.769 128.913)" fill="#757575" font-size="5" font-family="Roboto-Regular, Roboto" opacity="0.468"><tspan x="-8.398" y="0">20-2-19</tspan></text>
      <text id="_5-2-19-4" data-name="5-2-19" transform="translate(165.215 128.913)" fill="#757575" font-size="5" font-family="Roboto-Regular, Roboto" opacity="0.468"><tspan x="-6.995" y="0">5-2-19</tspan></text>
      <text id="_5-2-19-5" data-name="5-2-19" transform="translate(184.576 128.913)" fill="#757575" font-size="5" font-family="Roboto-Regular, Roboto" opacity="0.468"><tspan x="-6.995" y="0">5-2-19</tspan></text>
      <line id="Line_31" data-name="Line 31" y2="6.196" transform="translate(32.074 117.023)" fill="none" stroke="#707070" stroke-width="1"/>
      <line id="Line_50" data-name="Line 50" y2="6.196" transform="translate(108.745 117.023)" fill="none" stroke="#707070" stroke-width="1"/>
      <line id="Line_32" data-name="Line 32" y2="6.196" transform="translate(51.435 117.023)" fill="none" stroke="#707070" stroke-width="1"/>
      <line id="Line_49" data-name="Line 49" y2="6.196" transform="translate(128.374 117.283)" fill="none" stroke="#707070" stroke-width="1"/>
      <line id="Line_45" data-name="Line 45" y2="6.196" transform="translate(70.797 117.023)" fill="none" stroke="#707070" stroke-width="1"/>
      <line id="Line_48" data-name="Line 48" y2="6.196" transform="translate(147.468 117.023)" fill="none" stroke="#707070" stroke-width="1"/>
      <line id="Line_46" data-name="Line 46" y2="6.196" transform="translate(90.158 117.023)" fill="none" stroke="#707070" stroke-width="1"/>
      <line id="Line_47" data-name="Line 47" y2="6.196" transform="translate(166.829 117.023)" fill="none" stroke="#707070" stroke-width="1"/>
      <line id="Line_35" data-name="Line 35" y2="7.745" transform="translate(184.642 117.023)" fill="none" stroke="#707070" stroke-width="1"/>
      <line id="Line_36" data-name="Line 36" x2="4.647" transform="translate(12.713 107.729)" fill="none" stroke="#707070" stroke-width="1"/>
      <line id="Line_41" data-name="Line 41" x2="4.647" transform="translate(12.713 72.879)" fill="none" stroke="#707070" stroke-width="1"/>
      <line id="Line_44" data-name="Line 44" x2="4.647" transform="translate(12.713 38.028)" fill="none" stroke="#707070" stroke-width="1"/>
      <line id="Line_37" data-name="Line 37" x2="4.647" transform="translate(12.713 96.112)" fill="none" stroke="#707070" stroke-width="1"/>
      <line id="Line_40" data-name="Line 40" x2="4.647" transform="translate(12.713 61.262)" fill="none" stroke="#707070" stroke-width="1"/>
      <line id="Line_43" data-name="Line 43" x2="4.647" transform="translate(12.713 26.411)" fill="none" stroke="#707070" stroke-width="1"/>
      <line id="Line_38" data-name="Line 38" x2="4.647" transform="translate(12.713 84.495)" fill="none" stroke="#707070" stroke-width="1"/>
      <line id="Line_39" data-name="Line 39" x2="4.647" transform="translate(12.713 49.645)" fill="none" stroke="#707070" stroke-width="1"/>
      <line id="Line_42" data-name="Line 42" x2="4.647" transform="translate(12.713 14.794)" fill="none" stroke="#707070" stroke-width="1"/>
      <text id="_1000" data-name="1000" transform="translate(6 5)" fill="#757575" font-size="5" font-family="Roboto-Regular, Roboto" opacity="0.468"><tspan x="-5.615" y="0">1000</tspan></text>
      <text id="_100" data-name="100" transform="translate(7.565 107.228)" fill="#757575" font-size="5" font-family="Roboto-Regular, Roboto" opacity="0.468"><tspan x="-4.211" y="0">100</tspan></text>
      <text id="_300" data-name="300" transform="translate(7.565 83.995)" fill="#757575" font-size="5" font-family="Roboto-Regular, Roboto" opacity="0.468"><tspan x="-4.211" y="0">300</tspan></text>
      <text id="_200" data-name="200" transform="translate(7.565 95.611)" fill="#757575" font-size="5" font-family="Roboto-Regular, Roboto" opacity="0.468"><tspan x="-4.211" y="0">200</tspan></text>
      <text id="_400" data-name="400" transform="translate(7.565 72.378)" fill="#757575" font-size="5" font-family="Roboto-Regular, Roboto" opacity="0.468"><tspan x="-4.211" y="0">400</tspan></text>
      <text id="_500" data-name="500" transform="translate(7.565 60.761)" fill="#757575" font-size="5" font-family="Roboto-Regular, Roboto" opacity="0.468"><tspan x="-4.211" y="0">500</tspan></text>
      <text id="_600" data-name="600" transform="translate(7.565 49.144)" fill="#757575" font-size="5" font-family="Roboto-Regular, Roboto" opacity="0.468"><tspan x="-4.211" y="0">600</tspan></text>
      <text id="_700" data-name="700" transform="translate(7.565 37.527)" fill="#757575" font-size="5" font-family="Roboto-Regular, Roboto" opacity="0.468"><tspan x="-4.211" y="0">700</tspan></text>
      <text id="_800" data-name="800" transform="translate(7.565 25.91)" fill="#757575" font-size="5" font-family="Roboto-Regular, Roboto" opacity="0.468"><tspan x="-4.211" y="0">800</tspan></text>
      <text id="_900" data-name="900" transform="translate(7.565 14.293)" fill="#757575" font-size="5" font-family="Roboto-Regular, Roboto" opacity="0.468"><tspan x="-4.211" y="0">900</tspan></text>
      <path id="Path_273" data-name="Path 273" d="M1478.735,354.386s14.351-10,29.868-9.976,23.629,3.371,30.4-8.716,17.281-14.113,31.829-11.979,31.259,3.938,36.905-21.618,30.448-26.1,38.472-23.8h0l-.812,1.585.812,75.655H1478.735" transform="translate(-1462.134 -234.716)" fill="#f08d2a" opacity="0.152"/>
      <g transform="matrix(1, 0, 0, 1, -24.49, -638.16)" filter="url(#Path_274)">
        <path id="Path_274-2" data-name="Path 274" d="M1478.735,355.255s14.577-10.108,30.339-10.084,24,3.408,30.88-8.811,17.554-14.267,32.331-12.109,31.752,3.98,37.487-21.854,28.626-26.253,36.777-23.919" transform="translate(-1438.43 403.41)" fill="none" stroke="#f08d2a" stroke-linecap="round" stroke-width="1"/>
      </g>
      <circle id="Ellipse_35" data-name="Ellipse 35" cx="3.162" cy="3.162" r="3.162" transform="translate(87.155 86.636)" fill="#f08d2a" opacity="0.318"/>
      <circle id="Ellipse_36" data-name="Ellipse 36" cx="2.371" cy="2.371" r="2.371" transform="translate(87.945 87.426)" fill="#f08d2a" opacity="0.494"/>
      <g id="Group_167" data-name="Group 167" transform="translate(15.625 15.106)">
        <line id="Line_51" data-name="Line 51" x2="169.142" transform="translate(0 92.475)" fill="none" stroke="#707070" stroke-width="0.5" opacity="0.14"/>
        <line id="Line_56" data-name="Line 56" x2="169.142" transform="translate(0 57.698)" fill="none" stroke="#707070" stroke-width="0.5" opacity="0.14"/>
        <line id="Line_59" data-name="Line 59" x2="169.142" transform="translate(0 22.921)" fill="none" stroke="#707070" stroke-width="0.5" opacity="0.14"/>
        <line id="Line_52" data-name="Line 52" x2="169.142" transform="translate(0 81.41)" fill="none" stroke="#707070" stroke-width="0.5" opacity="0.14"/>
        <line id="Line_55" data-name="Line 55" x2="169.142" transform="translate(0 46.633)" fill="none" stroke="#707070" stroke-width="0.5" opacity="0.14"/>
        <line id="Line_58" data-name="Line 58" x2="169.142" transform="translate(0 11.856)" fill="none" stroke="#707070" stroke-width="0.5" opacity="0.14"/>
        <line id="Line_53" data-name="Line 53" x2="169.142" transform="translate(0 69.554)" fill="none" stroke="#707070" stroke-width="0.5" opacity="0.14"/>
        <line id="Line_54" data-name="Line 54" x2="169.142" transform="translate(0 34.777)" fill="none" stroke="#707070" stroke-width="0.5" opacity="0.14"/>
        <line id="Line_57" data-name="Line 57" x2="169.142" transform="translate(0 0)" fill="none" stroke="#707070" stroke-width="0.5" opacity="0.14"/>
      </g>
    </g>
    <text id="_10_days" data-name="10 days" transform="translate(309 604)" fill="#757575" font-size="12" font-family="Roboto-Regular, Roboto"><tspan x="0" y="0">10 days</tspan></text>
    <g id="ic_local_phone_24px" transform="translate(212.94 416.495)" fill="url(#radial-gradient)">
      <path d="M 21.88888931274414 23.5 C 20.96433067321777 23.5 20.02840995788574 23.43927955627441 18.22199058532715 23.13702011108398 L 18.21383094787598 23.13566017150879 L 18.20573043823242 23.13402938842773 L 17.25661087036133 22.94277000427246 L 17.25007057189941 22.94145011901855 L 17.24356079101562 22.93996047973633 C 13.16281986236572 22.00362014770508 9.435640335083008 19.63172912597656 6.748610019683838 16.26119995117188 C 5.404799938201904 14.57557010650635 4.35653018951416 12.69414043426514 3.632889986038208 10.66915988922119 C 2.881160020828247 8.565540313720703 2.5 6.359089851379395 2.5 4.111110210418701 C 2.5 3.222739934921265 3.222739934921265 2.5 4.111110210418701 2.5 L 8 2.5 C 8.888369560241699 2.5 9.611109733581543 3.222739934921265 9.611109733581543 4.111110210418701 C 9.611109733581543 5.417719841003418 9.815710067749023 6.699530124664307 10.21920967102051 7.920939922332764 L 10.22035980224609 7.924389839172363 L 10.22144985198975 7.92786979675293 C 10.40369033813477 8.507749557495117 10.24995040893555 9.134929656982422 9.820219993591309 9.56466007232666 L 7.635606288909912 11.7492733001709 C 9.128582000732422 14.52286338806152 11.45798110961914 16.8519172668457 14.25142765045166 18.36370086669922 L 16.43534088134766 16.17977905273438 C 16.73469924926758 15.88041973114014 17.14920043945312 15.70872974395752 17.57255935668945 15.70872974395752 C 17.74668312072754 15.70872974395752 17.9178638458252 15.73697090148926 18.0814323425293 15.79269313812256 C 19.3021125793457 16.19565582275391 20.58316802978516 16.39999961853027 21.88888931274414 16.39999961853027 C 22.77725982666016 16.39999961853027 23.5 17.12273979187012 23.5 18.01111030578613 L 23.5 21.88888931274414 C 23.5 22.77725982666016 22.77725982666016 23.5 21.88888931274414 23.5 Z" stroke="none"/>
      <path d="M 4.111110687255859 3 C 3.5 3 3 3.5 3 4.111110687255859 C 3 13.08378028869629 9.253730773925781 20.59367942810059 17.35538101196289 22.4526195526123 L 18.30450057983398 22.64386940002441 C 20.02077102661133 22.93104934692383 20.94676971435547 23 21.88888931274414 23 C 22.5 23 23 22.5 23 21.88888931274414 L 23 18.01111030578613 C 23 17.39999961853027 22.5 16.89999961853027 21.88888931274414 16.89999961853027 C 20.51111030578613 16.89999961853027 19.16666984558105 16.67778015136719 17.92222023010254 16.26667022705078 C 17.80873870849609 16.22776031494141 17.69053268432617 16.20872116088867 17.57255935668945 16.20872116088867 C 17.28625297546387 16.20872116088867 17.00134658813477 16.32087326049805 16.78889083862305 16.53332901000977 L 14.34444999694824 18.97777938842773 C 11.19999980926514 17.36666870117188 8.622219085693359 14.80000019073486 7.022220611572266 11.65555953979492 L 9.466669082641602 9.211109161376953 C 9.777780532836914 8.899999618530273 9.866670608520508 8.466669082641602 9.744449615478516 8.077779769897461 C 9.333330154418945 6.833330154418945 9.111110687255859 5.5 9.111110687255859 4.111110687255859 C 9.111110687255859 3.5 8.611110687255859 3 8 3 L 4.111110687255859 3 M 4.111110687255859 2 L 8 2 C 9.164070129394531 2 10.11110973358154 2.947040557861328 10.11110973358154 4.111110687255859 C 10.11110973358154 5.364330291748047 10.30720996856689 6.59337043762207 10.69398021697998 7.764089584350586 L 10.69626045227051 7.77100944519043 L 10.69845008850098 7.777959823608398 C 10.93673992156982 8.536190032958984 10.73569965362549 9.356290817260742 10.17378044128418 9.918220520019531 L 8.255495071411133 11.83650493621826 C 9.645484924316406 14.27525234222412 11.70895957946777 16.33780288696289 14.16475296020508 17.74325561523438 L 16.08177947998047 15.82621955871582 C 16.47422027587891 15.43379020690918 17.01758003234863 15.20872020721436 17.57255935668945 15.20872020721436 C 17.80069351196289 15.20872020721436 18.02519226074219 15.24564647674561 18.23995590209961 15.31847858428955 C 19.40946197509766 15.70434856414795 20.63712310791016 15.89999961853027 21.88888931274414 15.89999961853027 C 23.05295944213867 15.89999961853027 24 16.8470401763916 24 18.01111030578613 L 24 21.88888931274414 C 24 23.05295944213867 23.05295944213867 24 21.88888931274414 24 C 20.93867111206055 24 19.97999954223633 23.93812942504883 18.13946914672852 23.63015937805176 L 18.1231689453125 23.6274299621582 L 18.10696983337402 23.62417030334473 L 17.15785026550293 23.43292045593262 L 17.14476013183594 23.4302806854248 L 17.13174057006836 23.42728996276855 C 12.94120979309082 22.46577072143555 9.114889144897461 20.03149032592773 6.357639312744141 16.57287979125977 C 4.979419708251953 14.84407997131348 3.904270172119141 12.91438961029053 3.162050247192383 10.83740997314453 C 2.390970230102539 8.679649353027344 2 6.416589736938477 2 4.111110687255859 C 2 2.947040557861328 2.947040557861328 2 4.111110687255859 2 Z" stroke="none"/>
    </g>
    <g id="Group_171" data-name="Group 171" transform="translate(31.689 410.858)">
      <g id="Group_169" data-name="Group 169" transform="translate(1.094 14.841)">
        <path id="Path_281" data-name="Path 281" d="M95.766,300.888a4.462,4.462,0,0,0,2.169,3.584,4.046,4.046,0,0,0,0-7.168A4.462,4.462,0,0,0,95.766,300.888Z" transform="translate(-92.654 -294.122)" fill="#feda9b"/>
        <path id="Path_282" data-name="Path 282" d="M45.545,245.917a4.462,4.462,0,0,0-1,4.068,4.046,4.046,0,0,0,5.069-5.069A4.462,4.462,0,0,0,45.545,245.917Z" transform="translate(-44.438 -244.81)" fill="#feda9b"/>
      </g>
      <g id="Group_170" data-name="Group 170" transform="translate(1.094 9.959)">
        <path id="Path_283" data-name="Path 283" d="M135.715,245.917a4.462,4.462,0,0,1,1,4.068,4.046,4.046,0,0,1-5.069-5.069A4.462,4.462,0,0,1,135.715,245.917Z" transform="translate(-126.261 -239.928)" fill="#ffc66c"/>
        <path id="Path_284" data-name="Path 284" d="M45.545,165.393a4.462,4.462,0,0,0-1,4.068,4.046,4.046,0,0,0,5.069-5.069A4.462,4.462,0,0,0,45.545,165.393Z" transform="translate(-44.438 -164.286)" fill="#ffc66c"/>
      </g>
      <path id="Path_285" data-name="Path 285" d="M38.792,92.3a4.462,4.462,0,0,0-2.4,3.434,4.462,4.462,0,0,0,4.155.532,4.462,4.462,0,0,0,2.4-3.434A4.462,4.462,0,0,0,38.792,92.3Z" transform="translate(-35.787 -86.42)" fill="#feda9b"/>
      <path id="Path_286" data-name="Path 286" d="M74.481,23.958a4.462,4.462,0,0,0-3.9,1.527,4.046,4.046,0,0,0,7.064,1.22A4.462,4.462,0,0,0,74.481,23.958Z" transform="translate(-67.901 -22.457)" fill="#ffc66c"/>
      <path id="Path_287" data-name="Path 287" d="M135.715,165.393a4.462,4.462,0,0,1,1,4.068,4.046,4.046,0,0,1-5.069-5.069A4.462,4.462,0,0,1,135.715,165.393Z" transform="translate(-125.167 -154.327)" fill="#feda9b"/>
      <path id="Path_288" data-name="Path 288" d="M155.964,98.988a4.041,4.041,0,0,1,.906,3.684,3.664,3.664,0,0,1-4.591-4.591A4.041,4.041,0,0,1,155.964,98.988Z" transform="translate(-144.559 -92.045)" fill="#ffc66c"/>
      <path id="Path_289" data-name="Path 289" d="M165.735,70.527a4.041,4.041,0,0,0-3.684-.906l-1.719,1.515.191.132a3.818,3.818,0,0,1,3.095.984,3.406,3.406,0,0,1,.922,1.8l.272.188a5.178,5.178,0,0,0,1.829-.027A4.041,4.041,0,0,0,165.735,70.527Z" transform="translate(-152.212 -65.31)" fill="#feda9b"/>
      <path id="Path_290" data-name="Path 290" d="M335.228,258.765a15.534,15.534,0,0,1-6.643,6.356,16.412,16.412,0,0,1,8.826-15.287A15.533,15.533,0,0,1,335.228,258.765Z" transform="translate(-310.224 -234.689)" fill="#a0e557"/>
      <path id="Path_291" data-name="Path 291" d="M337.815,98.946q.171-.544.322-1.106a21.977,21.977,0,0,0,.323-10.922,21.978,21.978,0,0,0-5.181,9.621,22.438,22.438,0,0,0-.469,10.3Z" transform="translate(-313.862 -81.649)" fill="#d8fb93"/>
      <path id="Path_292" data-name="Path 292" d="M250.6,293.39a11.3,11.3,0,0,0,3.58,6.055,11.834,11.834,0,0,0-3.092-13.072A11.3,11.3,0,0,0,250.6,293.39Z" transform="translate(-236.693 -269.012)" fill="#a0e557"/>
      <path id="Path_293" data-name="Path 293" d="M306,17.312a13.638,13.638,0,0,0,1.972,7.312,13.637,13.637,0,0,0,1.972-7.312A13.637,13.637,0,0,0,307.971,10,13.638,13.638,0,0,0,306,17.312Z" transform="translate(-289.049 -9.394)" fill="#d8fb93"/>
      <path id="Path_294" data-name="Path 294" d="M84.435,492a.607.607,0,1,0,.429.178A.611.611,0,0,0,84.435,492Z" transform="translate(-80.347 -462.174)"/>
      <path id="Path_295" data-name="Path 295" d="M429.534,387.236a.606.606,0,0,0-.828.221l-.015.026a.606.606,0,1,0,1.05.607l.015-.026A.606.606,0,0,0,429.534,387.236Z" transform="translate(-404.226 -363.684)"/>
      <path id="Path_296" data-name="Path 296" d="M54.184,15.094a.606.606,0,0,0-.861-.5,13.573,13.573,0,0,0-1.9,1.092,22.276,22.276,0,0,0,.157-10.571.606.606,0,0,0-1.02-.273,18.718,18.718,0,0,0-2.671,3.508c0-.144.006-.289.006-.434A14.244,14.244,0,0,0,45.824.278a.606.606,0,0,0-1.019,0,13.08,13.08,0,0,0-1.78,4.589,6.568,6.568,0,0,0-6.484-1.216l-.024,0A4.9,4.9,0,0,0,33.075.9a5.029,5.029,0,0,0-4.437,1.7.606.606,0,0,0-.117.68,6.328,6.328,0,0,0,1.247,1.828,4.14,4.14,0,0,0-.616.216A5.029,5.029,0,0,0,26.4,9.2a.606.606,0,0,0,.279.631,6.628,6.628,0,0,0,1.577.712q-.048.045-.1.092A5.029,5.029,0,0,0,27,15.243a.606.606,0,0,0,.488.488c.145.026.287.048.429.065A5.156,5.156,0,0,0,27,20.124a.606.606,0,0,0,.488.488,6.933,6.933,0,0,0,1.244.117,5.46,5.46,0,0,0,1.4-.176,4.149,4.149,0,0,0-.137,1.055,5.029,5.029,0,0,0,2.43,4.083.606.606,0,0,0,.69,0,5.029,5.029,0,0,0,2.43-4.083,4.148,4.148,0,0,0-.137-1.055,5.46,5.46,0,0,0,1.4.176,6.94,6.94,0,0,0,1.244-.117.606.606,0,0,0,.488-.488,5.157,5.157,0,0,0-.917-4.329c.141-.017.284-.039.429-.065a.606.606,0,0,0,.488-.488,5.361,5.361,0,0,0-.615-3.919,6.491,6.491,0,0,0,.891-.1.606.606,0,0,0,.488-.488,6.333,6.333,0,0,0,.106-1.147c.129.009.26.015.393.015A6.306,6.306,0,0,0,40.93,9.5a.606.606,0,0,0,.488-.488,4.61,4.61,0,0,0-1.074-4.222l-.085-.083A5.374,5.374,0,0,1,44.1,9.851V20.8a11.258,11.258,0,0,0-2.925-3.9.606.606,0,0,0-.947.224,11.9,11.9,0,0,0-.522,7.4A12.32,12.32,0,0,0,42.4,29.826h-9.63a.606.606,0,0,0,0,1.212h19.4a.606.606,0,1,0,0-1.212H47a16.255,16.255,0,0,0,3.437-3.259.606.606,0,0,0-.951-.753,14.557,14.557,0,0,1-4.172,3.645v-.04a14.013,14.013,0,0,1,.6-4.03q.009-.025.015-.05A16.65,16.65,0,0,1,47.461,21.8a16.278,16.278,0,0,1,3.252-4.027.6.6,0,0,0,.062-.054,13.474,13.474,0,0,1,2.243-1.606,14.567,14.567,0,0,1-1.086,5.476.606.606,0,0,0,1.126.45A15.374,15.374,0,0,0,54.184,15.094Zm-18.53-.613-.056-.017a3.061,3.061,0,0,1-1.3-.759,3.684,3.684,0,0,1-.9-3.105,3.685,3.685,0,0,1,3.105.9,3.684,3.684,0,0,1,.9,3.105A4.565,4.565,0,0,1,35.654,14.481Zm-2.26-5.1a5.33,5.33,0,0,1,.186-1.006,4.116,4.116,0,0,0,.4.977Q33.693,9.354,33.393,9.382ZM32.869,2.1a3.685,3.685,0,0,1,2.522,2.021,3.685,3.685,0,0,1-3.054,1.058,3.685,3.685,0,0,1-2.522-2.021A3.684,3.684,0,0,1,32.869,2.1ZM27.689,9.01a3.684,3.684,0,0,1,1.954-2.574,3.685,3.685,0,0,1,3.22.283,3.684,3.684,0,0,1-1.954,2.574,2.9,2.9,0,0,1-.521.173l-.077.016A3.983,3.983,0,0,1,27.689,9.01Zm1.333,2.485a3.127,3.127,0,0,1,1.532-.823l.03-.007a4.71,4.71,0,0,1,1.543-.066,3.684,3.684,0,0,1-.9,3.105,3.062,3.062,0,0,1-1.294.758l-.059.018a4.564,4.564,0,0,1-1.753.119A3.684,3.684,0,0,1,29.021,11.495Zm-.9,7.987a3.684,3.684,0,0,1,.9-3.105,3.071,3.071,0,0,1,1.33-.77l.019-.006a4.563,4.563,0,0,1,1.757-.12A3.855,3.855,0,0,1,31.48,18.3q-.188.187-.353.382A3.745,3.745,0,0,1,28.126,19.482Zm6.2,2.126a3.685,3.685,0,0,1-1.563,2.829A3.684,3.684,0,0,1,31.2,21.607a3.294,3.294,0,0,1,.817-2.1c.022-.021.046-.042.068-.064a4.145,4.145,0,0,0,.294-.327c.12-.116.247-.229.384-.338.137.109.264.222.384.338a4.142,4.142,0,0,0,.294.327c.022.022.045.043.068.064A3.294,3.294,0,0,1,34.329,21.607Zm3.078-2.126a3.743,3.743,0,0,1-3-.8q-.165-.2-.353-.382a3.856,3.856,0,0,1-.647-2.821,4.562,4.562,0,0,1,1.754.119l.027.008a3.07,3.07,0,0,1,1.325.768A3.684,3.684,0,0,1,37.407,19.482Zm.762-9.39a3.262,3.262,0,0,1-2.72-.8,3.263,3.263,0,0,1-.8-2.72,3.263,3.263,0,0,1,2.72.8h0A3.263,3.263,0,0,1,38.169,10.091Zm2.117-1.725a4.4,4.4,0,0,1-1.028-.01,3.95,3.95,0,0,0-1.031-1.842,4.079,4.079,0,0,0-2.438-1.142,5.354,5.354,0,0,1,1.031-.531,3.241,3.241,0,0,1,2.666.8A3.263,3.263,0,0,1,40.286,8.366ZM44.065,6a.609.609,0,0,0,.015-.074,12.825,12.825,0,0,1,1.235-4.1A13.553,13.553,0,0,1,46.68,7.918a14.452,14.452,0,0,1-.6,4.164q-.219.57-.414,1.158-.165.4-.355.771V9.851A6.541,6.541,0,0,0,44.065,6ZM41.038,18.419a11.413,11.413,0,0,1,2.591,10.954,10.957,10.957,0,0,1-2.74-5.135A10.957,10.957,0,0,1,41.038,18.419ZM46.411,21.2q-.444.768-.8,1.563a23.426,23.426,0,0,1,.788-7.714q.189-.706.415-1.39.234-.57.42-1.176a20.834,20.834,0,0,1,3.419-5.934,22.2,22.2,0,0,1-.567,9.489c-.083.309-.173.618-.267.923A17.525,17.525,0,0,0,46.411,21.2Z" transform="translate(-26.392 0)"/>
    </g>
    <g id="Group_259" data-name="Group 259" transform="translate(217.388 498.425)">
      <g id="Group_258" data-name="Group 258" transform="translate(1.499)">
        <path id="ic_place_24px" d="M12,2A7,7,0,0,0,5,9c0,5.25,7,13,7,13s7-7.75,7-13A7,7,0,0,0,12,2Zm0,9.5A2.5,2.5,0,1,1,14.5,9,2.5,2.5,0,0,1,12,11.5Z" transform="translate(-5 -2)" fill="#46a3ff" stroke="#000" stroke-width="1"/>
        <line id="Line_60" data-name="Line 60" x2="11" transform="matrix(1, -0.017, 0.017, 1, 2.5, 20.561)" fill="none" stroke="#000" stroke-linecap="round" stroke-width="1"/>
      </g>
      <line id="Line_61" data-name="Line 61" x2="2" transform="matrix(1, -0.017, 0.017, 1, 0, 20.631)" fill="none" stroke="#000" stroke-linecap="round" stroke-width="1"/>
    </g>
    <g id="Group_172" data-name="Group 172" transform="translate(26.45 497.887)">
      <path id="Path_297" data-name="Path 297" d="M293.983,217.145h6.329a23.133,23.133,0,0,0-45.9.246h6.043" transform="translate(-254.409 -197.024)" fill="#fff" stroke="#1a1818" stroke-miterlimit="10" stroke-width="0.8"/>
      <path id="Path_298" data-name="Path 298" d="M313.016,234.117c-1.5-7-8.477-14.788-16.963-14.788s-15.741,7.98-16.662,15.034" transform="translate(-273.251 -213.848)" fill="#fff" stroke="#1a1818" stroke-miterlimit="10" stroke-width="0.8"/>
      <path id="Path_299" data-name="Path 299" d="M343.463,225.812l.948-15.2.5,15.156Z" transform="translate(-321.58 -207.269)" fill="#1a1818" stroke="#1a1818" stroke-miterlimit="10" stroke-width="0.8"/>
      <path id="Path_300" data-name="Path 300" d="M387.05,220.129l4.231-4.315s8.424,5.262,9.078,15.5l-6.138.148S392.5,224.379,387.05,220.129Z" transform="translate(-354.456 -211.197)" fill="#db4141" opacity="0.3"/>
      <circle id="Ellipse_38" data-name="Ellipse 38" cx="1.026" cy="1.026" r="1.026" transform="translate(21.607 18.217)" fill="#1a1818" stroke="#707070" stroke-width="0.8"/>
      <circle id="Ellipse_39" data-name="Ellipse 39" cx="0.725" cy="0.725" r="0.725" transform="translate(21.907 18.518)" fill="#fff" stroke="#707070" stroke-width="0.8"/>
      <path id="Path_301" data-name="Path 301" d="M346.513,273.385" transform="translate(-323.88 -254.621)" fill="#fff" stroke="#707070" stroke-width="0.8"/>
      <line id="Line_62" data-name="Line 62" x2="1.277" y2="0.124" transform="translate(0.888 16.313)" fill="#1a1818" stroke="#1a1818" stroke-linecap="round" stroke-miterlimit="10" stroke-width="0.8"/>
      <line id="Line_63" data-name="Line 63" x2="1.242" y2="0.323" transform="translate(2.204 13.373)" fill="#1a1818" stroke="#1a1818" stroke-linecap="round" stroke-miterlimit="10" stroke-width="0.8"/>
      <line id="Line_64" data-name="Line 64" x2="1.163" y2="0.544" transform="translate(4.182 10.172)" fill="#1a1818" stroke="#1a1818" stroke-linecap="round" stroke-miterlimit="10" stroke-width="0.8"/>
      <line id="Line_65" data-name="Line 65" x2="1.009" y2="0.793" transform="translate(6.22 7.394)" fill="#1a1818" stroke="#1a1818" stroke-linecap="round" stroke-miterlimit="10" stroke-width="0.8"/>
      <line id="Line_66" data-name="Line 66" x2="0.828" y2="0.981" transform="translate(8.624 5.285)" fill="#1a1818" stroke="#1a1818" stroke-linecap="round" stroke-miterlimit="10" stroke-width="0.8"/>
      <line id="Line_67" data-name="Line 67" x2="0.809" y2="0.997" transform="translate(11.209 3.289)" fill="#1a1818" stroke="#1a1818" stroke-linecap="round" stroke-miterlimit="10" stroke-width="0.8"/>
      <line id="Line_68" data-name="Line 68" x2="0.412" y2="1.215" transform="translate(14.446 1.792)" fill="#1a1818" stroke="#1a1818" stroke-linecap="round" stroke-miterlimit="10" stroke-width="0.8"/>
      <line id="Line_69" data-name="Line 69" x2="0.22" y2="1.264" transform="translate(17.592 0.68)" fill="#1a1818" stroke="#1a1818" stroke-linecap="round" stroke-miterlimit="10" stroke-width="0.8"/>
      <line id="Line_70" data-name="Line 70" x1="1.272" y2="0.169" transform="translate(43.371 15.501)" fill="#1a1818" stroke="#1a1818" stroke-linecap="round" stroke-miterlimit="10" stroke-width="0.8"/>
      <line id="Line_71" data-name="Line 71" x1="1.23" y2="0.367" transform="translate(41.994 12.609)" fill="#1a1818" stroke="#1a1818" stroke-linecap="round" stroke-miterlimit="10" stroke-width="0.8"/>
      <line id="Line_72" data-name="Line 72" x1="1.143" y2="0.584" transform="translate(39.992 9.48)" fill="#1a1818" stroke="#1a1818" stroke-linecap="round" stroke-miterlimit="10" stroke-width="0.8"/>
      <line id="Line_73" data-name="Line 73" x1="0.981" y2="0.828" transform="translate(38.018 6.777)" fill="#1a1818" stroke="#1a1818" stroke-linecap="round" stroke-miterlimit="10" stroke-width="0.8"/>
      <line id="Line_74" data-name="Line 74" x1="0.792" y2="1.009" transform="translate(35.729 4.754)" fill="#1a1818" stroke="#1a1818" stroke-linecap="round" stroke-miterlimit="10" stroke-width="0.8"/>
      <line id="Line_75" data-name="Line 75" x1="0.773" y2="1.025" transform="translate(33.095 2.85)" fill="#1a1818" stroke="#1a1818" stroke-linecap="round" stroke-miterlimit="10" stroke-width="0.8"/>
      <line id="Line_76" data-name="Line 76" x1="0.369" y2="1.229" transform="translate(30.212 1.469)" fill="#1a1818" stroke="#1a1818" stroke-linecap="round" stroke-miterlimit="10" stroke-width="0.8"/>
      <line id="Line_77" data-name="Line 77" x1="0.175" y2="1.271" transform="translate(27.221 0.469)" fill="#1a1818" stroke="#1a1818" stroke-linecap="round" stroke-miterlimit="10" stroke-width="0.8"/>
      <line id="Line_78" data-name="Line 78" x2="0.122" y2="1.278" transform="translate(22.106)" fill="#1a1818" stroke="#1a1818" stroke-linecap="round" stroke-miterlimit="10" stroke-width="0.8"/>
    </g>
    <path id="ic_notifications_24px" d="M12,22a2.006,2.006,0,0,0,2-2H10A2,2,0,0,0,12,22Zm6-6V11c0-3.07-1.64-5.64-4.5-6.32V4a1.5,1.5,0,0,0-3,0v.68C7.63,5.36,6,7.92,6,11v5L4,18v1H20V18Z" transform="translate(343.13 43.5)" fill="#757575"/>
    <circle id="Ellipse_48" data-name="Ellipse 48" cx="7" cy="7" r="7" transform="translate(355 45)" fill="#f08d2a"/>
    <text id="_3" data-name="3" transform="translate(362 56)" fill="#fff" font-size="12" font-family="Roboto-Regular, Roboto"><tspan x="-3.369" y="0">3</tspan></text>
    <path id="ic_menu_24px" d="M3,20.667H25V18.222H3Zm0-6.111H25V12.111H3ZM3,6V8.444H25V6Z" transform="translate(11 40)" fill="#757575"/>
    <g id="Group_341" data-name="Group 341" transform="translate(52 195.555)">
      <text id="_80-2" data-name="80" transform="translate(8.997 17)" fill="#757575" font-size="18" font-family="Roboto-Regular, Roboto"><tspan x="0" y="0">80</tspan></text>
      <g id="Group_339" data-name="Group 339" transform="translate(0 4.605)">
        <path id="Path_669" data-name="Path 669" d="M274.927,377.376a.243.243,0,0,0-.179-.07h-1.332a2.694,2.694,0,0,0-.5-1.122h1.815a.24.24,0,0,0,.249-.249v-.795a.24.24,0,0,0-.249-.249h-6.482a.24.24,0,0,0-.249.249v1.036a.253.253,0,0,0,.249.249h1.129q1.644,0,2.088.88h-3.218a.241.241,0,0,0-.249.249v.795a.24.24,0,0,0,.249.249h3.327a1.522,1.522,0,0,1-.8.974,3.518,3.518,0,0,1-1.655.335h-.873a.253.253,0,0,0-.249.249v.989a.233.233,0,0,0,.07.171q1.5,1.589,3.88,4.449a.23.23,0,0,0,.195.093h1.519a.225.225,0,0,0,.225-.141.212.212,0,0,0-.031-.265q-2.275-2.789-3.576-4.176a3.95,3.95,0,0,0,2.15-.857,2.914,2.914,0,0,0,1.005-1.823h1.309a.241.241,0,0,0,.249-.249v-.795a.243.243,0,0,0-.07-.179Zm0,0" transform="translate(-268 -374.89)" fill="#757575"/>
      </g>
      <g id="Group_447" data-name="Group 447" transform="translate(0 86.605)">
        <path id="Path_669-2" data-name="Path 669" d="M274.927,377.376a.243.243,0,0,0-.179-.07h-1.332a2.694,2.694,0,0,0-.5-1.122h1.815a.24.24,0,0,0,.249-.249v-.795a.24.24,0,0,0-.249-.249h-6.482a.24.24,0,0,0-.249.249v1.036a.253.253,0,0,0,.249.249h1.129q1.644,0,2.088.88h-3.218a.241.241,0,0,0-.249.249v.795a.24.24,0,0,0,.249.249h3.327a1.522,1.522,0,0,1-.8.974,3.518,3.518,0,0,1-1.655.335h-.873a.253.253,0,0,0-.249.249v.989a.233.233,0,0,0,.07.171q1.5,1.589,3.88,4.449a.23.23,0,0,0,.195.093h1.519a.225.225,0,0,0,.225-.141.212.212,0,0,0-.031-.265q-2.275-2.789-3.576-4.176a3.95,3.95,0,0,0,2.15-.857,2.914,2.914,0,0,0,1.005-1.823h1.309a.241.241,0,0,0,.249-.249v-.795a.243.243,0,0,0-.07-.179Zm0,0" transform="translate(-268 -374.89)" fill="#757575"/>
      </g>
    </g>
    <g id="Group_342" data-name="Group 342" transform="translate(104.948 194.805)">
      <text id="_24-3" data-name="24" transform="translate(8.779 17)" fill="#757575" font-size="18" font-family="Roboto-Regular, Roboto"><tspan x="0" y="0">24</tspan></text>
      <g id="Group_448" data-name="Group 448" transform="translate(0 4.605)">
        <path id="Path_669-3" data-name="Path 669" d="M274.927,377.376a.243.243,0,0,0-.179-.07h-1.332a2.694,2.694,0,0,0-.5-1.122h1.815a.24.24,0,0,0,.249-.249v-.795a.24.24,0,0,0-.249-.249h-6.482a.24.24,0,0,0-.249.249v1.036a.253.253,0,0,0,.249.249h1.129q1.644,0,2.088.88h-3.218a.241.241,0,0,0-.249.249v.795a.24.24,0,0,0,.249.249h3.327a1.522,1.522,0,0,1-.8.974,3.518,3.518,0,0,1-1.655.335h-.873a.253.253,0,0,0-.249.249v.989a.233.233,0,0,0,.07.171q1.5,1.589,3.88,4.449a.23.23,0,0,0,.195.093h1.519a.225.225,0,0,0,.225-.141.212.212,0,0,0-.031-.265q-2.275-2.789-3.576-4.176a3.95,3.95,0,0,0,2.15-.857,2.914,2.914,0,0,0,1.005-1.823h1.309a.241.241,0,0,0,.249-.249v-.795a.243.243,0,0,0-.07-.179Zm0,0" transform="translate(-268 -374.89)" fill="#757575"/>
      </g>
    </g>
    <text id="Live_Bird" data-name="Live Bird" transform="translate(54 224)" fill="#707070" font-size="7" font-family="Roboto-Regular, Roboto"><tspan x="0" y="0">Live Bird</tspan></text>
    <text id="Chick_Bird" data-name="Chick Bird" transform="translate(104 224)" fill="#707070" font-size="7" font-family="Roboto-Regular, Roboto"><tspan x="0" y="0">Chick Bird</tspan></text>
    <g id="Group_449" data-name="Group 449" transform="translate(104.655 285.645)">
      <path id="Path_669-4" data-name="Path 669" d="M274.927,377.376a.243.243,0,0,0-.179-.07h-1.332a2.694,2.694,0,0,0-.5-1.122h1.815a.24.24,0,0,0,.249-.249v-.795a.24.24,0,0,0-.249-.249h-6.482a.24.24,0,0,0-.249.249v1.036a.253.253,0,0,0,.249.249h1.129q1.644,0,2.088.88h-3.218a.241.241,0,0,0-.249.249v.795a.24.24,0,0,0,.249.249h3.327a1.522,1.522,0,0,1-.8.974,3.518,3.518,0,0,1-1.655.335h-.873a.253.253,0,0,0-.249.249v.989a.233.233,0,0,0,.07.171q1.5,1.589,3.88,4.449a.23.23,0,0,0,.195.093h1.519a.225.225,0,0,0,.225-.141.212.212,0,0,0-.031-.265q-2.275-2.789-3.576-4.176a3.95,3.95,0,0,0,2.15-.857,2.914,2.914,0,0,0,1.005-1.823h1.309a.241.241,0,0,0,.249-.249v-.795a.243.243,0,0,0-.07-.179Zm0,0" transform="translate(-268 -374.89)" fill="#757575"/>
    </g>
    <g id="Group_450" data-name="Group 450" transform="translate(233.381 285.645)">
      <path id="Path_669-5" data-name="Path 669" d="M274.927,377.376a.243.243,0,0,0-.179-.07h-1.332a2.694,2.694,0,0,0-.5-1.122h1.815a.24.24,0,0,0,.249-.249v-.795a.24.24,0,0,0-.249-.249h-6.482a.24.24,0,0,0-.249.249v1.036a.253.253,0,0,0,.249.249h1.129q1.644,0,2.088.88h-3.218a.241.241,0,0,0-.249.249v.795a.24.24,0,0,0,.249.249h3.327a1.522,1.522,0,0,1-.8.974,3.518,3.518,0,0,1-1.655.335h-.873a.253.253,0,0,0-.249.249v.989a.233.233,0,0,0,.07.171q1.5,1.589,3.88,4.449a.23.23,0,0,0,.195.093h1.519a.225.225,0,0,0,.225-.141.212.212,0,0,0-.031-.265q-2.275-2.789-3.576-4.176a3.95,3.95,0,0,0,2.15-.857,2.914,2.914,0,0,0,1.005-1.823h1.309a.241.241,0,0,0,.249-.249v-.795a.243.243,0,0,0-.07-.179Zm0,0" transform="translate(-268 -374.89)" fill="#757575"/>
    </g>
    <g id="Group_452" data-name="Group 452" transform="translate(233.381 205.724)">
      <path id="Path_669-6" data-name="Path 669" d="M274.927,377.376a.243.243,0,0,0-.179-.07h-1.332a2.694,2.694,0,0,0-.5-1.122h1.815a.24.24,0,0,0,.249-.249v-.795a.24.24,0,0,0-.249-.249h-6.482a.24.24,0,0,0-.249.249v1.036a.253.253,0,0,0,.249.249h1.129q1.644,0,2.088.88h-3.218a.241.241,0,0,0-.249.249v.795a.24.24,0,0,0,.249.249h3.327a1.522,1.522,0,0,1-.8.974,3.518,3.518,0,0,1-1.655.335h-.873a.253.253,0,0,0-.249.249v.989a.233.233,0,0,0,.07.171q1.5,1.589,3.88,4.449a.23.23,0,0,0,.195.093h1.519a.225.225,0,0,0,.225-.141.212.212,0,0,0-.031-.265q-2.275-2.789-3.576-4.176a3.95,3.95,0,0,0,2.15-.857,2.914,2.914,0,0,0,1.005-1.823h1.309a.241.241,0,0,0,.249-.249v-.795a.243.243,0,0,0-.07-.179Zm0,0" transform="translate(-268 -374.89)" fill="#757575"/>
    </g>
    <g id="Group_453" data-name="Group 453" transform="translate(282.568 205.724)">
      <path id="Path_669-7" data-name="Path 669" d="M274.927,377.376a.243.243,0,0,0-.179-.07h-1.332a2.694,2.694,0,0,0-.5-1.122h1.815a.24.24,0,0,0,.249-.249v-.795a.24.24,0,0,0-.249-.249h-6.482a.24.24,0,0,0-.249.249v1.036a.253.253,0,0,0,.249.249h1.129q1.644,0,2.088.88h-3.218a.241.241,0,0,0-.249.249v.795a.24.24,0,0,0,.249.249h3.327a1.522,1.522,0,0,1-.8.974,3.518,3.518,0,0,1-1.655.335h-.873a.253.253,0,0,0-.249.249v.989a.233.233,0,0,0,.07.171q1.5,1.589,3.88,4.449a.23.23,0,0,0,.195.093h1.519a.225.225,0,0,0,.225-.141.212.212,0,0,0-.031-.265q-2.275-2.789-3.576-4.176a3.95,3.95,0,0,0,2.15-.857,2.914,2.914,0,0,0,1.005-1.823h1.309a.241.241,0,0,0,.249-.249v-.795a.243.243,0,0,0-.07-.179Zm0,0" transform="translate(-268 -374.89)" fill="#757575"/>
    </g>
    <g id="Group_451" data-name="Group 451" transform="translate(282.568 285.645)">
      <path id="Path_669-8" data-name="Path 669" d="M274.927,377.376a.243.243,0,0,0-.179-.07h-1.332a2.694,2.694,0,0,0-.5-1.122h1.815a.24.24,0,0,0,.249-.249v-.795a.24.24,0,0,0-.249-.249h-6.482a.24.24,0,0,0-.249.249v1.036a.253.253,0,0,0,.249.249h1.129q1.644,0,2.088.88h-3.218a.241.241,0,0,0-.249.249v.795a.24.24,0,0,0,.249.249h3.327a1.522,1.522,0,0,1-.8.974,3.518,3.518,0,0,1-1.655.335h-.873a.253.253,0,0,0-.249.249v.989a.233.233,0,0,0,.07.171q1.5,1.589,3.88,4.449a.23.23,0,0,0,.195.093h1.519a.225.225,0,0,0,.225-.141.212.212,0,0,0-.031-.265q-2.275-2.789-3.576-4.176a3.95,3.95,0,0,0,2.15-.857,2.914,2.914,0,0,0,1.005-1.823h1.309a.241.241,0,0,0,.249-.249v-.795a.243.243,0,0,0-.07-.179Zm0,0" transform="translate(-268 -374.89)" fill="#757575"/>
    </g>
    <g transform="matrix(1, 0, 0, 1, 0, 0)" filter="url(#Rectangle_2442)">
      <rect id="Rectangle_2442-2" data-name="Rectangle 2442" width="377" height="72" transform="translate(0 739)" fill="#fff"/>
    </g>
    <g id="Group_1093" data-name="Group 1093" transform="translate(24 753.182)">
      <text id="Home" transform="translate(0 44.445)" fill="#757575" font-size="16" font-family="Roboto-Regular, Roboto"><tspan x="0" y="0">Home</tspan></text>
      <g id="Group_50" data-name="Group 50" transform="translate(8)">
        <g id="Group_49" data-name="Group 49">
          <g id="Group_48" data-name="Group 48" clip-path="url(#clip-path)">
            <path id="Path_135" data-name="Path 135" d="M25.279,9.84,13.167.971a.664.664,0,0,0-.785,0L.269,9.84a.664.664,0,0,0,.784,1.072L12.774,2.33l11.72,8.581a.664.664,0,0,0,.785-1.071Zm0,0" transform="translate(0.002 -0.786)" fill="#757575"/>
          </g>
        </g>
        <path id="Path_136" data-name="Path 136" d="M61.584,154.41a.664.664,0,0,0-.664.664v10.568H55.609v-5.769a3.32,3.32,0,0,0-6.64,0v5.769H43.658V155.074a.664.664,0,1,0-1.328,0v11.232a.664.664,0,0,0,.664.664h6.639a.663.663,0,0,0,.661-.612c0-.015,0-.033,0-.052v-6.433a1.992,1.992,0,1,1,3.984,0v6.433a.4.4,0,0,0,0,.051.664.664,0,0,0,.661.613h6.639a.664.664,0,0,0,.664-.664V155.074a.664.664,0,0,0-.664-.664Zm0,0" transform="translate(-39.513 -144.135)" fill="#757575"/>
      </g>
    </g>
    <g id="Group_1094" data-name="Group 1094" transform="translate(129.965 752.182)">
      <g id="Group_165" data-name="Group 165">
        <g id="Group_164" data-name="Group 164" transform="translate(0 0)" clip-path="url(#clip-path-2)">
          <path id="Path_269" data-name="Path 269" d="M133.719,240.656a.672.672,0,0,1,0-.594l.855-1.75a1.991,1.991,0,0,0-.859-2.645l-1.721-.913a.672.672,0,0,1-.349-.481l-.337-1.919a1.992,1.992,0,0,0-2.25-1.634l-1.929.273a.672.672,0,0,1-.565-.184l-1.4-1.354a1.991,1.991,0,0,0-2.78,0l-1.4,1.355a.672.672,0,0,1-.565.184l-1.929-.273a1.991,1.991,0,0,0-2.25,1.634l-.337,1.919a.673.673,0,0,1-.349.481l-1.721.913a1.991,1.991,0,0,0-.859,2.644l.855,1.75a.673.673,0,0,1,0,.594l-.856,1.75a1.992,1.992,0,0,0,.859,2.645l1.721.913a.672.672,0,0,1,.349.481l.337,1.919a1.99,1.99,0,0,0,1.963,1.655,2.033,2.033,0,0,0,.287-.02l1.929-.273a.672.672,0,0,1,.565.184l1.4,1.355a1.991,1.991,0,0,0,2.78,0l1.4-1.355a.673.673,0,0,1,.565-.184l1.929.273a1.991,1.991,0,0,0,2.25-1.634l.337-1.919a.672.672,0,0,1,.349-.481l1.721-.913a1.992,1.992,0,0,0,.859-2.645Zm-.624,3.226-1.721.913a1.987,1.987,0,0,0-1.032,1.421l-.337,1.919a.674.674,0,0,1-.761.553l-1.929-.273a1.987,1.987,0,0,0-1.67.543l-1.4,1.354a.674.674,0,0,1-.941,0l-1.4-1.354a1.984,1.984,0,0,0-1.385-.563,2.03,2.03,0,0,0-.285.02l-1.929.273a.674.674,0,0,1-.761-.553l-.337-1.919a1.986,1.986,0,0,0-1.032-1.421l-1.721-.913a.674.674,0,0,1-.291-.895l.856-1.75a1.987,1.987,0,0,0,0-1.756l-.856-1.75a.674.674,0,0,1,.291-.895l1.721-.913a1.987,1.987,0,0,0,1.032-1.421l.337-1.919a.674.674,0,0,1,.761-.553l1.929.273a1.987,1.987,0,0,0,1.67-.543l1.4-1.355a.674.674,0,0,1,.941,0l1.4,1.355a1.986,1.986,0,0,0,1.67.543l1.929-.273a.674.674,0,0,1,.761.553l.337,1.919a1.987,1.987,0,0,0,1.032,1.421l1.721.913a.674.674,0,0,1,.291.895l-.856,1.75a1.987,1.987,0,0,0,0,1.756l.856,1.75a.674.674,0,0,1-.291.895Zm0,0" transform="translate(-112.722 -228.889)" fill="#f08d2a"/>
        </g>
      </g>
      <path id="Path_270" data-name="Path 270" d="M222.7,336.927a.662.662,0,0,0-.936,0l-8.732,8.732a.662.662,0,1,0,.936.936l8.732-8.732a.662.662,0,0,0,0-.936Zm0,0" transform="translate(-206.819 -330.29)" fill="#f08d2a"/>
      <path id="Path_271" data-name="Path 271" d="M214.528,321.226a2.426,2.426,0,1,0,2.426,2.426,2.428,2.428,0,0,0-2.426-2.426Zm0,3.528a1.1,1.1,0,1,1,1.1-1.1,1.1,1.1,0,0,1-1.1,1.1Zm0,0" transform="translate(-206.122 -315.71)" fill="#f08d2a"/>
      <path id="Path_272" data-name="Path 272" d="M303.117,439.347a2.426,2.426,0,1,0,2.426,2.426,2.429,2.429,0,0,0-2.426-2.426Zm0,3.528a1.1,1.1,0,1,1,1.1-1.1,1.1,1.1,0,0,1-1.1,1.1Zm0,0" transform="translate(-289.419 -426.774)" fill="#f08d2a"/>
    </g>
    <g id="Group_1095" data-name="Group 1095" transform="translate(215.752 753.182)">
      <g id="Group_41" data-name="Group 41">
        <rect id="Rectangle_99" data-name="Rectangle 99" width="4.309" height="21.569" transform="translate(14.27)" fill="#757575"/>
        <rect id="Rectangle_100" data-name="Rectangle 100" width="4.309" height="6.032" transform="translate(7.581 15.537)" fill="#757575"/>
        <rect id="Rectangle_101" data-name="Rectangle 101" width="4.309" height="9.91" transform="translate(0.862 11.659)" fill="#757575"/>
        <rect id="Rectangle_102" data-name="Rectangle 102" width="4.309" height="15.943" transform="translate(21.004 5.626)" fill="#757575"/>
        <path id="Path_112" data-name="Path 112" d="M26.162,36.062H.443a.431.431,0,1,1,0-.862H26.162a.431.431,0,1,1,0,.862Zm0,0" transform="translate(0 -14.062)" fill="#757575"/>
      </g>
    </g>
    <g id="Group_1096" data-name="Group 1096" transform="translate(306.118 752.182)">
      <g id="Group_53" data-name="Group 53" transform="translate(0 0)">
        <path id="Path_140" data-name="Path 140" d="M26.309,52.7H9.392A1.892,1.892,0,0,1,7.5,50.809V33.892A1.892,1.892,0,0,1,9.392,32H26.309A1.892,1.892,0,0,1,28.2,33.892V50.809A1.892,1.892,0,0,1,26.309,52.7Z" transform="translate(-7.5 -30.69)" fill="none" stroke="#757575" stroke-width="1"/>
        <line id="Line_11" data-name="Line 11" y2="2.62" transform="translate(6.703 0)" fill="none" stroke="#757575" stroke-linecap="round" stroke-width="1"/>
        <line id="Line_12" data-name="Line 12" y2="2.62" transform="translate(10.556 0)" fill="none" stroke="#757575" stroke-linecap="round" stroke-width="1"/>
        <line id="Line_13" data-name="Line 13" y2="2.62" transform="translate(13.997 0)" fill="none" stroke="#757575" stroke-linecap="round" stroke-width="1"/>
        <circle id="Ellipse_29" data-name="Ellipse 29" cx="3.391" cy="3.391" r="3.391" transform="translate(6.884 5.162)" fill="none" stroke="#757575" stroke-width="1"/>
        <line id="Line_14" data-name="Line 14" x1="0.145" y2="7.463" transform="translate(9.869 11.945)" fill="none" stroke="#757575" stroke-linecap="round" stroke-width="1"/>
        <line id="Line_15" data-name="Line 15" x2="2.087" transform="translate(9.928 18.449)" fill="none" stroke="#757575" stroke-linecap="round" stroke-width="1"/>
        <line id="Line_16" data-name="Line 16" x2="2.087" transform="translate(9.928 16.531)" fill="none" stroke="#757575" stroke-linecap="round" stroke-width="1"/>
      </g>
    </g>
    <text id="Price" transform="translate(140 797)" fill="#f08d2a" font-size="16" font-family="Roboto-Regular, Roboto"><tspan x="-18.121" y="0">Price</tspan></text>
    <g id="Group_1092" data-name="Group 1092" transform="translate(297.13 782.182)">
      <text id="Lease_" data-name="Lease " transform="translate(-0.13 14.818)" fill="#757575" font-size="16" font-family="Roboto-Regular, Roboto"><tspan x="0" y="0">Lease </tspan></text>
    </g>
    <text id="Market" transform="translate(231 797)" fill="#757575" font-size="16" font-family="Roboto-Regular, Roboto"><tspan x="-24.871" y="0">Market</tspan></text>
  </g>
</svg>
