<svg id="Capa_1" data-name="Capa 1" xmlns="http://www.w3.org/2000/svg" viewBox="0 0 512 512"><defs><style>.cls-1{fill:#fff;}</style></defs><title>coin</title><path class="cls-1" d="M-88,75A254.33,254.33,0,0,0-269,0,254.33,254.33,0,0,0-450,75a254.33,254.33,0,0,0-75,181,254.33,254.33,0,0,0,75,181,254.33,254.33,0,0,0,181,75A254.33,254.33,0,0,0-88,437,254.33,254.33,0,0,0-13,256,254.33,254.33,0,0,0-88,75ZM-252.93,367.4H-254v33.2a15,15,0,0,1-15,15,15,15,0,0,1-15-15V367.4h-33.2a15,15,0,0,1-15-15,15,15,0,0,1,15-15h64.27a33.23,33.23,0,0,0,33.2-33.2,33.24,33.24,0,0,0-33.2-33.2h-32.14a63.27,63.27,0,0,1-63.2-63.2,63.28,63.28,0,0,1,63.2-63.2H-284V111.4a15,15,0,0,1,15-15,15,15,0,0,1,15,15v33.2h33.2a15,15,0,0,1,15,15,15,15,0,0,1-15,15h-64.27a33.24,33.24,0,0,0-33.2,33.2,33.24,33.24,0,0,0,33.2,33.2h32.14a63.27,63.27,0,0,1,63.2,63.2A63.27,63.27,0,0,1-252.93,367.4Z" transform="translate(525)"/></svg>