<svg xmlns="http://www.w3.org/2000/svg" width="334.755" height="103.38" viewBox="0 0 334.755 103.38">
  <g id="Group_1042" data-name="Group 1042" transform="translate(-43 -689.333)">
    <g id="Group_999" data-name="Group 999" transform="translate(58 689.333)">
      <ellipse id="Ellipse_187" data-name="Ellipse 187" cx="17.444" cy="17.444" rx="17.444" ry="17.444" transform="translate(-15 0)" fill="#fff"/>
      <ellipse id="Ellipse_188" data-name="Ellipse 188" cx="17.444" cy="17.444" rx="17.444" ry="17.444" transform="translate(177.88 0)" fill="#fff"/>
      <ellipse id="Ellipse_189" data-name="Ellipse 189" cx="17.444" cy="17.444" rx="17.444" ry="17.444" transform="translate(-14.103 67.031)" fill="#fff"/>
      <ellipse id="Ellipse_190" data-name="Ellipse 190" cx="17.444" cy="17.444" rx="17.444" ry="17.444" transform="translate(178.359 66.076)" fill="#fff"/>
      <text id="Download_the_Poultry_app" data-name="Download the
Poultry app" transform="translate(27.936 14.304)" fill="#fff" font-size="10" font-family="HelveticaNeue-Bold, Helvetica Neue" font-weight="700"><tspan x="0" y="0">Download the</tspan><tspan x="0" y="12">Poultry app</tspan></text>
      <text id="Register_an_account" data-name="Register an
account" transform="translate(223.656 14.304)" fill="#fff" font-size="10" font-family="HelveticaNeue-Bold, Helvetica Neue" font-weight="700"><tspan x="0" y="0">Register an</tspan><tspan x="0" y="12">account</tspan></text>
      <text id="Update_your_farms_inventories" data-name="Update your 
farms &amp; inventories" transform="translate(226.755 81.413)" fill="#fff" font-size="10" font-family="HelveticaNeue-Bold, Helvetica Neue" font-weight="700"><tspan x="0" y="0">Update your </tspan><tspan x="0" y="12">farms &amp; inventories</tspan></text>
      <text id="Increase_your_growth_success_rate" data-name="Increase your 
growth &amp; success 
rate" transform="translate(27.861 77.38)" fill="#fff" font-size="10" font-family="HelveticaNeue-Bold, Helvetica Neue" font-weight="700"><tspan x="0" y="0">Increase your </tspan><tspan x="0" y="12">growth &amp; success </tspan><tspan x="0" y="24">rate</tspan></text>
      <g id="round-person-24px" transform="translate(184.371 6.491)">
        <path id="Path_2681" data-name="Path 2681" d="M0,0H21.906V21.906H0Z" fill="none"/>
        <path id="Path_2682" data-name="Path 2682" d="M11.3,11.3A3.651,3.651,0,1,0,7.651,7.651,3.65,3.65,0,0,0,11.3,11.3Zm0,1.826c-2.437,0-7.3,1.223-7.3,3.651v.913a.915.915,0,0,0,.913.913H17.691a.915.915,0,0,0,.913-.913v-.913C18.6,14.351,13.739,13.128,11.3,13.128Z" transform="translate(-0.349 -0.349)" fill="#f1912b"/>
      </g>
      <path id="round-phone_iphone-24px" d="M13.527,1H7.03A2.031,2.031,0,0,0,5,3.03V16.836a2.031,2.031,0,0,0,2.03,2.03h6.5a2.031,2.031,0,0,0,2.03-2.03V3.03A2.031,2.031,0,0,0,13.527,1ZM10.279,18.055A1.218,1.218,0,1,1,11.5,16.836,1.217,1.217,0,0,1,10.279,18.055Zm3.655-3.249H6.624V3.436h7.309Z" transform="translate(-7.83 7.519)" fill="#f1912b"/>
      <g id="round-home-24px" transform="translate(185.572 73.514)">
        <path id="Path_2683" data-name="Path 2683" d="M0,0H20.283V20.283H0Z" fill="none"/>
        <path id="Path_2684" data-name="Path 2684" d="M8.885,16.576V12.35h3.381v4.226a.848.848,0,0,0,.845.845h2.535a.848.848,0,0,0,.845-.845V10.66h1.437a.419.419,0,0,0,.279-.735L11.142,3.561a.852.852,0,0,0-1.132,0L2.944,9.924a.421.421,0,0,0,.279.735H4.66v5.916a.848.848,0,0,0,.845.845H8.04A.848.848,0,0,0,8.885,16.576Z" transform="translate(-0.434 -0.518)" fill="#f1912b"/>
      </g>
      <g id="stats" transform="translate(-5.138 77.789)">
        <g id="Group_998" data-name="Group 998" transform="translate(0 0)">
          <path id="Path_2685" data-name="Path 2685" d="M39.358,292.4a1.384,1.384,0,0,1-.433.294v2.289a.616.616,0,0,0,.615.615h1.386a.616.616,0,0,0,.615-.615V290.31a.713.713,0,0,0-.007-.088Z" transform="translate(-37.609 -281.694)" fill="#f1912b"/>
          <path id="Path_2686" data-name="Path 2686" d="M16.108,90.722h-.044l-2.8.132c-.145.007-.287.014-.369.189s.01.271.112.372c.287.287.571.578.862.859l-.318.318-2.587,2.587-.23.23-.565.565L7.941,98.2l-.129-.128L5.151,95.409l-.565-.565-.152-.152A.609.609,0,0,0,4,94.513a.623.623,0,0,0-.436.179l-.152.152L.18,98.074a.618.618,0,0,0,0,.872l.152.152a.609.609,0,0,0,.436.179A.623.623,0,0,0,1.2,99.1L4,96.305l.129.129,2.661,2.661.565.565.152.152a.608.608,0,0,0,.436.179.623.623,0,0,0,.436-.179l.152-.152L11.191,97l.565-.565.23-.23,2.587-2.587.314-.314.845.839A.4.4,0,0,0,16,94.3a.3.3,0,0,0,.139-.041.426.426,0,0,0,.213-.406c.041-.913.085-1.823.129-2.736C16.49,90.847,16.375,90.722,16.108,90.722Z" transform="translate(0 -88.94)" fill="#f1912b"/>
          <path id="Path_2687" data-name="Path 2687" d="M184.368,43.744a2.936,2.936,0,0,0,.839.24c.227.037.233.047.237.281,0,.108,0,.213,0,.321a.191.191,0,0,0,.2.216c.159,0,.314,0,.473,0a.182.182,0,0,0,.2-.2c0-.145.007-.291,0-.44a.233.233,0,0,1,.2-.264,1.616,1.616,0,0,0,.825-.528,1.489,1.489,0,0,0-.48-2.262,7.583,7.583,0,0,0-.829-.375,1.764,1.764,0,0,1-.453-.257.4.4,0,0,1,.1-.7.865.865,0,0,1,.281-.057,2.128,2.128,0,0,1,1.048.206c.166.081.22.054.277-.118s.108-.365.162-.551a.191.191,0,0,0-.125-.257,2.548,2.548,0,0,0-.659-.2c-.3-.047-.3-.047-.3-.348,0-.426,0-.426-.426-.426h-.186c-.2.007-.233.041-.237.24,0,.091,0,.179,0,.271,0,.267,0,.264-.257.355A1.419,1.419,0,0,0,184.22,40.2a1.345,1.345,0,0,0,.761,1.288,8.28,8.28,0,0,0,.954.426,1.49,1.49,0,0,1,.348.2.476.476,0,0,1-.115.835,1.181,1.181,0,0,1-.612.081,2.686,2.686,0,0,1-.933-.281c-.172-.091-.223-.068-.281.122-.051.162-.095.325-.139.487C184.139,43.588,184.159,43.642,184.368,43.744Z" transform="translate(-177.943 -38.022)" fill="#f1912b"/>
          <path id="Path_2688" data-name="Path 2688" d="M147.692,320.5l-.565-.565-1.217-1.217a.613.613,0,0,0-.085.311v3.49a.616.616,0,0,0,.615.616h1.386a.616.616,0,0,0,.615-.616v-1.512a1.392,1.392,0,0,1-.6-.355Z" transform="translate(-140.894 -309.23)" fill="#f1912b"/>
          <path id="Path_2689" data-name="Path 2689" d="M253.259,317.026l-.152.152a1.375,1.375,0,0,1-.382.271v1.6a.615.615,0,0,0,.615.615h1.387a.615.615,0,0,0,.615-.615v-3.49a.608.608,0,0,0-.179-.433Z" transform="translate(-244.179 -305.751)" fill="#f1912b"/>
          <path id="Path_2690" data-name="Path 2690" d="M359.9,205.354l-.23.23-.149.149v5.093a.615.615,0,0,0,.615.615h1.386a.616.616,0,0,0,.615-.615V203.2a.655.655,0,0,0-.007-.081Z" transform="translate(-347.367 -197.539)" fill="#f1912b"/>
        </g>
      </g>
    </g>
    <line id="Line_254" data-name="Line 254" x2="19" transform="translate(192.5 710.5)" fill="none" stroke="#fff" stroke-width="1" stroke-dasharray="2"/>
    <line id="Line_255" data-name="Line 255" x2="19" transform="translate(253.588 727.463) rotate(90)" fill="none" stroke="#fff" stroke-width="1" stroke-dasharray="2"/>
    <line id="Line_256" data-name="Line 256" x2="19" transform="translate(218.672 774.7) rotate(-179)" fill="none" stroke="#fff" stroke-width="1" stroke-dasharray="2"/>
    <path id="Polygon_1" data-name="Polygon 1" d="M5,0l5,9H0Z" transform="matrix(-0.035, 0.999, -0.999, -0.035, 220.672, 705.66)" fill="#fff"/>
    <path id="Polygon_2" data-name="Polygon 2" d="M5,0l5,9H0Z" transform="matrix(-0.999, -0.035, 0.035, -0.999, 258.428, 752.54)" fill="#fff"/>
    <path id="Polygon_3" data-name="Polygon 3" d="M5,0l5,9H0Z" transform="translate(190.42 779.048) rotate(-87)" fill="#fff"/>
  </g>
</svg>
