<svg xmlns="http://www.w3.org/2000/svg" width="1109" height="149.811" viewBox="0 0 1109 149.811">
  <g id="Group_1008" data-name="Group 1008" transform="translate(-147 -526.189)">
    <circle id="Ellipse_187" data-name="Ellipse 187" cx="43" cy="43" r="43" transform="translate(147 590)" fill="#fff"/>
    <circle id="Ellipse_188" data-name="Ellipse 188" cx="43" cy="43" r="43" transform="translate(425 590)" fill="#fff"/>
    <circle id="Ellipse_189" data-name="Ellipse 189" cx="43" cy="43" r="43" transform="translate(703 590)" fill="#fff"/>
    <circle id="Ellipse_190" data-name="Ellipse 190" cx="43" cy="43" r="43" transform="translate(981 590)" fill="#fff"/>
    <text id="Download_the_Poultry_app" data-name="Download the
Poultry app" transform="translate(244 629)" fill="#fff" font-size="16" font-family="HelveticaNeue-Bold, Helvetica Neue" font-weight="700"><tspan x="0" y="0">Download the</tspan><tspan x="0" y="19">Poultry app</tspan></text>
    <text id="Register_an_account" data-name="Register an
account" transform="translate(529 629)" fill="#fff" font-size="16" font-family="HelveticaNeue-Bold, Helvetica Neue" font-weight="700"><tspan x="0" y="0">Register an</tspan><tspan x="0" y="19">account</tspan></text>
    <text id="Update_your_farms_inventories" data-name="Update your 
farms &amp; inventories" transform="translate(796 629)" fill="#fff" font-size="16" font-family="HelveticaNeue-Bold, Helvetica Neue" font-weight="700"><tspan x="0" y="0">Update your </tspan><tspan x="0" y="19">farms &amp; inventories</tspan></text>
    <text id="Increase_your_growth_success_rate" data-name="Increase your 
growth &amp; success rate" transform="translate(1085 629)" fill="#fff" font-size="16" font-family="HelveticaNeue-Bold, Helvetica Neue" font-weight="700"><tspan x="0" y="0">Increase your </tspan><tspan x="0" y="19">growth &amp; success rate</tspan></text>
    <g id="round-person-24px" transform="translate(441 606)">
      <path id="Path_2681" data-name="Path 2681" d="M0,0H54V54H0Z" fill="none"/>
      <path id="Path_2682" data-name="Path 2682" d="M22,22a9,9,0,1,0-9-9A9,9,0,0,0,22,22Zm0,4.5c-6.008,0-18,3.015-18,9v2.25A2.257,2.257,0,0,0,6.25,40h31.5A2.257,2.257,0,0,0,40,37.75V35.5C40,29.515,28.007,26.5,22,26.5Z" transform="translate(5 5)" fill="#f1912b"/>
    </g>
    <path id="round-phone_iphone-24px" d="M26.021,1H10A5.007,5.007,0,0,0,5,6V40.038a5.007,5.007,0,0,0,5,5H26.021a5.007,5.007,0,0,0,5-5V6A5.007,5.007,0,0,0,26.021,1ZM18.013,43.041a3,3,0,1,1,3-3A3,3,0,0,1,18.013,43.041Zm9.009-8.008H9V7.006H27.021Z" transform="translate(172 610)" fill="#f1912b"/>
    <g id="round-home-24px" transform="translate(721 608)">
      <path id="Path_2683" data-name="Path 2683" d="M0,0H50V50H0Z" fill="none"/>
      <path id="Path_2684" data-name="Path 2684" d="M17.8,35.96V25.543h8.333V35.96a2.089,2.089,0,0,0,2.083,2.083h6.25a2.089,2.089,0,0,0,2.083-2.083V21.376h3.542a1.033,1.033,0,0,0,.688-1.812L23.36,3.876a2.1,2.1,0,0,0-2.792,0L3.152,19.564a1.037,1.037,0,0,0,.688,1.813H7.381V35.96a2.089,2.089,0,0,0,2.083,2.083h6.25A2.089,2.089,0,0,0,17.8,35.96Z" transform="translate(3.036 3.624)" fill="#f1912b"/>
    </g>
    <g id="stats" transform="translate(1004 576.992)">
      <g id="Group_998" data-name="Group 998" transform="translate(0 38.022)">
        <path id="Path_2685" data-name="Path 2685" d="M39.992,295.59a3.412,3.412,0,0,1-1.067.725v5.643a1.517,1.517,0,0,0,1.517,1.517H43.86a1.517,1.517,0,0,0,1.517-1.517v-11.52a1.76,1.76,0,0,0-.017-.217Z" transform="translate(-35.68 -269.199)" fill="#f1912b"/>
        <path id="Path_2686" data-name="Path 2686" d="M39.707,90.722H39.6l-6.911.325c-.358.017-.709.033-.909.467s.025.667.275.917c.709.709,1.409,1.425,2.126,2.117l-.784.784-6.377,6.377-.567.567-1.392,1.392-5.485,5.485-.317-.317-6.56-6.56-1.392-1.392-.375-.375a1.5,1.5,0,0,0-1.075-.442,1.535,1.535,0,0,0-1.075.442l-.375.375L.444,108.844a1.524,1.524,0,0,0,0,2.151l.375.375a1.5,1.5,0,0,0,1.075.442,1.535,1.535,0,0,0,1.075-.442l6.886-6.886.317.317,6.56,6.56,1.392,1.392.375.375a1.5,1.5,0,0,0,1.075.442,1.535,1.535,0,0,0,1.075-.442l.375-.375,6.56-6.56,1.392-1.392.567-.567,6.377-6.377.775-.775,2.084,2.067a.994.994,0,0,0,.659.4.747.747,0,0,0,.342-.1,1.05,1.05,0,0,0,.525-1c.1-2.251.208-4.493.317-6.744C40.648,91.03,40.365,90.722,39.707,90.722Z" transform="translate(0 -86.329)" fill="#f1912b"/>
        <path id="Path_2687" data-name="Path 2687" d="M184.659,52.127a7.239,7.239,0,0,0,2.067.592c.559.092.575.117.584.692,0,.267.008.525.008.792a.47.47,0,0,0,.5.534c.392.008.775.008,1.167,0a.448.448,0,0,0,.483-.5c0-.358.017-.717,0-1.084a.574.574,0,0,1,.492-.65,3.984,3.984,0,0,0,2.034-1.3,3.67,3.67,0,0,0-1.184-5.577,18.7,18.7,0,0,0-2.042-.925,4.347,4.347,0,0,1-1.117-.634.973.973,0,0,1,.242-1.734,2.132,2.132,0,0,1,.692-.142,5.245,5.245,0,0,1,2.584.508c.408.2.542.133.684-.292.142-.45.267-.9.4-1.359a.472.472,0,0,0-.308-.634,6.282,6.282,0,0,0-1.626-.483c-.742-.117-.742-.117-.742-.859-.008-1.05-.008-1.05-1.05-1.05h-.458c-.492.017-.575.1-.584.592-.008.225,0,.442,0,.667,0,.659-.008.65-.634.875a3.5,3.5,0,0,0-2.559,3.243,3.315,3.315,0,0,0,1.876,3.176,20.417,20.417,0,0,0,2.351,1.05,3.674,3.674,0,0,1,.859.5,1.174,1.174,0,0,1-.283,2.059,2.911,2.911,0,0,1-1.509.2,6.621,6.621,0,0,1-2.3-.692c-.425-.225-.55-.167-.692.3-.125.4-.233.8-.342,1.2C184.092,51.743,184.142,51.876,184.659,52.127Z" transform="translate(-168.818 -38.022)" fill="#f1912b"/>
        <path id="Path_2688" data-name="Path 2688" d="M150.426,323.115l-1.392-1.392-3-3a1.511,1.511,0,0,0-.208.767v8.6a1.517,1.517,0,0,0,1.517,1.517h3.418a1.517,1.517,0,0,0,1.517-1.517v-3.726a3.434,3.434,0,0,1-1.475-.875Z" transform="translate(-133.669 -295.323)" fill="#f1912b"/>
        <path id="Path_2689" data-name="Path 2689" d="M254.042,319.815l-.375.375a3.394,3.394,0,0,1-.942.667v3.935a1.517,1.517,0,0,0,1.517,1.517h3.418a1.517,1.517,0,0,0,1.517-1.517v-8.6a1.5,1.5,0,0,0-.442-1.067Z" transform="translate(-231.658 -292.023)" fill="#f1912b"/>
        <path id="Path_2690" data-name="Path 2690" d="M360.459,208.624l-.567.567-.367.367v12.554a1.517,1.517,0,0,0,1.517,1.517h3.418a1.517,1.517,0,0,0,1.517-1.517V203.322a1.62,1.62,0,0,0-.017-.2Z" transform="translate(-329.555 -189.359)" fill="#f1912b"/>
      </g>
    </g>
    <path id="Path_2694" data-name="Path 2694" d="M1777.013-5022.877s123.937-104.438,245.047,0" transform="translate(-1305 5597)" fill="none" stroke="#fff" stroke-linecap="round" stroke-width="3" stroke-dasharray="5"/>
    <path id="Path_2696" data-name="Path 2696" d="M1777.013-5022.877s123.937-104.438,245.047,0" transform="translate(-1023 5597)" fill="none" stroke="#fff" stroke-linecap="round" stroke-width="3" stroke-dasharray="5"/>
    <g id="Group_1007" data-name="Group 1007">
      <path id="Path_2691" data-name="Path 2691" d="M1777.013-5022.877s123.937-104.438,245.047,0" transform="translate(-1587 5597)" fill="none" stroke="#fff" stroke-linecap="round" stroke-width="3" stroke-dasharray="5"/>
      <path id="Path_2692" data-name="Path 2692" d="M2042.417-5018.881l9.1-8.885v8.885Z" transform="translate(-1612.365 5597)" fill="#fff"/>
    </g>
    <path id="Path_2693" data-name="Path 2693" d="M2042.417-5018.881l9.1-8.885v8.885Z" transform="translate(-1330.365 5597)" fill="#fff"/>
    <path id="Path_2695" data-name="Path 2695" d="M2042.417-5018.881l9.1-8.885v8.885Z" transform="translate(-1048.365 5597)" fill="#fff"/>
  </g>
</svg>
