<svg id="magnifier" xmlns="http://www.w3.org/2000/svg" width="41.094" height="41.095" viewBox="0 0 41.094 41.095">
  <g id="Group_758" data-name="Group 758" transform="translate(0)">
    <path id="Path_1231" data-name="Path 1231" d="M311.112,305.671l-9.428-9.428a18.147,18.147,0,0,1-5.448,5.448l9.428,9.428a3.852,3.852,0,0,0,5.448-5.448Z" transform="translate(-271.147 -271.153)"/>
    <path id="Path_1232" data-name="Path 1232" d="M30.822,15.41a15.41,15.41,0,1,0-15.41,15.41A15.411,15.411,0,0,0,30.822,15.41ZM15.411,26.968A11.558,11.558,0,1,1,26.969,15.411,11.57,11.57,0,0,1,15.411,26.968Z" transform="translate(-0.001 0)"/>
    <path id="Path_1233" data-name="Path 1233" d="M75.817,84.805h2.568a6.429,6.429,0,0,1,6.421-6.421V75.816A9,9,0,0,0,75.817,84.805Z" transform="translate(-69.396 -69.395)"/>
  </g>
</svg>
