<svg id="Group_757" data-name="Group 757" xmlns="http://www.w3.org/2000/svg" width="40.943" height="36.801" viewBox="0 0 40.943 36.801">
  <g id="Group_756" data-name="Group 756" transform="translate(0 0)">
    <path id="Path_1224" data-name="Path 1224" d="M38.452,25.432H2.493A2.5,2.5,0,0,0,0,27.923V53.778a2.5,2.5,0,0,0,2.493,2.491H38.452a2.5,2.5,0,0,0,2.491-2.491V27.923A2.5,2.5,0,0,0,38.452,25.432Zm-.627,26.513H3.119V28.927H37.825Z" transform="translate(0 -25.432)"/>
    <path id="Path_1225" data-name="Path 1225" d="M141.636,418.538l-4.705,4.781h18.705l-4.705-4.781Z" transform="translate(-125.778 -386.518)"/>
    <path id="Path_1226" data-name="Path 1226" d="M84.563,162.962A1.668,1.668,0,0,0,86.23,161.3a1.626,1.626,0,0,0-.095-.471c2.131-1.718,5.9-4.747,7.613-6.07a1.5,1.5,0,0,0,1.743.095l4.312,3.667a1.536,1.536,0,0,0-.056.285,1.669,1.669,0,0,0,3.338,0,1.625,1.625,0,0,0-.093-.462l4.312-3.894a1.627,1.627,0,0,0,.763.207,1.681,1.681,0,1,0-1.541-1.046l-4.224,3.814a1.617,1.617,0,0,0-.884-.29,1.634,1.634,0,0,0-1.023.383l-4.15-3.528a1.62,1.62,0,0,0,.114-.571,1.667,1.667,0,1,0-3.335,0,1.631,1.631,0,0,0,.116.573l-7.653,5.954a1.63,1.63,0,0,0-.922-.316,1.667,1.667,0,0,0,0,3.335Z" transform="translate(-76.145 -141.064)"/>
  </g>
</svg>
